<svg width="32" height="6" viewBox="0 0 32 6" fill="none" xmlns="http://www.w3.org/2000/svg">
<path d="M6.09016 2.46445C5.48256 2.40139 4.8245 2.31089 4.34004 1.90431C4.13745 1.73163 3.95934 1.52587 3.82227 1.29728C3.52472 0.801019 2.95178 0.328792 2.56724 0.76115C2.48417 0.854541 2.41215 0.957836 2.35402 1.06964C2.1245 1.57636 1.81997 2.21347 1.27312 2.31548C1.07154 2.35309 0.875331 2.40818 0.69114 2.4877C0.247126 2.67939 0.2617 3.28727 0.701645 3.48812C0.822925 3.54349 0.956093 3.58992 1.1074 3.62686C1.71138 3.77434 2.06944 4.55275 2.43859 5.05302C2.48297 5.12789 2.53491 5.1945 2.5927 5.25441C2.9799 5.65584 3.49626 5.23873 3.77504 4.75567C3.86727 4.59586 4.00137 4.41176 4.19909 4.19165C4.57227 3.79769 5.12053 3.65821 5.63614 3.56249C6.15026 3.45862 6.67702 3.48978 7.19782 3.48608C15.0839 3.48536 22.9707 3.48675 30.8569 3.48543C31.1385 3.48538 31.3666 3.25674 31.3664 2.97512C31.3663 2.6939 31.1384 2.46593 30.8572 2.46591C22.602 2.46536 14.3461 2.46882 6.09016 2.46445Z" fill="#E4E6E7"/>
</svg>
