<svg width="25" height="25" viewBox="0 0 25 25" fill="none" xmlns="http://www.w3.org/2000/svg">
<path d="M24.2865 10.7343C24.2595 9.07207 23.8311 7.44096 23.0377 5.97995C22.3036 4.86671 21.351 3.91413 20.2377 3.17995C18.9915 2.27014 17.6101 1.56152 16.1441 1.07995C14.011 0.43415 11.7475 0.34893 9.57192 0.832508C7.3963 1.31609 5.38202 2.35215 3.72334 3.84075C2.27664 5.20226 1.19843 6.90809 0.589329 8.79903C-0.0197688 10.69 -0.139903 12.7044 0.240141 14.6543V14.5199C0.240141 14.6095 0.27934 14.6935 0.29614 14.7775C0.31294 14.8615 0.29614 14.8727 0.29614 14.9175C0.91774 17.7175 1.83614 19.9576 4.10974 21.8112C5.61054 23.0376 7.56494 23.6143 9.49694 23.9783C12.4649 24.5383 16.0433 23.5079 18.7425 22.1919C20.9825 21.0719 22.3265 20.1815 23.2561 17.9135C24.1364 15.6288 24.4887 13.1745 24.2865 10.7343Z" fill="#FFBE9D"/>
<path d="M24.0625 9.33995C24.2585 10.9248 23.3289 12.448 22.7465 13.9376C22.3713 14.9008 21.9345 15.9423 21.0329 16.4519C20.3721 16.8271 19.5433 16.8664 18.9329 17.32C18.4345 17.6952 18.1489 18.3 17.6393 18.664C16.4241 19.5208 14.6265 18.6136 13.2937 19.2744C12.8983 19.509 12.5236 19.7769 12.1737 20.0752C11.9995 20.2215 11.7957 20.3283 11.5762 20.3882C11.3567 20.4482 11.1269 20.4598 10.9025 20.4224C10.3817 20.2824 10.0737 19.7447 9.6089 19.4703C9.0489 19.1175 8.3041 19.2128 7.6265 19.196C6.54019 19.1507 5.48924 18.797 4.59667 18.1761C3.7041 17.5553 3.00684 16.6931 2.5865 15.6903C2.5865 15.6903 1.5001 17.0344 0.951298 16.508C0.588618 16.1191 0.333805 15.6423 0.212098 15.1248L0.2401 15.248C-0.19023 13.1354 -0.0586458 10.9469 0.621708 8.90107C1.30206 6.85527 2.50736 5.02383 4.11718 3.58973C5.727 2.15563 7.68497 1.16909 9.79546 0.72867C11.906 0.288252 14.0951 0.40938 16.1441 1.07995C17.6258 1.58163 19.016 2.32117 20.2601 3.26955C21.3832 4.04715 22.336 5.04563 23.0601 6.20395C23.5929 7.17505 23.9333 8.23986 24.0625 9.33995Z" fill="#9A4A4D"/>
<g opacity="0.3">
<path d="M21.8282 7.37433C21.7118 6.94454 21.5099 6.54266 21.2346 6.19273C19.7732 4.1644 17.6855 2.67286 15.293 1.94793C12.9186 1.23673 10.5554 1.61193 8.23696 2.50793C7.96436 2.58033 7.73139 2.75746 7.58876 3.00078C7.44612 3.2441 7.40536 3.53391 7.47536 3.80713C7.55784 4.07955 7.70954 4.32592 7.91565 4.52222C8.12177 4.71851 8.37524 4.85802 8.65136 4.92713C9.20308 5.0633 9.77963 5.0633 10.3314 4.92713C10.8914 4.81513 11.4514 4.64713 12.0114 4.58553C13.3542 4.50714 14.6853 4.87535 15.797 5.63273C16.8972 6.38709 17.9415 7.21993 18.9218 8.12473C19.2845 8.46709 19.7106 8.73531 20.1762 8.91433C20.4091 8.99969 20.6607 9.02133 20.9048 8.97703C21.1489 8.93273 21.3768 8.8241 21.565 8.66233C21.7136 8.48709 21.8156 8.2772 21.8616 8.05207C21.9076 7.82693 21.8961 7.59383 21.8282 7.37433Z" fill="white"/>
</g>
<g opacity="0.3">
<path d="M13.3103 12.8402C12.2295 12.5378 11.1263 13.109 10.1127 13.5962C9.09912 14.0834 7.87272 14.4978 6.90392 13.9378C6.02472 13.4282 5.53192 12.1962 4.51272 12.157C4.18604 12.1716 3.87335 12.2938 3.62322 12.5044C3.37309 12.715 3.19953 13.0024 3.12952 13.3218C3.01127 13.9713 3.1263 14.6417 3.45432 15.2146C3.95339 16.131 4.72457 16.8698 5.66144 17.3292C6.5983 17.7886 7.65466 17.9459 8.68472 17.7794C9.65912 17.6002 10.5663 17.1354 11.5463 17.0402C12.4199 16.9562 13.4279 17.1298 14.0607 16.5306C14.6769 16.0765 15.1069 15.4136 15.2703 14.6658C15.4327 13.8874 15.0743 13.165 13.3103 12.8402Z" fill="white"/>
</g>
<g opacity="0.3">
<path d="M18.7201 12.9407C18.5917 12.6699 18.38 12.4472 18.1161 12.3051C17.8521 12.163 17.5497 12.1091 17.2529 12.1511H17.2137C17.0481 12.2025 16.896 12.2902 16.7687 12.4078C16.6413 12.5255 16.5417 12.67 16.4774 12.831C16.413 12.992 16.3853 13.1653 16.3964 13.3383C16.4076 13.5114 16.4572 13.6797 16.5417 13.8311C16.6792 14.0884 16.9055 14.287 17.1784 14.39C17.4514 14.493 17.7524 14.4934 18.0257 14.3911C18.2937 14.2699 18.5103 14.0579 18.6374 13.7926C18.7644 13.5272 18.7937 13.2255 18.7201 12.9407Z" fill="white"/>
</g>
<g opacity="0.3">
<path d="M8.90319 12.2803C9.84007 11.7114 10.9019 11.3803 11.9961 11.3158C13.0903 11.2514 14.1836 11.4556 15.1808 11.9107C15.9743 11.0913 17.0007 10.536 18.1208 10.3203C17.6568 9.42785 16.992 8.65538 16.1786 8.0637C15.3652 7.47202 14.4256 7.07729 13.4337 6.91061C12.4418 6.74394 11.4247 6.80987 10.4626 7.10322C9.50057 7.39657 8.61975 7.90931 7.88959 8.60106C7.26239 9.19466 6.73039 10.0795 7.03279 10.8915C7.29599 11.5859 8.06319 11.9331 8.75199 12.2019" fill="black"/>
</g>
<path d="M19.9579 10.4039C19.4602 10.3215 18.9553 10.2915 18.4514 10.3143C17.9031 10.3744 17.371 10.5378 16.8834 10.7959C16.2768 11.124 15.6964 11.4984 15.1474 11.9159L15.1026 11.9495H15.0466C14.7722 11.8487 14.4866 11.7535 14.1786 11.6751C13.405 11.4809 12.6042 11.4185 11.8098 11.4903C11.1615 11.5572 10.5238 11.7039 9.91145 11.9271C8.86425 12.3191 8.28185 12.7111 8.23145 12.6775C8.3539 12.5665 8.48928 12.4706 8.63465 12.3919C9.01524 12.1549 9.41631 11.9525 9.83305 11.7871C10.4514 11.5351 11.1015 11.3692 11.765 11.2943C12.5813 11.2093 13.4061 11.27 14.201 11.4735C14.5054 11.5475 14.8047 11.641 15.097 11.7535H14.9963C15.5568 11.3301 16.1526 10.9554 16.777 10.6335C17.288 10.3748 17.8462 10.2223 18.4179 10.1855C18.7938 10.1649 19.1708 10.1969 19.5379 10.2807C19.6819 10.3064 19.8228 10.3477 19.9579 10.4039Z" fill="#263238"/>
<path d="M18.0928 10.1015C17.6955 9.51249 17.2272 8.97458 16.6984 8.49992C16.1158 8.00056 15.4506 7.60641 14.7328 7.33512C13.8585 7.00339 12.9201 6.87508 11.9888 6.95992C11.0545 7.0484 10.1496 7.33474 9.33443 7.79992C8.66945 8.17892 8.07924 8.67614 7.59283 9.26712C7.26116 9.66297 7.01347 10.1221 6.86483 10.6167C6.76963 10.9695 6.76963 11.1767 6.75283 11.1767C6.73603 11.1767 6.75283 11.1263 6.75283 11.0255C6.75511 10.8823 6.772 10.7397 6.80323 10.5999C6.92377 10.0803 7.15913 9.59429 7.49203 9.17752C7.97488 8.5555 8.57161 8.03098 9.25043 7.63192C10.0855 7.14033 11.0185 6.83828 11.9832 6.74712C12.9485 6.66121 13.9206 6.80116 14.8224 7.15592C15.5559 7.44288 16.2313 7.86028 16.816 8.38792C17.2071 8.74433 17.5515 9.14889 17.8408 9.59192C17.9195 9.71049 17.9906 9.83394 18.0536 9.96152C18.0816 10.0399 18.0984 10.0959 18.0928 10.1015Z" fill="#263238"/>
<path d="M2.36799 14.643C2.32766 14.4775 2.30143 14.3089 2.28959 14.139C2.24078 13.6778 2.21834 13.2141 2.22239 12.7502C2.22419 12.0608 2.27284 11.3723 2.36799 10.6894C2.60753 9.01382 3.11025 7.38656 3.85759 5.86783C4.16408 5.25134 4.51208 4.65637 4.89919 4.08703C5.15572 3.69666 5.43626 3.32261 5.73919 2.96703C5.84178 2.83042 5.95813 2.70469 6.08639 2.59183C6.11999 2.59183 5.64959 3.15183 5.02239 4.15423C4.66001 4.73231 4.33094 5.33062 4.03679 5.94623C3.67801 6.69836 3.37298 7.47497 3.12399 8.27023C2.88403 9.06905 2.69695 9.88281 2.56399 10.7062C2.46153 11.3796 2.39795 12.0583 2.37359 12.739C2.33439 13.915 2.40719 14.6374 2.36799 14.643Z" fill="white"/>
<path d="M5.58815 18.4399C5.50488 18.2168 5.43567 17.9886 5.38095 17.7567C5.30097 17.4883 5.23739 17.2153 5.19055 16.9391C5.12895 16.6143 5.04495 16.2503 5.00575 15.8191C4.94194 15.3735 4.90082 14.9249 4.88255 14.4751C4.84335 13.9879 4.85455 13.4671 4.88255 12.9239C4.93406 11.7388 5.0877 10.5603 5.34175 9.40154C5.61292 8.25003 5.98778 7.12544 6.46175 6.04154C6.69695 5.54874 6.90975 5.07274 7.15615 4.65274C7.40255 4.23274 7.63215 3.84634 7.85615 3.49914C8.08015 3.15194 8.30975 2.86074 8.50575 2.59754C8.67869 2.36777 8.86572 2.14895 9.06575 1.94234C9.21249 1.75473 9.37553 1.58045 9.55295 1.42154C9.42598 1.61907 9.28368 1.80632 9.12735 1.98154C8.9492 2.19442 8.78282 2.41689 8.62895 2.64794C8.44415 2.91674 8.22015 3.20794 8.01295 3.56634C7.80575 3.92474 7.55935 4.29434 7.34095 4.72554C7.12255 5.15674 6.89295 5.61034 6.66335 6.10314C6.19864 7.19058 5.82405 8.31436 5.54335 9.46314C5.28849 10.607 5.13112 11.7703 5.07295 12.9407C5.07295 13.5007 5.03935 13.9935 5.07295 14.4751C5.10655 14.9567 5.12895 15.4047 5.16815 15.8135C5.20735 16.2223 5.27455 16.5807 5.32495 16.9335C5.36083 17.2104 5.4113 17.4852 5.47615 17.7567C5.535 17.9804 5.57251 18.2092 5.58815 18.4399Z" fill="white"/>
<path d="M10.096 19.6326C9.90167 19.3244 9.75091 18.9909 9.64796 18.6414C9.35153 17.8103 9.16332 16.9446 9.08796 16.0654C9.01732 15.1885 9.05683 14.3061 9.20556 13.439C9.24922 13.0785 9.34348 12.726 9.48556 12.3918C9.46373 12.7506 9.42072 13.1077 9.35676 13.4614C9.24954 14.3196 9.23078 15.1866 9.30076 16.0486C9.37401 16.9094 9.53156 17.761 9.77116 18.591C9.97276 19.2294 10.124 19.6158 10.096 19.6326Z" fill="white"/>
<path d="M11.6248 5.68319C11.754 3.9895 12.4122 2.37925 13.5064 1.07999C13.5568 1.11919 12.9072 2.04319 12.3864 3.31999C11.8656 4.59679 11.692 5.69439 11.6248 5.68319Z" fill="white"/>
<path d="M15.9198 7.16144C15.8097 6.39486 15.8554 5.61395 16.0542 4.86544C16.184 4.10392 16.47 3.37749 16.8942 2.73184C16.9558 2.73184 16.5246 3.68944 16.2614 4.91024C15.9982 6.13104 15.9982 7.16144 15.9198 7.16144Z" fill="white"/>
<path d="M15.4048 18.5911C15.2254 18.3911 15.0815 18.1619 14.9792 17.9135C14.4006 16.764 14.0434 15.5159 13.9264 14.2343C13.8836 13.9709 13.8836 13.7024 13.9264 13.4391C13.9936 13.4391 14.0664 14.6431 14.4864 16.0655C14.9064 17.4879 15.4608 18.5575 15.4048 18.5911Z" fill="white"/>
<path d="M20.9598 5.93515C20.9246 6.12618 20.8721 6.31361 20.803 6.49515C20.6711 6.97361 20.5812 7.46267 20.5342 7.95675C20.4746 8.70184 20.4578 9.44973 20.4838 10.1968C20.5218 11.1097 20.505 12.0242 20.4334 12.9352C20.3854 13.4107 20.2955 13.8811 20.1646 14.3408C20.0986 14.5605 20.0181 14.7756 19.9238 14.9848C19.8667 15.0941 19.7887 15.1911 19.6942 15.2704C19.6437 15.3135 19.5847 15.3457 19.5211 15.365C19.4575 15.3843 19.3906 15.3902 19.3246 15.3824C19.1024 15.3239 18.9116 15.1813 18.7926 14.9848C18.6638 14.828 18.5518 14.6656 18.4454 14.5144C18.2398 14.226 18.0528 13.9248 17.8854 13.6128C17.6503 13.163 17.4626 12.6901 17.3254 12.2016C17.2628 12.0213 17.2288 11.8323 17.2246 11.6416C17.4313 12.2893 17.6917 12.9187 18.003 13.5232C18.168 13.8277 18.3551 14.1197 18.563 14.3968C18.6694 14.5424 18.7814 14.6992 18.9102 14.8504C19.039 15.0016 19.1678 15.1528 19.3246 15.1752C19.4814 15.1976 19.6214 15.052 19.7166 14.8728C19.8046 14.675 19.8776 14.471 19.935 14.2624C20.0626 13.8158 20.1489 13.3584 20.1926 12.896C20.2668 11.9945 20.2892 11.0896 20.2598 10.1856C20.2435 9.43747 20.2772 8.68914 20.3606 7.94555C20.4169 7.44355 20.5296 6.94949 20.6966 6.47275C20.7635 6.28407 20.8518 6.10369 20.9598 5.93515Z" fill="white"/>
</svg>
