<svg width="77" height="226" viewBox="0 0 77 226" fill="none" xmlns="http://www.w3.org/2000/svg">
<path d="M50.3467 9.32001C51.3659 7.64001 50.8227 5.27681 49.4283 3.86561C48.0339 2.45441 45.9619 1.87761 43.9739 1.87761C41.9896 1.96976 40.0259 2.32183 38.1331 2.92481C37.4443 1.97557 36.5056 1.23605 35.4214 0.788518C34.3373 0.340983 33.1503 0.202979 31.9924 0.389863C30.8346 0.576747 29.7513 1.08119 28.863 1.84707C27.9747 2.61295 27.3164 3.61025 26.9611 4.72801C26.2878 4.44028 25.5487 4.34161 24.8235 4.44263C24.0982 4.54364 23.4143 4.84053 22.8452 5.30132C22.2761 5.76212 21.8434 6.36938 21.5938 7.05775C21.3441 7.74613 21.2869 8.48955 21.4283 9.20801L29.7219 13.688L36.6603 32.0504C37.8877 33.4802 39.5932 34.4147 41.4589 34.6796C43.3245 34.9444 45.2228 34.5215 46.7996 33.4898C48.3763 32.458 49.5239 30.8878 50.0282 29.0722C50.5325 27.2566 50.3591 25.3196 49.5403 23.6224C50.1509 23.229 50.6937 22.7392 51.1475 22.172C51.9849 21.8399 52.7478 21.3446 53.392 20.7149C54.0361 20.0852 54.5486 19.3336 54.8995 18.504C56.3163 14.9088 54.0539 10.356 50.3467 9.32001Z" fill="#263238"/>
<path d="M39.0407 43.5585C38.9287 40.7585 38.8447 38.7929 38.8447 38.8097C38.8447 38.8265 44.3271 37.6001 45.0999 30.3201C45.4863 26.6969 45.0047 20.8001 44.4503 16.0177C43.9575 11.6945 40.8103 6.49771 36.5151 7.20331L23.2095 11.3081C21.9047 11.5153 21.5295 12.6465 21.5967 13.9625L21.5183 14.5841L23.1983 35.2425L23.0751 44.0569C23.3831 47.9769 27.3927 51.4265 31.3351 51.4713C32.3689 51.4867 33.395 51.2909 34.3505 50.896C35.306 50.5011 36.1709 49.9154 36.8923 49.1746C37.6136 48.4339 38.1762 47.5538 38.5456 46.5881C38.915 45.6224 39.0835 44.5915 39.0407 43.5585Z" fill="#E1AF94"/>
<path d="M42.8654 22.4128C42.8795 22.654 42.7991 22.8912 42.6412 23.0742C42.4834 23.2571 42.2605 23.3714 42.0199 23.3928C41.9023 23.4084 41.7827 23.4002 41.6683 23.3687C41.554 23.3371 41.4471 23.2829 41.3541 23.2093C41.2611 23.1356 41.1839 23.044 41.127 22.9399C41.0701 22.8357 41.0348 22.7213 41.0231 22.6032C41.009 22.362 41.0894 22.1248 41.2473 21.9419C41.4051 21.7589 41.628 21.6446 41.8686 21.6232C41.9861 21.6084 42.1054 21.6172 42.2195 21.649C42.3335 21.6809 42.4401 21.7351 42.5329 21.8087C42.6257 21.8822 42.7029 21.9735 42.76 22.0772C42.8171 22.181 42.853 22.295 42.8654 22.4128Z" fill="#263238"/>
<path d="M43.1393 19.876C43.0273 20.0048 42.2993 19.5232 41.3025 19.5736C40.3057 19.624 39.6225 20.1672 39.4881 20.0496C39.3537 19.932 39.5385 19.7752 39.8465 19.5232C40.2615 19.2015 40.7666 19.0174 41.2913 18.9968C41.8095 18.9686 42.3234 19.1058 42.7585 19.3888C43.0777 19.6072 43.1897 19.82 43.1393 19.876Z" fill="#263238"/>
<path d="M33.8494 22.8217C33.8664 23.0636 33.787 23.3024 33.6286 23.486C33.4702 23.6696 33.2456 23.7831 33.0038 23.8017C32.8865 23.8181 32.7671 23.8107 32.6528 23.7798C32.5384 23.7489 32.4315 23.6953 32.3384 23.622C32.2453 23.5488 32.168 23.4575 32.111 23.3537C32.0541 23.2498 32.0187 23.1356 32.007 23.0177C31.9915 22.7761 32.0714 22.5381 32.2296 22.3549C32.3877 22.1716 32.6114 22.0577 32.8526 22.0377C32.9698 22.0221 33.0889 22.0301 33.203 22.0613C33.317 22.0925 33.4236 22.1462 33.5165 22.2193C33.6094 22.2924 33.6868 22.3833 33.744 22.4868C33.8011 22.5903 33.837 22.7041 33.8494 22.8217Z" fill="#263238"/>
<path d="M33.6083 20.1784C33.5019 20.3016 32.7683 19.82 31.7715 19.876C30.7747 19.932 30.0915 20.464 29.9571 20.3464C29.8227 20.2288 30.0075 20.072 30.3155 19.8256C30.7316 19.5052 31.2357 19.3195 31.7603 19.2936C32.2785 19.2654 32.7923 19.4027 33.2275 19.6856C33.5467 19.9096 33.6643 20.1224 33.6083 20.1784Z" fill="#263238"/>
<path d="M37.5396 27.0496C38.0575 26.8578 38.5974 26.7317 39.1468 26.6744C39.3988 26.6352 39.634 26.5736 39.6676 26.3944C39.6764 26.1308 39.6041 25.8708 39.4604 25.6496L38.6092 23.7512C37.422 21.0464 36.5484 18.812 36.6548 18.7672C36.7612 18.7224 37.8196 20.8728 39.0068 23.5832L39.8244 25.4928C40.0016 25.7909 40.0671 26.1422 40.0092 26.484C39.9769 26.5758 39.9244 26.6593 39.8556 26.7281C39.7868 26.7969 39.7034 26.8494 39.6116 26.8816C39.4719 26.9265 39.3269 26.9528 39.1804 26.96C38.6393 27.0579 38.0881 27.088 37.5396 27.0496Z" fill="#263238"/>
<path d="M38.8329 38.8096C35.4345 39.0378 32.0395 38.3165 29.0273 36.7264C29.0273 36.7264 31.7266 41.6992 38.9226 40.6464L38.8329 38.8096Z" fill="#935643"/>
<path d="M33.4795 16.1018C33.3675 16.3706 32.3595 16.2082 31.2003 16.309C30.0411 16.4098 29.0667 16.6954 28.9211 16.449C28.8595 16.3314 29.0275 16.0794 29.4195 15.833C29.9403 15.5286 30.5236 15.3467 31.1252 15.3011C31.7267 15.2555 32.3307 15.3474 32.8915 15.5698C33.3171 15.7602 33.5243 15.9786 33.4795 16.1018Z" fill="#263238"/>
<path d="M43.0164 16.2192C42.8204 16.4544 41.9972 16.264 41.0228 16.3032C40.0484 16.3424 39.2252 16.5496 39.0236 16.3032C38.934 16.1912 39.0236 15.9616 39.3988 15.7432C39.8846 15.4518 40.4394 15.2953 41.006 15.2896C41.5689 15.2649 42.128 15.3926 42.6243 15.6592C42.9603 15.8776 43.106 16.1016 43.0164 16.2192Z" fill="#263238"/>
<path d="M26.978 7.13604C27.0108 7.86219 27.2031 8.57222 27.5412 9.21567C27.8794 9.85912 28.355 10.4202 28.9345 10.8591C29.514 11.2979 30.1829 11.6038 30.8939 11.755C31.6049 11.9061 32.3405 11.8988 33.0484 11.7336C34.1684 11.476 35.3276 10.86 36.3132 11.4032C37.2988 11.9464 37.4612 13.4808 38.3908 14.2032C39.718 15.2448 41.6948 14.108 43.3356 14.5056C44.6012 14.8136 45.4412 15.9728 46.3204 16.936C47.1996 17.8992 48.4876 18.7896 49.714 18.3584C49.6234 17.2356 49.4036 16.1269 49.0588 15.0544C48.7066 13.9726 47.9902 13.0464 47.0316 12.4336C46.4996 12.12 45.9116 11.9464 45.3908 11.5824C44.31 10.7928 44.002 9.34244 43.302 8.22244C42.8453 7.49 42.2204 6.87718 41.4792 6.43497C40.7379 5.99275 39.9018 5.73394 39.0404 5.68004C37.6124 5.60164 36.1676 6.10004 34.7676 5.82004C33.7316 5.61284 32.802 4.99124 31.7548 4.84564C29.7164 4.56004 27.9076 6.10564 26.5132 7.64564" fill="#263238"/>
<path d="M33.5858 9.69535C32.6674 9.48255 30.7858 8.98415 30.2594 8.22255C29.7298 7.40252 28.9932 6.7367 28.124 6.29229C27.2549 5.84787 26.2839 5.64059 25.309 5.69135C24.3316 5.82127 23.4222 6.26311 22.7159 6.95118C22.0097 7.63926 21.5443 8.53685 21.389 9.51055C20.2092 9.61073 19.0785 10.0279 18.1164 10.7179C17.1543 11.408 16.3966 12.3452 15.9234 13.4305C15.4372 14.5667 15.2341 15.804 15.3317 17.036C15.4292 18.268 15.8244 19.4578 16.4834 20.5033C16.796 21.0554 17.0711 21.6279 17.3066 22.2169C16.7812 22.6924 16.303 23.2175 15.8786 23.7849C13.8794 26.8369 17.7098 28.7241 17.7098 28.7241C17.3738 30.9641 19.3898 31.2441 20.717 31.4401C22.0442 31.6361 22.201 35.237 23.237 35.2594L23.8922 24.3449C24.0363 24.4261 24.1937 24.4811 24.357 24.5073C26.8098 24.9385 26.8938 20.1785 26.289 18.8513C27.1676 18.0576 27.9427 17.1564 28.5962 16.169C29.2178 15.1442 29.677 12.417 29.4754 11.2074C30.321 11.2018 34.0002 9.79055 33.5858 9.69535Z" fill="#263238"/>
<path d="M24.144 24.9609C24.1139 24.6052 23.994 24.2629 23.7956 23.966C23.5972 23.6692 23.3267 23.4275 23.0096 23.2636C22.6924 23.0997 22.3388 23.0189 21.9819 23.0288C21.625 23.0387 21.2764 23.1389 20.9688 23.3201C20.2576 23.7793 19.7424 24.6585 19.888 26.2825C20.28 30.6281 24.564 29.3401 24.5584 29.2113C24.5528 29.0825 24.3232 26.7585 24.144 24.9609Z" fill="#E1AF94"/>
<path d="M23.0803 27.688C23.0803 27.688 23.0131 27.744 22.8899 27.8168C22.7183 27.9093 22.5175 27.9314 22.3299 27.8784C21.8539 27.7552 21.4059 27.0608 21.3107 26.2768C21.2657 25.8994 21.3059 25.5167 21.4283 25.1568C21.4561 25.018 21.5177 24.8882 21.6075 24.7788C21.6974 24.6694 21.8128 24.5839 21.9435 24.5296C22.0277 24.4973 22.1206 24.4959 22.2057 24.5256C22.2908 24.5553 22.3626 24.6143 22.4083 24.692C22.4755 24.8096 22.4587 24.8992 22.4811 24.9048C22.5035 24.9104 22.5651 24.8208 22.5147 24.6472C22.4828 24.5404 22.4132 24.4489 22.3187 24.3896C22.2561 24.3499 22.1863 24.3231 22.1132 24.3106C22.0402 24.2981 21.9654 24.3002 21.8931 24.3168C21.7184 24.3687 21.5598 24.4643 21.4323 24.5946C21.3049 24.725 21.213 24.8857 21.1651 25.0616C21.0118 25.455 20.9579 25.8801 21.0083 26.2992C21.1147 27.1672 21.6411 27.9456 22.2851 28.0744C22.4043 28.0971 22.527 28.0927 22.6442 28.0617C22.7615 28.0307 22.8703 27.9738 22.9627 27.8952C23.0859 27.7944 23.0971 27.6936 23.0803 27.688Z" fill="#935643"/>
<path d="M17.9451 15.8552C17.8776 15.8102 17.8139 15.7596 17.7547 15.704C17.5875 15.55 17.4304 15.3854 17.2843 15.2112C16.7312 14.5688 16.3464 13.7991 16.1643 12.9712C16.0532 12.3903 16.0704 11.7921 16.2147 11.2184C16.3829 10.5532 16.7363 9.94934 17.2339 9.47684C17.5118 9.2149 17.8392 9.01111 18.1969 8.87744C18.5547 8.74377 18.9355 8.68291 19.3171 8.69844C19.73 8.70061 20.1368 8.7989 20.5052 8.98552C20.8736 9.17214 21.1935 9.44197 21.4395 9.77364L21.2323 9.87444V9.82404C20.7117 8.33938 20.7982 6.70923 21.4731 5.28804C21.7562 4.71348 22.1758 4.21705 22.6951 3.84218C23.2145 3.4673 23.8178 3.2254 24.4523 3.13764C24.8805 3.09448 25.3129 3.13821 25.7238 3.26619C26.1347 3.39417 26.5155 3.60377 26.8435 3.88244C27.0177 4.03455 27.1703 4.20977 27.2971 4.40324C27.3412 4.4704 27.3787 4.54167 27.4091 4.61604C27.2269 4.37182 27.0185 4.14834 26.7875 3.94964C26.1361 3.43203 25.3077 3.19072 24.4803 3.27764C23.8796 3.37591 23.3114 3.61759 22.824 3.98219C22.3365 4.34678 21.9442 4.82354 21.6803 5.37204C21.0441 6.74528 20.9698 8.31275 21.4731 9.74004V9.78484L21.6747 10.4624L21.2715 9.90244C21.0442 9.6012 20.7509 9.35618 20.4139 9.18627C20.077 9.01636 19.7056 8.92609 19.3283 8.92244C18.6163 8.89282 17.9216 9.14654 17.3963 9.62804C16.9234 10.0723 16.5856 10.641 16.4219 11.2688C16.2727 11.8164 16.2478 12.3904 16.3491 12.9488C16.505 13.7662 16.8545 14.5343 17.3683 15.1888C17.7099 15.62 17.9619 15.8384 17.9451 15.8552Z" fill="#263238"/>
<path d="M20.7899 28.64C20.6064 28.716 20.4318 28.8118 20.2691 28.9256C19.8539 29.2778 19.5568 29.7488 19.4179 30.2752C19.3017 30.6366 19.2524 31.0161 19.2723 31.3952C19.3024 31.8209 19.437 32.2325 19.6643 32.5936C19.9233 32.9882 20.2752 33.3132 20.6891 33.54C21.1257 33.7954 21.6294 33.9126 22.1339 33.876C22.6396 33.8383 23.1238 33.6555 23.5283 33.3496C23.9053 33.0613 24.1943 32.6734 24.3627 32.2296C24.5186 31.8612 24.5938 31.4637 24.5832 31.0637C24.5726 30.6638 24.4764 30.2708 24.3011 29.9112C24.0536 29.4263 23.6343 29.0509 23.1251 28.8584C22.9431 28.8006 22.7553 28.7631 22.5651 28.7464C22.617 28.7376 22.67 28.7376 22.7219 28.7464C22.8719 28.7553 23.0204 28.7816 23.1643 28.8248C23.6929 29.0111 24.1325 29.3887 24.3963 29.8832C24.5816 30.254 24.6859 30.66 24.7023 31.0742C24.7187 31.4884 24.6469 31.9013 24.4915 32.2856C24.3124 32.745 24.0101 33.146 23.6179 33.4448C23.1987 33.7677 22.6949 33.9622 22.1675 34.0048C21.6382 34.0444 21.1093 33.9234 20.6499 33.6576C20.2215 33.4185 19.8582 33.0782 19.5915 32.6664C19.3534 32.2898 19.2182 31.8572 19.1995 31.412C19.1837 31.0323 19.2368 30.6528 19.3563 30.292C19.5079 29.7542 19.8254 29.278 20.2635 28.9312C20.3862 28.8447 20.5199 28.775 20.6611 28.724L20.7899 28.64Z" fill="#455A64"/>
<path d="M20.241 192.126L22.4922 211.598L31.0266 210.298L31.6034 191.107L20.241 192.126Z" fill="#E1AF94"/>
<path d="M31.0547 206.44C31.0547 206.44 25.3315 211.295 22.1395 207.728L21.5067 209.626L18.9979 222.999C18.9074 223.415 18.9711 223.85 19.177 224.223C19.383 224.596 19.7174 224.881 20.1179 225.026C20.4213 225.125 20.747 225.133 21.0546 225.048C21.3622 224.963 21.6382 224.79 21.8483 224.55C24.1611 221.935 32.6227 212.286 32.4491 211.11L32.1859 207.896C32.1626 207.574 32.0435 207.265 31.844 207.011C31.6445 206.757 31.3736 206.567 31.0659 206.468L31.0547 206.44Z" fill="#6318AF"/>
<g opacity="0.6">
<path d="M20.4148 225.094L32.3708 209.974L32.4156 210.674C32.5332 211.43 32.2308 211.76 31.9116 212.275C30.9652 213.804 28.294 217.265 21.8932 224.556C21.7142 224.767 21.4847 224.929 21.2262 225.027C20.9676 225.125 20.6885 225.155 20.4148 225.116V225.094Z" fill="white"/>
</g>
<g opacity="0.6">
<path d="M30.3208 208.014C30.1308 208.181 30.0076 208.411 29.9736 208.662C29.9397 208.913 29.9973 209.168 30.136 209.38C30.2873 209.578 30.5101 209.71 30.757 209.747C31.0038 209.783 31.2552 209.722 31.4576 209.576C31.6556 209.397 31.7831 209.153 31.817 208.888C31.8509 208.623 31.7889 208.355 31.6424 208.131C31.5547 208.036 31.4492 207.96 31.3318 207.906C31.2144 207.852 31.0876 207.822 30.9585 207.817C30.8294 207.813 30.7007 207.833 30.5798 207.879C30.4588 207.924 30.348 207.993 30.2536 208.081" fill="white"/>
</g>
<path d="M23.6402 217.573C23.5506 217.623 23.125 216.783 22.1282 216.386C21.1314 215.988 20.269 216.257 20.241 216.156C20.213 216.055 20.4202 215.971 20.801 215.893C21.296 215.794 21.8092 215.847 22.2738 216.044C22.7416 216.239 23.1424 216.566 23.4274 216.985C23.6346 217.31 23.6794 217.556 23.6402 217.573Z" fill="#263238"/>
<path d="M22.6321 219.88C22.1514 219.644 21.6557 219.44 21.1481 219.27C20.2969 219.068 19.5857 219.27 19.5521 219.18C19.5185 219.09 20.2521 218.687 21.2321 218.911C22.2121 219.135 22.7105 219.824 22.6321 219.88Z" fill="#263238"/>
<path d="M25.6003 214.56C25.5275 214.644 24.6763 213.866 23.3603 213.44C22.0443 213.014 20.9243 213.154 20.9187 213.042C20.9131 212.93 22.0723 212.639 23.4667 213.093C24.8611 213.546 25.6731 214.51 25.6003 214.56Z" fill="#263238"/>
<path d="M25.6007 210.55C25.5615 210.651 24.6375 210.338 23.4727 210.382C22.3079 210.427 21.4007 210.78 21.3559 210.679C21.3111 210.578 22.2071 210.046 23.4615 210.013C24.7159 209.979 25.6511 210.472 25.6007 210.55Z" fill="#263238"/>
<path d="M22.8006 210.394C22.7684 210.184 22.7837 209.97 22.8454 209.766C22.9661 209.201 23.1922 208.663 23.5118 208.182C23.719 207.814 24.0391 207.524 24.4246 207.353C24.5562 207.31 24.6977 207.31 24.8293 207.352C24.9609 207.395 25.0759 207.477 25.1582 207.588C25.3077 207.818 25.3675 208.095 25.3262 208.366C25.2361 208.912 24.9577 209.409 24.5393 209.772C24.121 210.134 23.589 210.338 23.0358 210.349C22.4912 210.344 21.9608 210.174 21.5142 209.862C21.0676 209.55 20.7254 209.111 20.5326 208.602C20.4824 208.471 20.46 208.331 20.4667 208.192C20.4735 208.052 20.5093 207.915 20.5718 207.79C20.6482 207.674 20.7591 207.585 20.8887 207.536C21.0184 207.487 21.1603 207.479 21.2942 207.515C21.6833 207.649 22.0294 207.885 22.2966 208.198C22.6968 208.609 23.021 209.086 23.2542 209.61C23.3615 209.792 23.4247 209.997 23.439 210.209C23.0921 209.541 22.6487 208.928 22.123 208.389C21.8757 208.133 21.5702 207.941 21.2326 207.829C21.1598 207.808 21.082 207.811 21.0112 207.838C20.9404 207.866 20.8805 207.915 20.8406 207.98C20.8041 208.064 20.7853 208.155 20.7853 208.246C20.7853 208.338 20.8041 208.428 20.8406 208.512C21.0225 208.945 21.3261 209.317 21.7147 209.581C22.1034 209.846 22.5603 209.992 23.0302 210.002C23.5014 209.989 23.954 209.816 24.3127 209.51C24.6714 209.204 24.9145 208.785 25.0014 208.322C25.0365 208.129 25.0007 207.93 24.9006 207.762C24.8589 207.698 24.7974 207.65 24.7255 207.624C24.6537 207.599 24.5755 207.598 24.503 207.622C24.1768 207.765 23.903 208.005 23.719 208.31C23.2914 208.945 22.9804 209.65 22.8006 210.394Z" fill="#263238"/>
<path d="M54.0425 207.47C53.8465 207.168 52.0601 200.655 52.0601 200.655L63.1201 197.648L64.6881 207.039L54.0425 207.47Z" fill="#E1AF94"/>
<path d="M64.5763 205.191V205.942C64.5763 205.942 76.7283 210.892 76.8963 213.3L52.8723 213.479L53.1467 205.079C56.7307 206.787 60.4715 206.955 64.5763 205.191Z" fill="#6318AF"/>
<g opacity="0.6">
<path d="M55.5936 207.744C55.3595 207.827 55.1631 207.992 55.0407 208.208C54.9182 208.424 54.8779 208.677 54.9272 208.92C54.9537 209.041 55.0038 209.155 55.0745 209.256C55.1452 209.357 55.2352 209.443 55.3393 209.509C55.4434 209.575 55.5595 209.62 55.681 209.641C55.8025 209.662 55.927 209.659 56.0472 209.632C56.286 209.536 56.4847 209.362 56.6102 209.138C56.7356 208.913 56.78 208.653 56.7361 208.4C56.6957 208.279 56.6318 208.168 56.5482 208.072C56.4646 207.976 56.3628 207.898 56.2488 207.842C56.1348 207.786 56.0108 207.753 55.8839 207.744C55.7571 207.736 55.6299 207.753 55.5097 207.795" fill="white"/>
</g>
<g opacity="0.6">
<path d="M52.8723 213.479L52.9395 211.457L75.9387 212.017C75.9387 212.017 77.0139 212.499 76.8963 213.288L52.8723 213.479Z" fill="white"/>
</g>
<path d="M64.6714 206.009C64.6714 206.132 64.1114 206.194 63.5066 206.569C62.9018 206.944 62.6274 207.493 62.521 207.442C62.4146 207.392 62.5826 206.681 63.2826 206.21C63.9826 205.74 64.6938 205.897 64.6714 206.009Z" fill="#263238"/>
<path d="M67.1971 207.084C67.2251 207.207 66.7155 207.42 66.3235 207.941C65.9315 208.462 65.8139 209.022 65.7019 209.016C65.5899 209.01 65.5059 208.316 66.0043 207.672C66.5027 207.028 67.1915 206.966 67.1971 207.084Z" fill="#263238"/>
<path d="M68.6477 210.242C68.5413 210.242 68.3733 209.654 68.6477 208.977C68.9221 208.299 69.4933 208.03 69.5437 208.131C69.5941 208.232 69.2581 208.596 69.0229 209.156C68.7877 209.716 68.7653 210.231 68.6477 210.242Z" fill="#263238"/>
<path d="M48.1798 93.04C48.7006 93.376 52.6598 117.086 57.8118 148.603C62.051 174.52 64.5318 200.767 64.5318 200.767L52.643 203.086C52.643 203.086 41.443 170.953 35.5294 147.847C30.0638 126.534 27.3982 111.61 27.3982 111.61V95.9856L48.1798 93.04Z" fill="#263238"/>
<path d="M12.1211 84.2872C12.1211 84.2872 1.17311 99.0824 2.09711 114.527C2.65711 123.767 20.4147 201.798 20.4147 201.798L32.1747 201.467L29.0499 115.787L30.3043 95.5768L12.1211 84.2872Z" fill="#263238"/>
<path d="M30.4272 111.582C30.5619 111.032 30.7245 110.49 30.9145 109.958C31.3073 108.655 31.6159 107.329 31.8384 105.987C32.0572 104.642 32.19 103.284 32.2361 101.922C32.2697 100.869 32.2361 100.242 32.2977 100.242C32.3483 100.387 32.373 100.541 32.3704 100.695C32.3704 100.986 32.4209 101.418 32.4265 101.944C32.4494 104.701 31.9986 107.442 31.0936 110.047C30.92 110.54 30.7632 110.932 30.64 111.201C30.5896 111.338 30.5178 111.467 30.4272 111.582Z" fill="#455A64"/>
<path d="M55.0676 202.346C54.7184 201.913 54.4784 201.402 54.3676 200.857C54.1728 200.333 54.1038 199.771 54.166 199.216C54.3696 199.719 54.5252 200.24 54.6308 200.773C54.8271 201.282 54.9734 201.809 55.0676 202.346Z" fill="#455A64"/>
<path d="M59.122 201.54C59.122 201.54 59.0716 201.501 59.0268 201.417C58.9764 201.159 58.9316 200.582 58.8084 199.927C58.6672 199.391 58.5587 198.847 58.4836 198.298C58.8142 198.762 59.0187 199.304 59.0772 199.871C59.1794 200.38 59.2002 200.902 59.1389 201.417C59.1445 201.478 59.1444 201.534 59.122 201.54Z" fill="#455A64"/>
<path d="M63.0023 200.862C62.9239 200.862 62.9631 200.017 62.8007 199.009C62.6383 198.001 62.3471 197.222 62.4199 197.189C63.0777 198.294 63.2786 199.612 62.9799 200.862H63.0023Z" fill="#455A64"/>
<path d="M30.0803 201.68C30.0019 201.646 30.2427 200.918 30.2931 200C30.3435 199.082 30.2147 198.32 30.2931 198.32C30.5055 198.862 30.5966 199.443 30.5598 200.024C30.5231 200.604 30.3594 201.17 30.0803 201.68Z" fill="#455A64"/>
<path d="M26.1043 201.747C25.8455 200.647 25.7661 199.513 25.8691 198.387C26.0476 198.929 26.1328 199.497 26.1211 200.067C26.2077 200.624 26.202 201.192 26.1043 201.747Z" fill="#455A64"/>
<path d="M22.9904 201.708C22.4354 200.698 22.1919 199.547 22.2904 198.398C22.4631 198.937 22.5887 199.49 22.6656 200.05C22.8271 200.591 22.9358 201.146 22.9904 201.708Z" fill="#455A64"/>
<path d="M38.2845 29.2504C38.0619 28.95 37.7622 28.7154 37.4172 28.5714C37.0721 28.4275 36.6945 28.3796 36.3245 28.4328H36.2405C36.0327 28.4507 35.834 28.5261 35.6668 28.6508C35.4995 28.7755 35.3705 28.9444 35.2941 29.1384C35.2402 29.3216 35.234 29.5155 35.2762 29.7017C35.3183 29.8879 35.4074 30.0603 35.5349 30.2024C35.7954 30.4864 36.1379 30.6822 36.5149 30.7624C36.7526 30.8294 37.0019 30.8451 37.2462 30.8085C37.4904 30.7718 37.7241 30.6835 37.9317 30.5496C38.1365 30.4114 38.2848 30.2041 38.3496 29.9656C38.4143 29.7271 38.3912 29.4733 38.2845 29.2504Z" fill="#935643"/>
<path d="M38.4803 30.7513C38.4411 30.7513 38.3179 30.5665 38.0547 30.2977C37.7178 29.9563 37.3026 29.7025 36.8451 29.5585C36.3837 29.4265 35.8964 29.4131 35.4283 29.5193C35.0643 29.5977 34.8683 29.6985 34.8235 29.6593C34.7787 29.6201 34.9915 29.4577 35.3835 29.3177C35.8853 29.1406 36.4303 29.1268 36.9403 29.2785C37.4497 29.4323 37.8981 29.7417 38.2227 30.1633C38.4467 30.4881 38.5083 30.7345 38.4803 30.7513Z" fill="#263238"/>
<path d="M23.0858 41.1224L14.9602 43.004L11.925 76.8896L5.70898 94.8096C5.70898 94.8096 11.7346 102.347 18.8634 104.178C29.6714 106.978 35.0418 105.858 41.437 104.246C45.7546 103.126 49.2266 97.576 49.2266 97.576L46.3818 81.336L49.7866 47.036L38.9674 42.2648C38.7698 43.8608 38.0147 45.3357 36.8353 46.429C35.6559 47.5223 34.1282 48.1637 32.5218 48.24C26.1098 48.744 23.0858 41.1224 23.0858 41.1224Z" fill="#6318AF"/>
<g opacity="0.3">
<path d="M46.8417 82.9598C44.4953 79.4598 41.852 76.2398 39.5224 72.7118C37.1928 69.1838 35.1657 65.303 34.2641 60.9518C33.9113 59.2718 33.7041 57.4742 32.7521 56.1638C32.1862 55.4173 31.3924 54.8757 30.491 54.621C29.5895 54.3663 28.6297 54.4125 27.7569 54.7526C26.0265 55.3798 24.6209 56.8918 23.5457 58.5942C22.4705 60.2966 21.6753 62.2174 20.7457 64.0374C18.0185 69.4134 14.2105 73.9046 10.4417 78.3398L10.5761 80.2942C13.1241 81.0166 16.6801 80.2942 18.9761 78.7654C21.2721 77.2366 23.1761 75.103 25.0577 72.975C26.1217 71.771 27.5049 70.4718 28.9161 70.9926C30.0921 71.4294 30.6689 72.9302 31.2177 74.2182C33.9729 80.6694 39.6177 85.3342 45.7329 86.2358C45.9994 86.3137 46.2812 86.3243 46.5529 86.2666C46.8246 86.209 47.0777 86.0848 47.2897 85.9054C48.0009 85.1438 47.4409 83.8054 46.8417 82.9598Z" fill="black"/>
</g>
<path d="M14.9602 43.004C14.9602 43.004 8.09458 44.684 6.00018 50.2336C4.32018 54.7136 0.0697795 70.0632 0.0697795 73.384C0.0697795 76.7048 -0.327825 84.8584 5.91058 84.2536C12.149 83.6488 22.0778 76.3744 24.5026 68.484C25.477 65.3144 26.0706 62.6656 26.7426 60.8456C27.1091 59.8056 27.622 58.8232 28.2658 57.928L22.901 53.6552L13.8458 61.9096L14.9602 43.004Z" fill="#6318AF"/>
<path d="M31.2 59.0928C31.2 59.0928 31.8944 73.7032 36.3352 81.1512C38.0656 84.0464 45.592 92.1048 50.6264 87.9776C55.6608 83.8504 55.9576 77.7128 56.5624 73.1824C57.1672 68.652 56.7584 49.9424 49.8032 47.0416C49.2936 46.8288 45.592 56.976 45.592 56.976L44.7856 65.3312L37.4384 56.1696L31.2 59.0928Z" fill="#6318AF"/>
<path d="M9.579 83.2063L9.719 83.1335L10.1278 82.9599C10.4918 82.8087 11.0294 82.5903 11.6958 82.2543C13.5862 81.3315 15.3576 80.1826 16.971 78.8327C18.076 77.8916 19.1058 76.8655 20.051 75.7639C21.1214 74.4889 22.0701 73.1166 22.8846 71.6647C23.7796 70.0582 24.4915 68.3564 25.007 66.5911C25.567 64.7599 25.8974 62.7831 26.6254 60.8567C27.0007 59.808 27.5332 58.8223 28.2046 57.9335V58.1351L22.4534 53.6551H22.6382C19.6161 57.0613 16.2367 60.1328 12.5582 62.8167C11.1974 63.8023 10.083 64.5303 9.31021 65.0119C8.92941 65.2527 8.62701 65.4319 8.41981 65.5719C8.32118 65.6399 8.21614 65.698 8.1062 65.7455C8.19674 65.6677 8.29421 65.5983 8.3974 65.5383L9.26541 64.9783C10.0214 64.4687 11.119 63.7239 12.4574 62.7383C16.0969 60.0191 19.4483 56.9342 22.459 53.5319L22.543 53.4367L22.6438 53.5095C24.4526 54.9151 26.3902 56.4103 28.4062 57.9895L28.5182 58.0791L28.4286 58.1967C27.7815 59.0653 27.2646 60.0236 26.8942 61.0415C26.183 62.9399 25.8246 64.9055 25.2814 66.7535C24.7539 68.5384 24.0288 70.2589 23.1198 71.8831C22.2898 73.3444 21.3242 74.7243 20.2358 76.0047C19.2768 77.1104 18.2299 78.1367 17.1054 79.0735C15.4679 80.4179 13.665 81.5471 11.7406 82.4335C11.0686 82.7527 10.5198 82.9543 10.1502 83.0887L9.7246 83.2343L9.579 83.2063Z" fill="#263238"/>
<path d="M13.4145 52.8546C13.6669 54.2894 13.8259 55.7391 13.8905 57.1946C14.0493 58.6429 14.1092 60.1004 14.0697 61.5569C13.8176 60.1222 13.6605 58.6724 13.5993 57.2169C13.4371 55.7688 13.3753 54.3112 13.4145 52.8546Z" fill="#263238"/>
<path d="M53.7574 76.3409C53.7574 76.3409 53.7238 76.3409 53.6622 76.2569L53.4046 75.9881L52.4246 74.9185C51.5734 73.9889 50.3414 72.6113 48.835 70.8641C45.8222 67.3641 41.6782 62.3521 37.3214 56.2537L37.495 56.2985L31.0158 59.2609L31.0886 59.0761C31.2006 59.3841 31.3126 59.6977 31.4078 60.0281C31.4379 60.1169 31.4567 60.209 31.4638 60.3025L31.4974 60.5601L31.5534 61.0753C32.0518 65.8969 32.4438 70.5169 33.6198 74.5433C34.5636 78.1407 36.3442 81.4641 38.8166 84.2425C40.5099 86.0897 42.601 87.5278 44.9318 88.4481C45.5664 88.6952 46.2176 88.8973 46.8806 89.0529L47.4014 89.1649L47.575 89.2153H47.3958L46.8806 89.1201C46.2077 88.9868 45.5466 88.7995 44.9038 88.5601C42.5318 87.6727 40.3996 86.2442 38.6766 84.3881C36.1563 81.6036 34.338 78.257 33.3734 74.6273C32.175 70.5673 31.7718 65.9249 31.2734 61.1145L31.2174 60.5993V60.3417C31.2114 60.265 31.1944 60.1896 31.167 60.1177C31.0774 59.7985 30.9654 59.4849 30.8534 59.1825L30.8086 59.0593L30.9318 59.0033L37.3606 56.0465L37.467 55.9961L37.5342 56.0913C41.8686 62.1897 45.979 67.2185 48.9526 70.7465C50.4422 72.5105 51.6462 73.9049 52.475 74.8569C52.8838 75.3217 53.1974 75.6913 53.427 75.9769L53.6678 76.2625C53.7001 76.2857 53.7301 76.3119 53.7574 76.3409Z" fill="#263238"/>
<path d="M45.7267 57.2C45.7003 58.6552 45.5769 60.1069 45.3571 61.5456C45.235 62.9941 45.0161 64.4328 44.7019 65.852C44.7282 64.3987 44.8517 62.9488 45.0715 61.512C45.1906 60.0613 45.4095 58.6206 45.7267 57.2Z" fill="#263238"/>
<path d="M46.5783 68.6072C46.5131 68.8036 46.4248 68.9916 46.3151 69.1672C46.1303 69.52 45.8503 70.024 45.4695 70.6344C44.5065 72.2428 43.2906 73.6855 41.8687 74.9072C40.4312 76.1288 38.6895 76.9377 36.8287 77.248C36.2727 77.3309 35.709 77.3497 35.1487 77.304C34.941 77.2959 34.7354 77.2582 34.5383 77.192C35.3007 77.2041 36.0629 77.1554 36.8175 77.0464C38.6264 76.6867 40.3144 75.8736 41.7231 74.6832C43.1178 73.4741 44.3339 72.0732 45.3351 70.5224C46.0911 69.3464 46.5335 68.5848 46.5783 68.6072Z" fill="white"/>
<path d="M48.6165 93.6001C48.4993 93.692 48.3737 93.7726 48.2413 93.8409L47.1213 94.4625L46.3149 94.9105C46.0125 95.0673 45.6765 95.2073 45.3181 95.3753C44.5155 95.7619 43.693 96.1059 42.8541 96.4057L41.3925 96.9321C40.8829 97.1113 40.3341 97.2401 39.7741 97.4025C38.5799 97.7408 37.3686 98.0156 36.1453 98.2257C33.3387 98.6879 30.4924 98.8643 27.6501 98.7521C24.8126 98.5894 21.9986 98.1429 19.2501 97.4193C17.9957 97.0329 16.7973 96.7025 15.7221 96.2489C15.1621 96.0305 14.6469 95.8513 14.1541 95.6273L12.7205 94.9609C11.9124 94.5818 11.1254 94.1593 10.3629 93.6953C10.0269 93.4993 9.70212 93.3257 9.42212 93.1353C9.14212 92.9449 8.86212 92.7713 8.66052 92.6145L7.61332 91.8865C7.48892 91.8066 7.37262 91.7147 7.26611 91.6121C7.39881 91.6799 7.52779 91.7546 7.65251 91.8361L8.72212 92.5193L9.49492 93.0177C9.78052 93.1913 10.1053 93.3593 10.4469 93.5497C11.2127 93.9978 12.0015 94.4053 12.8101 94.7705L14.2157 95.4145C14.7029 95.6329 15.2405 95.8065 15.7781 96.0193C16.9308 96.4515 18.1046 96.8253 19.2949 97.1393C24.7726 98.6079 30.5018 98.8829 36.0949 97.9457C37.3717 97.6937 38.5925 97.4921 39.7069 97.1561C40.2669 96.9937 40.8269 96.8761 41.3197 96.7025L42.7813 96.1985C43.7221 95.9017 44.5229 95.5097 45.2453 95.2073C45.6037 95.0505 45.9453 94.9161 46.2477 94.7705C46.5501 94.6249 46.8077 94.4737 47.0653 94.3505L48.1853 93.7905C48.3237 93.7156 48.4679 93.6519 48.6165 93.6001Z" fill="white"/>
<path d="M22.1394 72.9247C21.9449 72.8763 21.7569 72.8048 21.5794 72.7119L20.1178 72.0287C18.8914 71.4687 17.2058 70.6175 15.3522 69.6767C14.4694 69.237 13.6375 68.7018 12.8714 68.0807C12.2479 67.5589 11.7258 66.9268 11.3314 66.2159C11.062 65.7396 10.8835 65.2174 10.805 64.6759C10.7672 64.478 10.7672 64.2746 10.805 64.0767C10.9138 64.7943 11.155 65.4855 11.5162 66.1151C11.9205 66.7867 12.4399 67.3819 13.0506 67.8735C13.8105 68.4694 14.6285 68.9872 15.4922 69.4191C17.3402 70.3543 19.0146 71.2055 20.2186 71.8439C20.8178 72.1631 21.305 72.4039 21.6354 72.6055C21.8143 72.6936 21.9832 72.8006 22.1394 72.9247Z" fill="white"/>
<path d="M36.8004 45.4402C36.8004 45.4402 38.0828 47.1202 37.9204 47.7418C37.758 48.3634 36.2404 54.2882 36.2404 54.2882L36.8676 56.4834L31.9116 58.8018C31.9116 58.8018 30.2316 57.0266 30.0692 55.2794C30.0407 53.9593 30.2987 52.6486 30.8252 51.4378L29.8004 50.6314C29.8004 50.6314 28.4956 46.8962 28.4956 46.7114C28.7132 46.1728 28.9658 45.649 29.2516 45.1434L33.6196 44.4434L36.8004 45.4402Z" fill="#E1AF94"/>
<path d="M36.7999 45.4401C36.7999 45.4401 36.7215 45.4401 36.5759 45.3953L35.9431 45.2217L33.5799 44.5329H33.6135L29.2511 45.2665L29.3351 45.2049C29.1335 45.5857 28.9263 45.9833 28.7359 46.3977C28.6855 46.4971 28.6425 46.6 28.6071 46.7057C28.6201 46.7998 28.6446 46.8919 28.6799 46.9801C28.7527 47.2041 28.8255 47.4337 28.9039 47.6633C29.2231 48.5929 29.5647 49.5673 29.9119 50.5809L29.8727 50.5193L30.8919 51.3257L30.9759 51.3929L30.9367 51.4937C30.6206 52.245 30.3932 53.0305 30.2591 53.8345C30.0891 54.6624 30.1611 55.5216 30.4663 56.3097C30.8356 57.1895 31.3548 57.9986 32.0007 58.7009L31.8327 58.6673L36.7943 56.3657L36.7215 56.5169C36.5031 55.7553 36.3015 55.0273 36.0999 54.3273V54.2601C36.8167 51.5609 37.4159 49.3097 37.8415 47.6969C37.8358 47.348 37.7351 47.0073 37.5503 46.7113C37.43 46.4713 37.2972 46.2376 37.1527 46.0113C36.9231 45.6417 36.7943 45.4513 36.7999 45.4513C36.8441 45.4894 36.8836 45.5326 36.9175 45.5801C36.9885 45.6697 37.0893 45.8041 37.2199 45.9833C37.3431 46.1625 37.4943 46.3865 37.6511 46.6665C37.8592 46.9851 37.9737 47.3557 37.9815 47.7361C37.6007 49.3377 37.0295 51.6001 36.3407 54.3329V54.2657L36.9735 56.4553L37.0071 56.5673L36.9063 56.6121L31.9391 58.8801L31.8439 58.9249L31.7599 58.8801C31.0879 58.1521 30.5478 57.3127 30.1639 56.3993C29.8451 55.5619 29.7694 54.6515 29.9455 53.7729C30.0882 52.946 30.325 52.1381 30.6511 51.3649L30.6903 51.5329L29.6711 50.7209H29.6375V50.6873C29.2903 49.6681 28.9599 48.6881 28.6407 47.7585L28.4223 47.0641C28.3657 46.9337 28.3426 46.7913 28.3551 46.6497C28.392 46.5321 28.4388 46.4178 28.4951 46.3081C28.6967 45.8825 28.9095 45.4905 29.1167 45.1097L29.1447 45.0593H29.2007L33.5687 44.3985H33.6079L35.9655 45.1713L36.5815 45.3785C36.6569 45.3885 36.7305 45.4092 36.7999 45.4401Z" fill="#935643"/>
<path d="M23.4609 54.0696L24.2729 52.4568C24.2729 52.4568 23.8641 45.8936 23.9593 45.1768C24.024 44.7236 24.2498 44.3088 24.5953 44.0085C24.9409 43.7082 25.3831 43.5424 25.8409 43.5416L31.1329 42.6288C31.6148 42.5216 32.1126 42.5064 32.6001 42.584L38.3793 44.824C38.5081 44.824 38.4745 45.7088 38.0769 45.8432C37.7539 45.933 37.4209 45.9819 37.0857 45.9888C37.1641 45.888 36.2961 46.7728 35.5065 46.5824C34.7169 46.392 32.5945 45.7032 32.5945 45.7032L30.8473 46.2352L29.5705 47.7192C29.5705 47.7192 30.0913 53.8008 29.7441 55.3744C29.5126 56.3451 29.014 57.2315 28.3049 57.9336L23.4609 54.0696Z" fill="#E1AF94"/>
<path d="M23.4609 54.0696C23.4609 54.0696 23.5897 54.1536 23.8137 54.3216L24.7881 55.072L28.3609 57.872H28.2377C28.7601 57.3526 29.1666 56.7285 29.4305 56.0408C29.6933 55.2474 29.7998 54.4107 29.7441 53.5768C29.7441 51.796 29.6041 49.8304 29.4305 47.7472V47.68L29.4641 47.6408L30.7409 46.1512V46.1176H30.7801L32.5217 45.5856H32.5665H32.6113L34.8513 46.2688L35.4113 46.4424C35.5938 46.4985 35.7889 46.4985 35.9713 46.4424C36.155 46.3938 36.3305 46.3183 36.4921 46.2184C36.5761 46.168 36.6545 46.1176 36.7385 46.056L36.8561 45.9664L36.9121 45.9216L36.9457 45.8936H36.9849C36.9177 45.86 37.2201 45.8936 37.1865 46.056C37.1865 46.1232 37.1865 46.084 37.1865 46.1008L37.0689 45.8656C37.323 45.8576 37.576 45.8276 37.8249 45.776C37.9165 45.766 38.0045 45.7353 38.0825 45.6864C38.1469 45.6231 38.1933 45.5439 38.2169 45.4568C38.2513 45.3593 38.2721 45.2576 38.2785 45.1544C38.2842 45.106 38.2842 45.0572 38.2785 45.0088C38.2823 44.9903 38.2823 44.9713 38.2785 44.9528C38.2785 44.9528 38.2393 44.9528 38.3625 44.992H38.3177L35.0137 43.7208L33.4177 43.1048L32.6393 42.8024C32.3972 42.7164 32.138 42.6895 31.8833 42.724C31.3513 42.7632 30.8193 42.8752 30.2985 42.9592L28.7585 43.2224L25.8577 43.7096C25.6042 43.7071 25.353 43.7586 25.1209 43.8607C24.8887 43.9628 24.681 44.1131 24.5115 44.3017C24.342 44.4903 24.2146 44.7128 24.1377 44.9545C24.0609 45.1961 24.0363 45.4513 24.0657 45.7032C24.0657 46.7 24.1161 47.624 24.1497 48.4696C24.2281 50.1496 24.2897 51.4992 24.3345 52.4904L23.7073 53.672L23.5449 53.9744C23.5266 54.0123 23.5041 54.048 23.4777 54.0808C23.5261 53.9398 23.586 53.8031 23.6569 53.672C23.7969 53.3752 23.9929 52.972 24.2169 52.4456C24.1441 51.4768 24.0489 50.116 23.9537 48.4248C23.9089 47.5848 23.8585 46.6608 23.8361 45.6248C23.8055 45.343 23.8345 45.0579 23.9212 44.788C24.0079 44.5181 24.1505 44.2694 24.3395 44.0582C24.5286 43.8469 24.76 43.6778 25.0186 43.5618C25.2773 43.4458 25.5575 43.3855 25.8409 43.3848L28.7361 42.8752L30.2761 42.6064C30.7969 42.5224 31.3233 42.4104 31.8833 42.3656C32.1775 42.3264 32.4768 42.3571 32.7569 42.4552L33.5409 42.7576L35.1425 43.368L38.4465 44.6336H38.4017C38.4404 44.6356 38.4775 44.6492 38.5081 44.6728C38.5251 44.6862 38.5385 44.7035 38.5473 44.7232C38.5636 44.7469 38.575 44.7735 38.5809 44.8016C38.5857 44.8388 38.5857 44.8764 38.5809 44.9136C38.5867 44.9788 38.5867 45.0444 38.5809 45.1096C38.5702 45.2369 38.5458 45.3627 38.5081 45.4848C38.4644 45.6194 38.3873 45.7408 38.2841 45.8376C38.1725 45.9213 38.0415 45.9752 37.9033 45.9944C37.6341 46.0497 37.3605 46.0815 37.0857 46.0896L36.9681 45.8544C36.9681 45.8544 37.0801 45.9328 37.0913 45.9384C37.0975 45.9675 37.111 45.9945 37.1305 46.0168C37.1305 46.0168 37.1305 46.0168 37.1641 46.056L37.1025 46.1064L36.9737 46.2016C36.8872 46.2658 36.7975 46.3256 36.7049 46.3808C36.5189 46.4941 36.3169 46.5791 36.1057 46.6328C35.8879 46.6943 35.6572 46.6943 35.4393 46.6328L34.8793 46.4592L32.6057 45.7704H32.6897L30.9425 46.2968L31.0097 46.252L29.7273 47.736L29.7609 47.6352C29.9233 49.7352 30.0409 51.6952 30.0353 53.4928C30.0839 54.3551 29.9641 55.2187 29.6825 56.0352C29.4018 56.7485 28.9723 57.3938 28.4225 57.928L28.3609 57.984L28.2993 57.9336L24.7489 55.0384L23.8193 54.2712C23.6948 54.2135 23.5749 54.1461 23.4609 54.0696Z" fill="#935643"/>
<path d="M27.7673 44.9247C28.2153 44.7288 28.6827 44.5805 29.1617 44.4823C29.5929 44.3647 30.1137 44.2359 30.6961 44.1015C30.9873 44.0343 31.2897 43.9615 31.6145 43.8999C31.7864 43.8644 31.9603 43.84 32.1353 43.8271C32.1707 43.824 32.2063 43.824 32.2417 43.8271H32.2977L32.4209 43.8719L32.6617 43.9615C33.9497 44.4375 35.1089 44.8855 35.9433 45.2215C36.4059 45.38 36.8523 45.5826 37.2761 45.8263C36.7951 45.7375 36.3242 45.6005 35.8705 45.4175C35.0193 45.1263 33.8489 44.7119 32.5609 44.2359L32.3201 44.1463L32.1969 44.1015H32.1409C31.9886 44.1154 31.8371 44.1378 31.6873 44.1687L30.7745 44.3479L29.2289 44.6671C28.751 44.7993 28.2616 44.8856 27.7673 44.9247Z" fill="#935643"/>
<path d="M33.5463 49.6009C33.6024 49.3984 33.6119 49.186 33.5743 48.9793C33.4903 48.5985 33.0591 48.2569 32.5047 47.9489C31.9503 47.6409 31.4743 47.3329 31.1103 47.1481C30.7463 46.9633 30.5055 46.8625 30.5167 46.8233C30.5279 46.7841 30.7911 46.8233 31.1943 46.9577C31.7023 47.1539 32.1915 47.3957 32.6559 47.6801C32.9278 47.8357 33.1798 48.0238 33.4063 48.2401C33.6012 48.4279 33.7308 48.6732 33.7759 48.9401C33.8375 49.4161 33.5575 49.6401 33.5463 49.6009Z" fill="#935643"/>
<path d="M35.5907 48.7272C35.4516 48.2102 35.2424 47.7147 34.9691 47.2544C34.4651 46.5208 33.7483 46.2632 33.7819 46.1792C33.8155 46.0952 33.9891 46.1792 34.2747 46.2912C34.6485 46.4731 34.9702 46.7467 35.2099 47.0864C35.4481 47.4167 35.5984 47.8021 35.6467 48.2064C35.6803 48.5368 35.6243 48.7272 35.5907 48.7272Z" fill="#935643"/>
</svg>
