<svg width="243" height="242" viewBox="0 0 243 242" fill="none" xmlns="http://www.w3.org/2000/svg">
<g clip-path="url(#clip0_0_10194)">
<rect x="0.5" width="242" height="242" rx="121" fill="#FAEED1"/>
<path d="M132.473 89.8403C133.075 89.8403 141.222 91.1999 141.222 91.1999L152.244 105.086L153.904 107.716L139.037 117.222L132.473 107.504L126.901 103.882C127.731 103.249 128.719 102.856 129.757 102.748C130.795 102.64 131.843 102.82 132.785 103.269C134.982 104.193 137.345 104.656 139.728 104.629L137.767 99.0568L131.727 97.8532L132.473 89.8403Z" fill="#EB996E"/>
<path d="M133.165 80.1241C133.396 80.0635 133.638 80.0523 133.873 80.0911C134.109 80.1298 134.334 80.2178 134.534 80.3491C134.734 80.4805 134.903 80.6523 135.032 80.8535C135.161 81.0548 135.247 81.2808 135.282 81.5171C136.185 87.212 138.916 104.352 139.74 109.378C139.81 109.779 139.727 110.19 139.509 110.533C139.29 110.875 138.951 111.123 138.559 111.228L125.442 114.895C125.216 114.959 124.978 114.974 124.745 114.938C124.513 114.902 124.291 114.816 124.095 114.685C123.899 114.555 123.733 114.384 123.61 114.183C123.487 113.983 123.408 113.758 123.38 113.524L119.792 85.0722C119.738 84.6559 119.839 84.2343 120.075 83.8872C120.311 83.5401 120.666 83.2917 121.073 83.1888L133.165 80.1241Z" fill="#263238"/>
<path d="M124.36 111.383L137.733 107.65L134.19 83.979C134.142 83.6602 134.028 83.3549 133.855 83.0833C133.681 82.8117 133.452 82.5798 133.183 82.403C132.913 82.2262 132.61 82.1084 132.291 82.0573C131.973 82.0062 131.648 82.0231 131.337 82.1067L120.627 84.9486L124.36 111.383Z" fill="#EBEBEB"/>
<path d="M137.455 94.0646L131.448 98.5224C131.448 98.5224 131.949 100.105 132.863 100.216C134.81 99.9619 136.733 99.5519 138.614 98.9905L137.455 94.0646Z" fill="#EB996E"/>
<path d="M136.731 90.4664L130.434 93.2303C130.434 93.2303 130.033 95.2809 132.385 94.9911L130.278 96.5068C130.278 96.5068 130.802 97.4206 133.432 97.5321C136.062 97.6435 138.614 93.9881 138.614 93.9881L136.731 90.4664Z" fill="#EB996E"/>
<path d="M142.983 97.4757C142.983 97.5537 142.214 97.4088 141.378 96.6287C140.918 96.1977 140.434 95.7921 139.93 95.414C139.646 95.2053 139.314 95.0732 138.964 95.0302C138.615 94.9873 138.26 95.035 137.935 95.1688C136.187 96.1755 134.36 97.0401 132.474 97.7543C134.104 96.5162 135.869 95.4657 137.734 94.6227C138.161 94.4488 138.627 94.3949 139.083 94.4667C139.485 94.5613 139.864 94.7356 140.197 94.9793C140.719 95.3815 141.197 95.8372 141.624 96.339C142.05 96.749 142.504 97.1288 142.983 97.4757Z" fill="#D1734A"/>
<path d="M141.746 113.169C140.667 111.865 139.996 110.272 139.818 108.589C139.639 106.906 139.961 105.208 140.743 103.707C140.438 105.292 140.322 106.909 140.398 108.521C140.66 110.119 141.112 111.679 141.746 113.169Z" fill="#D1734A"/>
<path d="M140.966 93.2388C140.888 93.3057 140.554 92.8265 139.752 92.5702C138.678 92.2706 137.531 92.4025 136.553 92.9379C135.372 93.5063 134.324 94.2307 133.488 94.5762C132.653 94.9217 132.062 94.9997 132.051 94.9328C132.04 94.8659 132.541 94.6653 133.299 94.2084C134.057 93.7515 135.038 93.016 136.319 92.4141C136.924 92.1114 137.583 91.9333 138.258 91.8904C138.821 91.8573 139.383 91.9606 139.897 92.1913C140.732 92.6036 140.966 93.2166 140.966 93.2388Z" fill="#D1734A"/>
<path d="M140.442 132.727L173.196 153.757L164.514 178.587C164.514 178.587 142.102 171.666 142.515 170.942C142.927 170.217 140.442 132.727 140.442 132.727Z" fill="#6318AF"/>
<path d="M86.068 73.5028L90.8713 129.225L118.733 126.996C118.9 123.742 118.666 111.149 118.666 111.149C118.666 111.149 130.267 109.344 130.412 97.7755C130.479 92.1364 129.676 80.5015 128.83 70.0145C128.393 64.4163 125.779 59.2122 121.55 55.5183C117.321 51.8245 111.812 49.9351 106.206 50.2553C103.344 50.4221 100.545 51.1606 97.9726 52.4271C95.4006 53.6936 93.1085 55.4626 91.2314 57.6295C89.3543 59.7964 87.9303 62.3174 87.0435 65.0436C86.1567 67.7699 85.825 70.6462 86.068 73.5028Z" fill="#EB996E"/>
<path d="M118.677 110.939C113.321 111.037 108.057 109.539 103.554 106.638C103.554 106.638 107.131 114.985 118.699 113.937L118.677 110.939Z" fill="#D1734A"/>
<path d="M124.361 78.1168C124.364 78.5496 124.198 78.9666 123.899 79.2788C123.599 79.5911 123.189 79.7739 122.756 79.7885C122.546 79.8051 122.334 79.7795 122.133 79.713C121.933 79.6465 121.748 79.5405 121.589 79.4013C121.43 79.2622 121.301 79.0926 121.208 78.9026C121.116 78.7126 121.062 78.506 121.051 78.2951C121.048 77.8641 121.212 77.4487 121.51 77.1368C121.807 76.8249 122.214 76.6408 122.645 76.6234C122.856 76.6067 123.068 76.6323 123.27 76.6987C123.471 76.765 123.657 76.8708 123.816 77.0099C123.976 77.1489 124.107 77.3184 124.2 77.5085C124.294 77.6985 124.349 77.9053 124.361 78.1168Z" fill="#263238"/>
<path d="M126.368 75.7776C126.167 76.0005 124.908 75.0643 123.125 75.0755C121.341 75.0866 120.038 75.967 119.848 75.7553C119.659 75.5435 119.96 75.2649 120.528 74.8526C121.301 74.3194 122.219 74.0355 123.158 74.039C124.087 74.0357 124.993 74.3285 125.744 74.8749C126.29 75.2872 126.479 75.6884 126.368 75.7776Z" fill="#263238"/>
<path d="M107.243 78.1186C107.249 78.5504 107.085 78.9674 106.787 79.28C106.489 79.5925 106.081 79.7758 105.649 79.7903C105.438 79.807 105.226 79.7814 105.024 79.715C104.823 79.6487 104.637 79.5429 104.478 79.4038C104.318 79.2648 104.187 79.0953 104.094 78.9052C104 78.7152 103.946 78.5084 103.933 78.2969C103.933 77.8649 104.099 77.4496 104.399 77.1379C104.698 76.8263 105.106 76.6425 105.538 76.6253C105.748 76.6101 105.959 76.6369 106.159 76.7039C106.359 76.771 106.543 76.8771 106.702 77.0159C106.861 77.1548 106.99 77.3238 107.083 77.5131C107.176 77.7024 107.23 77.9082 107.243 78.1186Z" fill="#263238"/>
<path d="M108.847 76.1131C108.647 76.3249 107.388 75.3999 105.604 75.411C103.821 75.4222 102.517 76.3026 102.328 76.0797C102.138 75.8568 102.439 75.6005 103.008 75.1881C103.777 74.6462 104.697 74.3615 105.638 74.3746C106.567 74.3673 107.474 74.6605 108.223 75.2104C108.769 75.6228 108.948 76.0128 108.847 76.1131Z" fill="#263238"/>
<path d="M115.333 89.3303C116.274 89.0367 117.247 88.8608 118.231 88.8065C118.676 88.8065 119.111 88.6727 119.189 88.3607C119.225 87.8913 119.121 87.4217 118.888 87.0122C118.454 85.8978 118.008 84.7833 117.54 83.5463C115.667 78.6092 114.319 74.5526 114.519 74.4858C114.72 74.4189 116.392 78.3529 118.264 83.2788C118.71 84.5047 119.144 85.6637 119.546 86.767C119.834 87.3184 119.92 87.9529 119.791 88.5613C119.725 88.7225 119.622 88.866 119.49 88.9802C119.359 89.0944 119.202 89.1761 119.033 89.2188C118.783 89.2894 118.524 89.3269 118.264 89.3303C117.291 89.4576 116.306 89.4576 115.333 89.3303Z" fill="#263238"/>
<path d="M110.073 90.5654C110.363 90.5654 110.363 92.4823 112.024 93.9088C113.684 95.3353 115.735 95.0232 115.757 95.3464C115.779 95.6696 115.3 95.7142 114.42 95.7365C113.284 95.7433 112.183 95.3486 111.31 94.622C110.445 93.9353 109.888 92.9332 109.761 91.8359C109.761 91.0335 109.94 90.5543 110.073 90.5654Z" fill="#263238"/>
<path d="M109.316 69.1218C109.137 69.6122 107.354 69.3782 105.259 69.6345C103.164 69.8908 101.481 70.4592 101.203 70.0245C101.08 69.8128 101.37 69.3559 102.061 68.9101C102.969 68.3316 103.998 67.9694 105.069 67.8516C106.139 67.7337 107.222 67.8633 108.235 68.2303C109.004 68.5089 109.383 68.899 109.316 69.1218Z" fill="#263238"/>
<path d="M125.72 70.6175C125.408 71.0299 124.171 70.6175 122.7 70.6175C121.229 70.6175 119.97 70.8961 119.68 70.4726C119.557 70.2609 119.758 69.8597 120.304 69.4696C121.039 69.0128 121.893 68.7838 122.757 68.8116C123.622 68.8394 124.459 69.1226 125.163 69.6257C125.687 70.0046 125.854 70.4281 125.72 70.6175Z" fill="#263238"/>
<path d="M98.6172 60.7858H98.5503C96.718 62.2517 95.5207 64.3669 95.207 66.6924V66.9264C94.75 70.2697 94.8392 73.6131 94.3488 76.9565C93.8585 80.2998 92.7217 83.6432 90.2699 85.8721C89.2669 86.8082 87.4949 87.4546 86.6703 86.3624C86.3879 85.9082 86.2446 85.3814 86.2579 84.8468C85.6338 76.8562 83.4495 69.7682 83.4718 61.4433C83.4597 60.3241 83.7154 59.2182 84.2175 58.2179C84.7196 57.2176 85.4536 56.3518 86.3582 55.6927C88.1079 54.4445 90.2365 53.1406 92.1868 54.0656C94.1371 54.9906 96.6446 58.6237 98.1491 60.1617" fill="#263238"/>
<path d="M89.9799 78.7519C89.7793 78.6628 82.0116 76.3893 82.2568 84.3242C82.5019 92.2591 90.4257 90.3645 90.4257 90.1416C90.4257 89.9187 89.9799 78.7519 89.9799 78.7519Z" fill="#EB996E"/>
<path d="M87.9078 87.2086C87.9078 87.2086 87.7741 87.3089 87.5512 87.4203C87.2261 87.5729 86.8544 87.5929 86.5148 87.4761C85.993 87.1684 85.5623 86.7277 85.2666 86.199C84.971 85.6703 84.821 85.0727 84.832 84.467C84.7909 83.7864 84.9013 83.1051 85.1551 82.4722C85.219 82.2188 85.3437 81.9848 85.5185 81.7906C85.6933 81.5964 85.9129 81.4478 86.1582 81.3577C86.316 81.3119 86.4847 81.3212 86.6366 81.384C86.7885 81.4468 86.9145 81.5593 86.994 81.7032C87.1054 81.9261 87.0609 82.0821 87.1054 82.0933C87.15 82.1044 87.2615 81.9595 87.1946 81.6363C87.1433 81.4391 87.0251 81.2658 86.8603 81.146C86.6343 80.9947 86.3608 80.9313 86.0913 80.9677C85.7686 81.0466 85.471 81.2054 85.2256 81.4293C84.9803 81.6532 84.7951 81.9352 84.6871 82.2493C84.3716 82.9478 84.2338 83.7135 84.2859 84.4782C84.3862 86.083 85.2554 87.5429 86.4033 87.8215C86.619 87.8761 86.8442 87.8813 87.0622 87.837C87.2802 87.7926 87.4854 87.6997 87.6627 87.5652C87.9078 87.3981 87.9413 87.2197 87.9078 87.2086Z" fill="#D1734A"/>
<path d="M91.9301 55.2935C89.9798 52.1173 95.3292 47.5592 99.2409 46.3779C103.153 45.1966 108.313 47.0466 112.202 48.3393C114.665 49.1529 117.106 50.2896 119.702 50.1893C121.43 50.0052 123.123 49.5736 124.728 48.9077C126.332 48.2294 128.058 47.888 129.799 47.9047C130.669 47.9231 131.517 48.1789 132.251 48.6445C132.986 49.11 133.579 49.7675 133.967 50.5459C134.625 52.1507 133.689 54.3574 131.961 54.5914C132.512 54.2921 133.127 54.1303 133.754 54.1199C134.38 54.1095 135 54.2506 135.561 54.5314C136.121 54.8122 136.605 55.2242 136.972 55.7325C137.339 56.2407 137.578 56.8301 137.668 57.4504C137.758 58.0707 137.696 58.7036 137.489 59.2951C137.282 59.8867 136.934 60.4194 136.477 60.8478C136.019 61.2762 135.465 61.5878 134.861 61.7558C134.257 61.9239 133.622 61.9435 133.009 61.813C134.123 60.9549 135.862 62.3703 135.717 63.7745C135.565 64.4679 135.236 65.11 134.761 65.6375C134.286 66.1651 133.682 66.56 133.009 66.7835C129.665 68.2323 125.843 67.7642 122.422 66.6163C119 65.4684 115.824 63.6742 112.391 62.4371C108.959 61.2001 103.309 58.9712 99.9096 60.2082C97.4021 61.0998 95.6524 64.12 94.2371 63.4513C93.5691 63.0946 92.9942 62.5861 92.5587 61.9667C92.1232 61.3473 91.8392 60.6343 91.7295 59.885C91.5423 58.4003 91.595 56.8952 91.8856 55.4272" fill="#263238"/>
<path d="M132.909 54.3336C132.842 54.3336 132.508 54.9131 131.65 55.8381C130.436 57.1303 128.925 58.1059 127.248 58.6799C124.782 59.5664 122.068 59.4585 119.681 58.379C116.984 57.1643 114.677 54.7125 111.991 52.4836C109.528 50.1763 106.416 48.6823 103.075 48.2041C101.696 48.035 100.296 48.183 98.9831 48.6369C97.6698 49.0907 96.4775 49.8384 95.497 50.823C94.8646 51.5108 94.3785 52.3198 94.0681 53.201C93.7578 54.0822 93.6297 55.0173 93.6916 55.9495C93.7353 56.4503 93.8517 56.9421 94.0371 57.4094C94.182 57.7215 94.2711 57.8775 94.2934 57.8664C94.1431 57.2325 94.0425 56.5879 93.9925 55.9384C93.9941 54.1731 94.6767 52.4764 95.8982 51.202C96.8461 50.306 97.9832 49.6345 99.2254 49.2371C100.468 48.8398 101.783 48.7267 103.075 48.9062C106.252 49.4112 109.203 50.8595 111.545 53.0631C114.153 55.292 116.538 57.7772 119.424 59.0365C121.552 59.946 123.917 60.1455 126.167 59.6055C128.417 59.0655 130.434 57.8148 131.917 56.0387C132.234 55.66 132.511 55.2491 132.742 54.8128C132.865 54.5119 132.931 54.3447 132.909 54.3336Z" fill="#455A64"/>
<path d="M87.9523 78.4061C87.9523 78.4061 88.2978 78.1832 88.5987 77.5591C88.99 76.6546 89.1286 75.6609 88.9999 74.6838C88.8216 72.1317 86.5593 69.3902 86.2695 65.8574C86.068 64.2256 86.3755 62.5713 87.1499 61.121C87.8264 59.975 88.8599 59.0825 90.0921 58.58C90.9287 58.2272 91.8434 58.1003 92.7445 58.2122C93.3797 58.3237 93.7252 58.4686 93.7587 58.4017C93.4933 58.1574 93.1654 57.9915 92.8114 57.9225C91.8505 57.6722 90.8364 57.7188 89.9026 58.0562C88.5124 58.5462 87.3323 59.4981 86.5593 60.7532C85.6699 62.3258 85.3068 64.1417 85.5228 65.9354C85.7288 67.6776 86.246 69.3687 87.0496 70.9281C87.6863 72.1406 88.155 73.4341 88.4427 74.773C88.6618 76.0055 88.4904 77.2757 87.9523 78.4061Z" fill="#455A64"/>
<path d="M139.763 240.404L158.675 368.343L116.393 358.09L99.1631 244.572L139.763 240.404Z" fill="#263238"/>
<path d="M147.051 295.513C147.051 295.513 154.406 289.194 155.131 284.436C155.855 279.677 146.315 203.081 146.315 203.081L141.445 139.757C141.445 140.872 141.579 131.778 140.108 131.232C135.65 129.549 126.489 126.496 126.489 126.496L121.251 121.793C121.251 121.793 130.657 162.002 132.485 172.99L147.051 295.513Z" fill="#6318AF"/>
<path d="M86.6586 117.424L78.746 122.695L49.0681 134.364L62.2521 184.079L60.4801 212.966L58.7973 231.299C58.7973 231.299 49.9597 276.69 42.1585 304.273C42.1585 304.273 50.8624 320.767 58.0172 323.063L60.9928 324.835L71.6023 247.146L80.7074 234.887C81.5878 233.706 82.4014 232.491 83.1703 231.243C85.3992 227.599 90.5034 219.318 94.5712 212.933C99.9428 204.496 106.83 185.328 104.791 177.147C102.751 168.967 86.6586 117.424 86.6586 117.424Z" fill="#6318AF"/>
<path d="M86.6583 117.425L93.802 163.262C93.6081 169.123 92.6374 174.931 90.9155 180.536L78.1662 221.771C78.1662 221.771 68.1361 244.25 71.6021 247.125C75.068 250 102.027 247.125 102.027 247.125L138.514 241.831C139.328 241.712 140.065 241.285 140.573 240.638C141.081 239.991 141.321 239.173 141.244 238.354L135.828 182.386C134 178.519 133.254 170.607 132.485 167.798L121.251 121.805L118.955 121.504L113.962 124.925L111.332 125.137L89.255 114.449L86.6583 117.425Z" fill="#EBEBEB"/>
<path d="M80.0063 215.784C85.9017 197.407 93.5357 167.529 93.5357 167.529C95.9095 183.131 93.3128 199.123 87.5065 213.834C82.759 225.826 77.0195 234.897 73.0744 247.19L72.9518 247.691C72.9518 247.691 70.7229 247.814 70.8789 244.526C71.0349 241.239 74.2223 231.454 76.3509 226.037C78.4795 220.621 80.0063 215.784 80.0063 215.784Z" fill="#E0E0E0"/>
<path d="M115.233 128.811H110.274L108.791 135.598L113.127 140.847L117.495 140.413L118.922 135.543L117.752 132.823L115.233 128.811Z" fill="#6318AF"/>
<path d="M144.153 168.444C145.713 168.756 162.943 180.346 169.206 179.098C175.469 177.85 180.54 171.943 181.208 171.152C184.764 166.939 182.535 158.191 181.509 154.892C181.26 154.087 180.919 153.313 180.495 152.585L153.893 106.893L138.213 116.421L154.484 146.099L144.153 168.444Z" fill="#6318AF"/>
<path d="M15.8468 223.688C14.8159 220.992 14.3683 218.108 14.5335 215.227C14.6987 212.345 15.473 209.531 16.8052 206.971C20.4161 199.827 26.1443 188.293 27.348 184.504C29.1311 178.876 45.8033 135.691 49.0686 134.353L63.5565 183.267L46.7283 218.706L66.4541 255.873L50.0159 273.593C50.0159 273.593 18.9115 230.219 16.3483 224.858C16.17 224.472 16.0028 224.082 15.8468 223.688Z" fill="#6318AF"/>
<path d="M144.042 169.802C143.85 169.363 143.711 168.903 143.63 168.431C143.396 167.539 143.106 166.202 142.783 164.608C141.957 160.389 141.351 156.13 140.966 151.848C140.583 147.565 140.427 143.264 140.498 138.965C140.498 137.316 140.587 135.989 140.654 135.064C140.664 134.585 140.716 134.108 140.81 133.638C140.889 134.113 140.912 134.595 140.877 135.075C140.877 136.112 140.877 137.416 140.877 138.965C140.877 142.308 141.066 146.766 141.512 151.803C141.958 156.841 142.627 161.299 143.162 164.542C143.418 166.068 143.641 167.361 143.819 168.386C143.938 168.85 144.013 169.324 144.042 169.802Z" fill="#263238"/>
<path d="M157.682 172.443C157.682 172.443 157.548 172.443 157.303 172.354C156.959 172.229 156.627 172.072 156.311 171.886C155.151 171.168 154.181 170.182 153.481 169.011C152.502 167.278 151.816 165.395 151.452 163.439C150.882 161.076 150.439 158.683 150.126 156.273C149.658 151.124 149.268 146.499 149.012 143.133C148.9 141.54 148.811 140.202 148.733 139.144C148.68 138.655 148.68 138.161 148.733 137.673C148.858 138.147 148.94 138.632 148.978 139.121C149.09 140.236 149.246 141.506 149.424 143.089C149.792 146.432 150.249 151.102 150.706 156.206C151.029 158.747 151.508 161.154 151.987 163.316C152.31 165.259 152.934 167.139 153.837 168.888C154.487 170.032 155.376 171.02 156.445 171.786C157.248 172.221 157.738 172.399 157.682 172.443Z" fill="#263238"/>
<g opacity="0.3">
<path d="M148.701 137.717C147.343 142.852 146.404 148.088 145.892 153.375C145.422 156.53 145.589 159.747 146.382 162.836C147.341 165.868 149.581 168.665 152.657 169.523C151.253 159.181 150.016 148.82 148.946 138.441" fill="black"/>
</g>
<g opacity="0.3">
<path d="M57.4477 237.919C57.4477 237.919 62.6633 248.606 65.5498 254.201C71.5678 229.337 63.9338 203.17 66.419 177.716L62.0727 186.487L60.8468 206.781L59.9106 218.683C59.9106 218.683 59.0191 231.488 57.4477 237.919Z" fill="black"/>
</g>
<path d="M61.662 134.821C61.9989 135.252 62.2938 135.715 62.5425 136.203C62.8211 136.66 63.1331 137.228 63.4675 137.897C63.8018 138.565 64.2142 139.334 64.5819 140.203C65.4906 142.235 66.2759 144.319 66.9334 146.444C68.5192 151.668 69.3155 157.1 69.2961 162.559C69.2902 164.796 69.1375 167.03 68.8391 169.246C68.75 170.193 68.5717 171.04 68.4379 171.776C68.3042 172.511 68.1705 173.158 68.0479 173.67C67.9484 174.212 67.7953 174.742 67.5909 175.253C67.621 174.705 67.6993 174.16 67.825 173.626C67.9141 173.102 68.0256 172.511 68.1259 171.72C68.2262 170.929 68.3599 170.138 68.4379 169.202C68.667 167.006 68.7749 164.8 68.7611 162.593C68.7265 159.897 68.5218 157.206 68.1482 154.535C67.7366 151.868 67.1597 149.229 66.4208 146.634C65.7978 144.516 65.0536 142.436 64.1919 140.404C63.8575 139.524 63.4675 138.766 63.1666 138.075C62.8657 137.384 62.5759 136.816 62.3307 136.347C62.0571 135.862 61.8331 135.351 61.662 134.821Z" fill="#263238"/>
<path d="M46.5723 219.006C46.4943 219.062 45.7476 217.892 44.3434 216.053C42.4705 213.736 40.2485 211.724 37.757 210.091C36.4227 209.189 34.8101 208.794 33.21 208.976C31.911 209.216 30.6815 209.741 29.6104 210.514C27.7269 211.807 26.7016 212.821 26.6236 212.743C26.8048 212.453 27.0304 212.194 27.2923 211.974C27.9435 211.324 28.6399 210.721 29.3763 210.169C30.4712 209.34 31.7404 208.773 33.0875 208.508C34.8106 208.262 36.5639 208.659 38.0133 209.623C40.5676 211.283 42.8055 213.385 44.622 215.83C45.1726 216.564 45.6787 217.331 46.1377 218.126C46.3273 218.395 46.474 218.692 46.5723 219.006Z" fill="#263238"/>
<path d="M42.8939 207.294C45.1059 210.67 46.3756 214.575 46.5716 218.606C46.3933 218.606 45.9587 215.998 44.9334 212.889C43.9081 209.779 42.7714 207.394 42.8939 207.294Z" fill="#263238"/>
<path d="M57.1035 237.226C57.4235 237.676 57.7032 238.154 57.9393 238.653L60.0568 242.654C61.8288 246.053 64.2471 250.789 66.933 256.105L67.0333 256.295L66.8884 256.439L65.7739 257.554C61.3941 262.112 57.4155 266.224 54.5068 269.167L51.0409 272.644C50.6332 273.088 50.1896 273.498 49.7147 273.87C50.0471 273.379 50.4199 272.917 50.8291 272.488L54.1725 268.888C57.0032 265.857 60.9483 261.711 65.317 257.153L66.4314 256.038V256.373C63.7568 251.046 61.3941 246.343 59.7447 242.832L57.7944 238.753C57.5149 238.268 57.2834 237.757 57.1035 237.226Z" fill="#263238"/>
<path d="M78.8134 214.806C78.7844 214.483 78.7844 214.159 78.8134 213.836C78.8134 213.156 78.8134 212.243 78.8134 211.084C78.8691 208.643 78.9472 205.188 79.0475 200.953C79.1478 196.718 79.2592 191.592 79.4932 185.942C79.6352 179.782 80.4727 173.658 81.9896 167.687C82.8322 164.627 84.0134 161.67 85.5113 158.872L85.723 159.295C84.3359 159.058 83.0748 158.344 82.1568 157.278C81.2816 156.279 80.6452 155.093 80.2956 153.812C79.7853 151.441 79.5904 149.012 79.7161 146.59C79.7161 142.054 79.7161 137.998 79.7161 134.61C79.7161 131.222 79.7161 128.581 79.7161 126.664C79.7161 125.772 79.7161 125.059 79.7161 124.524C79.6899 124.28 79.6899 124.033 79.7161 123.789C79.7583 124.031 79.777 124.278 79.7718 124.524C79.7718 125.059 79.7718 125.772 79.8276 126.664C79.8276 128.581 79.8944 131.267 79.9502 134.599C80.0059 137.931 80.0282 142.043 80.0728 146.59C79.9613 148.965 80.1636 151.345 80.6745 153.667C81.0076 154.862 81.6057 155.967 82.4242 156.899C83.255 157.867 84.3984 158.514 85.6562 158.727L86.0574 158.793L85.8679 159.15C84.3914 161.909 83.2288 164.825 82.402 167.843C80.9019 173.773 80.0573 179.85 79.8833 185.964C79.627 191.603 79.4821 196.696 79.3038 200.976C79.1255 205.255 78.9917 208.643 78.8914 211.095L78.7577 213.847C78.7922 214.166 78.8108 214.486 78.8134 214.806Z" fill="#263238"/>
<path d="M126.567 127.152C126.679 127.346 126.768 127.551 126.835 127.765C126.991 128.233 127.214 128.879 127.47 129.559L129.777 136.246C130.735 139.11 131.883 142.509 133.12 146.276C133.733 148.204 134.491 150.165 135.059 152.338C135.365 153.468 135.414 154.653 135.204 155.804C135.095 156.419 134.864 157.005 134.523 157.528C134.182 158.051 133.739 158.499 133.221 158.847L133.31 158.434C134.246 159.827 135.238 161.31 136.163 162.892C137.553 165.132 138.605 167.566 139.283 170.114C139.804 172.514 139.973 174.976 139.785 177.425C139.517 182.05 139.216 186.207 138.971 189.684C138.726 193.161 138.514 195.947 138.358 197.964C138.28 198.889 138.213 199.636 138.169 200.193C138.157 200.456 138.12 200.717 138.057 200.973C138.031 200.71 138.031 200.445 138.057 200.182C138.057 199.613 138.113 198.856 138.146 197.953C138.247 195.925 138.392 193.105 138.57 189.661C138.748 186.218 139.005 181.983 139.272 177.402C139.426 175.008 139.25 172.605 138.748 170.259C138.071 167.77 137.035 165.394 135.672 163.204C134.759 161.666 133.778 160.195 132.842 158.746L132.674 158.501L132.931 158.345C133.383 158.041 133.77 157.648 134.067 157.19C134.364 156.732 134.565 156.219 134.658 155.682C134.857 154.609 134.815 153.505 134.536 152.45C134.001 150.355 133.243 148.337 132.641 146.432C131.415 142.609 130.312 139.199 129.376 136.324C128.44 133.448 127.76 131.231 127.247 129.637C127.013 128.89 126.835 128.277 126.69 127.809C126.633 127.593 126.592 127.374 126.567 127.152Z" fill="#263238"/>
<path d="M87.4714 124.837C87.9047 125.06 88.3152 125.325 88.6973 125.628L91.9738 127.857C94.7599 129.762 98.6605 132.315 103.118 134.856C104.79 135.814 106.462 136.706 107.933 137.508L107.532 137.686C108.468 133.986 109.292 130.81 109.894 128.57C110.184 127.522 110.429 126.653 110.63 125.94C110.701 125.62 110.809 125.309 110.953 125.015C110.945 125.343 110.896 125.669 110.808 125.984C110.652 126.709 110.463 127.589 110.24 128.648C109.716 130.877 108.969 134.109 108.011 137.82L107.933 138.154L107.621 137.998C106.094 137.207 104.445 136.315 102.773 135.357C98.9508 133.175 95.2525 130.783 91.6952 128.191C90.3355 127.199 89.2545 126.352 88.519 125.762C88.1368 125.493 87.7855 125.183 87.4714 124.837Z" fill="#263238"/>
<path d="M124.251 133.04C122.699 134.282 121.052 135.4 119.325 136.383L119.08 136.54L118.946 136.272L117.441 133.341C116.327 131.112 115.268 128.995 114.566 127.479C114.129 126.683 113.778 125.842 113.518 124.971C114.07 125.694 114.541 126.476 114.923 127.301C115.725 128.761 116.806 130.8 117.954 133.074L119.458 136.071L119.08 135.96C120.73 134.863 122.459 133.887 124.251 133.04Z" fill="#263238"/>
<path d="M116.984 131.945C116.686 132.237 116.358 132.495 116.003 132.714C115.39 133.171 114.521 133.828 113.551 134.441C112.582 135.054 111.701 135.689 111.055 136.113C110.702 136.356 110.329 136.569 109.94 136.748C110.238 136.454 110.567 136.192 110.921 135.968C111.545 135.522 112.414 134.909 113.373 134.252L115.869 132.58C116.222 132.337 116.595 132.124 116.984 131.945Z" fill="#263238"/>
<path d="M113.641 134.251C112.846 133.626 112.1 132.941 111.412 132.2C110.692 131.509 110.025 130.764 109.417 129.972C110.191 130.597 110.913 131.283 111.579 132.022C112.322 132.711 113.012 133.456 113.641 134.251Z" fill="#263238"/>
<path d="M92.6438 233.115C92.9732 235.901 93.7523 238.615 94.9507 241.151C96.3125 243.601 98.0669 245.811 100.144 247.693C99.3802 247.335 98.6889 246.841 98.1046 246.233C95.0779 243.46 93.1413 239.697 92.6438 235.623C92.495 234.794 92.495 233.945 92.6438 233.115Z" fill="#263238"/>
<path d="M120.906 212.13C121.098 212.506 121.237 212.908 121.319 213.322C121.553 214.103 121.854 215.239 122.188 216.666C122.879 219.485 123.692 223.419 124.339 227.81C124.985 232.201 125.353 236.191 125.52 239.1C125.598 240.548 125.643 241.719 125.643 242.532C125.698 242.95 125.698 243.374 125.643 243.792C125.539 243.383 125.479 242.965 125.464 242.543C125.375 241.607 125.275 240.47 125.152 239.122C124.885 236.247 124.461 232.268 123.815 227.899C123.169 223.531 122.411 219.597 121.831 216.755C121.564 215.429 121.33 214.303 121.14 213.412C121.015 212.994 120.937 212.565 120.906 212.13Z" fill="#263238"/>
<path d="M113.484 141.984C112.035 153.563 110.966 178.761 110.564 190.451C110.23 200.214 110.263 209.988 110.297 219.761C110.297 222.915 110.297 226.169 111.645 229.033C113.975 234.193 119.669 236.835 124.896 238.93L113.484 141.984Z" fill="#E0E0E0"/>
<path d="M126.478 237.259L132.462 222.593L117.495 140.414L113.127 140.848C113.127 140.848 113.74 226.26 113.539 227.029L126.478 237.259Z" fill="#6318AF"/>
<path d="M117.34 140.414C116.665 140.627 115.963 140.744 115.256 140.759C114.56 140.851 113.856 140.851 113.161 140.759C113.849 140.64 114.546 140.573 115.245 140.558C115.939 140.466 116.639 140.418 117.34 140.414Z" fill="#263238"/>
<path d="M155.517 67.5788C155.529 62.9424 157.11 58.4467 160.004 54.8241C162.897 51.2014 166.932 48.6655 171.451 47.6294C175.971 46.5934 180.707 47.1183 184.89 49.1186C189.073 51.119 192.455 54.4768 194.485 58.6451C196.515 62.8133 197.074 67.5462 196.07 72.0727C195.067 76.5991 192.56 80.6523 188.958 83.5717C185.356 86.4911 180.872 88.1047 176.235 88.1496C171.599 88.1945 167.085 86.668 163.427 83.8188L156.537 84.7088L158.537 78.3288C156.549 75.0965 155.503 71.3734 155.517 67.5788Z" fill="white"/>
<path d="M155.517 67.5788C155.47 68.5813 155.52 69.586 155.667 70.5788C156.033 73.3585 156.973 76.0317 158.427 78.4288V78.3488L156.427 84.7188C156.417 84.7533 156.421 84.7901 156.438 84.8217C156.455 84.8533 156.483 84.8773 156.517 84.8888H156.577L163.467 84.0288C163.506 84.0215 163.54 84.0001 163.564 83.9688C163.588 83.9374 163.6 83.8982 163.597 83.8588V83.7788L163.387 83.9988C165.83 85.9074 168.669 87.2435 171.697 87.9088C173.337 88.2753 175.018 88.4232 176.697 88.3488L177.997 88.2888C178.437 88.2888 178.867 88.1688 179.307 88.1088C180.192 87.974 181.067 87.7802 181.927 87.5288C183.687 86.9944 185.369 86.2277 186.927 85.2488L187.537 84.8788L188.107 84.4588C188.487 84.1688 188.877 83.9088 189.247 83.5888C189.983 82.9686 190.678 82.3005 191.327 81.5888C191.983 80.8598 192.594 80.0917 193.157 79.2888C193.705 78.4565 194.196 77.5878 194.627 76.6888C195.061 75.7831 195.438 74.8513 195.757 73.8988C196.046 72.9146 196.27 71.9125 196.427 70.8988C196.796 68.5978 196.769 66.2507 196.347 63.9588C195.924 61.7389 195.155 59.5994 194.067 57.6188C193.011 55.7183 191.661 53.997 190.067 52.5188C189.291 51.796 188.465 51.1277 187.597 50.5188C186.734 49.958 185.835 49.4537 184.907 49.0088L184.217 48.6788C183.987 48.5688 183.747 48.4988 183.507 48.4088C183.037 48.2388 182.577 48.0488 182.097 47.8988C181.159 47.6223 180.204 47.4118 179.237 47.2688C178.298 47.1166 177.348 47.033 176.397 47.0188C175.934 46.9937 175.47 46.9937 175.007 47.0188C174.552 47.0265 174.098 47.0599 173.647 47.1188C170.597 47.4772 167.666 48.5148 165.07 50.1555C162.474 51.7961 160.279 53.9979 158.647 56.5988C158.048 57.5588 157.519 58.5615 157.067 59.5988C156.71 60.4812 156.413 61.3866 156.177 62.3088C156.067 62.7288 155.967 63.1188 155.887 63.4888C155.807 63.8588 155.777 64.2088 155.727 64.4888C155.677 64.7688 155.637 65.1188 155.597 65.3888C155.557 65.6588 155.597 65.9188 155.597 66.1488C155.597 66.5788 155.597 66.9188 155.597 67.1488V67.4988C155.597 67.4988 155.597 67.3788 155.597 67.1488C155.597 66.9188 155.597 66.5688 155.677 66.1488C155.677 65.9288 155.677 65.6788 155.727 65.3988C155.777 65.1188 155.817 64.8288 155.877 64.5088C155.937 64.1888 155.987 63.8388 156.047 63.5088C156.107 63.1788 156.247 62.7588 156.347 62.3488C156.597 61.4371 156.904 60.542 157.267 59.6688C157.726 58.6327 158.257 57.6302 158.857 56.6688C160.339 54.3675 162.263 52.3827 164.517 50.8288C167.26 48.9561 170.417 47.7789 173.717 47.3988C174.165 47.3403 174.615 47.3069 175.067 47.2988C175.517 47.2988 175.977 47.2288 176.437 47.2988C177.368 47.3219 178.297 47.4087 179.217 47.5588C180.17 47.7068 181.112 47.9173 182.037 48.1888C182.497 48.3388 182.957 48.5288 183.417 48.6888C183.647 48.7788 183.887 48.8588 184.117 48.9588L184.787 49.2888C185.702 49.7211 186.584 50.219 187.427 50.7788C188.28 51.3876 189.088 52.0559 189.847 52.7788C191.424 54.2218 192.758 55.9102 193.797 57.7788C194.867 59.7202 195.62 61.82 196.027 63.9988C196.444 66.2441 196.471 68.5444 196.107 70.7988C195.953 71.7893 195.733 72.7682 195.447 73.7288C194.828 75.5947 193.971 77.3728 192.897 79.0188C192.35 79.8106 191.752 80.5655 191.107 81.2788C190.486 81.9894 189.817 82.6575 189.107 83.2788C188.757 83.5888 188.357 83.8488 187.987 84.1288L187.427 84.5488L186.837 84.9088C185.295 85.8707 183.634 86.6271 181.897 87.1588C181.049 87.4011 180.188 87.5915 179.317 87.7288C178.887 87.7888 178.457 87.8688 178.037 87.9088L176.747 87.9788C175.089 88.0481 173.429 87.9069 171.807 87.5588C168.821 86.9092 166.017 85.6045 163.597 83.7388C163.569 83.7113 163.531 83.6959 163.492 83.6959C163.453 83.6959 163.415 83.7113 163.387 83.7388C163.368 83.7669 163.358 83.8 163.358 83.8338C163.358 83.8677 163.368 83.9007 163.387 83.9288L163.497 83.6788L156.607 84.5888L156.757 84.7588C157.477 82.3988 158.127 80.2488 158.757 78.3688C158.767 78.3396 158.767 78.308 158.757 78.2788C157.298 75.9132 156.332 73.2771 155.917 70.5288C155.777 69.5288 155.737 68.8388 155.697 68.3388V67.7788C155.527 67.6388 155.527 67.5788 155.517 67.5788Z" fill="#263238"/>
<path d="M170.207 67.6288C170.207 68.011 170.093 68.3845 169.881 68.7021C169.668 69.0197 169.366 69.2671 169.013 69.4128C168.66 69.5586 168.271 69.5962 167.897 69.521C167.522 69.4457 167.178 69.2609 166.909 68.99C166.639 68.719 166.456 68.3742 166.383 67.9992C166.309 67.6241 166.349 67.2358 166.497 66.8833C166.644 66.5308 166.893 66.2301 167.212 66.0192C167.531 65.8083 167.905 65.6968 168.287 65.6988C168.797 65.7015 169.285 65.906 169.645 66.2676C170.005 66.6293 170.207 67.1187 170.207 67.6288Z" fill="#263238"/>
<path d="M177.917 67.6488C177.917 68.031 177.803 68.4045 177.591 68.7221C177.378 69.0397 177.076 69.2871 176.723 69.4329C176.37 69.5786 175.981 69.6163 175.607 69.541C175.232 69.4657 174.888 69.2809 174.619 69.01C174.349 68.7391 174.166 68.3942 174.093 68.0192C174.019 67.6442 174.059 67.2558 174.207 66.9033C174.354 66.5508 174.603 66.2501 174.922 66.0392C175.241 65.8284 175.615 65.7169 175.997 65.7188C176.506 65.7241 176.993 65.9294 177.352 66.2905C177.711 66.6516 177.914 67.1395 177.917 67.6488Z" fill="#263238"/>
<path d="M185.597 66.7088C185.789 67.0397 185.879 67.4202 185.854 67.802C185.829 68.1838 185.692 68.5497 185.459 68.8532C185.226 69.1568 184.908 69.3842 184.546 69.5067C184.183 69.6291 183.792 69.6411 183.423 69.541C183.054 69.4409 182.723 69.2333 182.472 68.9446C182.221 68.6559 182.061 68.299 182.013 67.9194C181.965 67.5398 182.031 67.1546 182.203 66.8126C182.375 66.4706 182.644 66.1874 182.977 65.9988C183.419 65.7484 183.942 65.6824 184.433 65.8154C184.923 65.9483 185.342 66.2693 185.597 66.7088Z" fill="#263238"/>
</g>
<defs>
<clipPath id="clip0_0_10194">
<rect x="0.5" width="242" height="242" rx="121" fill="white"/>
</clipPath>
</defs>
</svg>
