<svg width="35" height="33" viewBox="0 0 35 33" fill="none" xmlns="http://www.w3.org/2000/svg">
<path d="M24.1442 18.8288C24.2184 18.5607 24.2196 18.2776 24.1477 18.0088C24.0758 17.7401 23.9335 17.4954 23.7354 17.3C23.3285 16.9167 22.7986 16.6904 22.2402 16.6616C21.7532 16.6141 21.2628 16.7095 20.829 16.936C20.5791 17.0581 20.3622 17.2386 20.1969 17.4622C20.0315 17.6859 19.9225 17.9461 19.8791 18.2209C19.8357 18.4956 19.8592 18.7768 19.9475 19.0405C20.0359 19.3043 20.1865 19.5429 20.3866 19.736C20.8198 20.1738 21.4011 20.4335 22.0162 20.464C22.5338 20.5134 23.0506 20.3631 23.461 20.044C23.6521 19.9016 23.8116 19.7211 23.9292 19.5138C24.0468 19.3066 24.12 19.0771 24.1442 18.84" fill="#6318AF"/>
<path d="M29.3352 20.7049C31.3848 21.2257 33.608 19.0641 34.2128 17.5969C34.251 17.5234 34.271 17.4418 34.271 17.3589C34.271 17.2761 34.251 17.1944 34.2128 17.1209C34.1513 17.0561 34.0743 17.0081 33.9889 16.9816C33.9036 16.9551 33.8129 16.951 33.7256 16.9697C32.6883 17.0399 31.7008 17.4404 30.9077 18.1126C30.1146 18.7847 29.5576 19.6932 29.3184 20.7049" fill="#455A64"/>
<path d="M31.7488 19.7305C31.823 19.4632 31.8243 19.181 31.7524 18.9131C31.6805 18.6452 31.5381 18.4014 31.34 18.2073C30.9358 17.8197 30.4042 17.5927 29.8447 17.5689C29.3583 17.5219 28.8686 17.6152 28.4336 17.8377C28.2161 17.9547 28.0242 18.114 27.8694 18.3064C27.7145 18.4988 27.5998 18.7202 27.532 18.9577C27.462 19.2538 27.4673 19.5627 27.5475 19.8562C27.6278 20.1497 27.7803 20.4184 27.9911 20.6377C28.4224 21.0782 29.0049 21.3385 29.6207 21.3657C30.1358 21.4169 30.651 21.2686 31.06 20.9513C31.253 20.8091 31.4141 20.6279 31.5327 20.4196C31.6514 20.2112 31.725 19.9803 31.7488 19.7417" fill="#6318AF"/>
<path d="M20.9971 19.4337C21.0531 18.3529 20.3979 16.9753 19.8267 16.0737C19.2451 15.1494 18.3952 14.4246 17.3907 13.9961C17.3236 13.961 17.2468 13.9492 17.1723 13.9625C17.1364 13.9808 17.1046 14.0061 17.0786 14.0369C17.0527 14.0677 17.0331 14.1033 17.0211 14.1417C16.757 14.7597 16.6601 15.4363 16.7402 16.1036C16.8203 16.7709 17.0745 17.4054 17.4774 17.9433C17.8803 18.4812 18.4176 18.9037 19.0354 19.1682C19.6532 19.4328 20.3298 19.5302 20.9971 19.4505" fill="#455A64"/>
<path d="M13.5597 17.0481C13.1779 16.5479 12.8459 16.0115 12.5685 15.4465C12.2867 14.8798 12.1684 14.2456 12.2269 13.6153C12.2275 13.569 12.2384 13.5234 12.2587 13.4817C12.2791 13.4401 12.3084 13.4035 12.3445 13.3745C12.3857 13.3551 12.4306 13.345 12.4761 13.345C12.5217 13.345 12.5666 13.3551 12.6077 13.3745C13.7648 13.7173 14.7845 14.4157 15.5223 15.3706C16.2601 16.3255 16.6785 17.4885 16.7182 18.6945L16.7573 19.0081C15.7272 19.5195 14.5389 19.6119 13.4421 19.2657C12.5478 19.0451 11.7076 18.645 10.9725 18.0897C10.2337 17.5296 9.73685 16.7082 9.58374 15.7937C10.2979 15.6999 11.0239 15.7636 11.7108 15.9803C12.3976 16.197 13.0288 16.5615 13.5597 17.0481Z" fill="#455A64"/>
<path d="M26.6192 16.1184C27.7126 15.236 29.0322 14.679 30.4272 14.5112C30.4641 15.2059 30.3624 15.901 30.1282 16.5561C29.894 17.2111 29.5318 17.8131 29.0628 18.3269C28.5938 18.8407 28.0274 19.2561 27.3963 19.549C26.7653 19.8419 26.0823 20.0063 25.3872 20.0328L25.32 19.876C25.1738 19.1908 25.2176 18.4786 25.4465 17.8164C25.6755 17.1542 26.081 16.5671 26.6192 16.1184Z" fill="#455A64"/>
<path d="M33.6023 19.68C33.6023 19.68 31.2839 27.9904 26.5071 30.9752C20.2743 34.8952 10.7935 29.8552 9.97589 27.8728C9.15829 25.8904 7.66309 17.7424 7.66309 17.7424L33.6023 19.68Z" fill="#F2D58C"/>
<path d="M33.6025 19.6801H33.4849L33.1153 19.6465L31.6705 19.5289L26.2609 19.1201L7.66889 17.6921H7.55688V17.8041C8.02168 20.3073 8.53689 22.9505 9.19209 25.6441C9.33769 26.2041 9.47768 26.7641 9.65688 27.3241C9.69608 27.4641 9.74648 27.6041 9.79688 27.7385C9.84728 27.8729 9.84729 27.8785 9.87529 27.9457C9.90329 28.0129 9.94808 28.0857 9.98728 28.1473C10.147 28.3908 10.3349 28.6145 10.5473 28.8137C11.411 29.5535 12.3719 30.1715 13.4033 30.6505C14.3859 31.1288 15.4068 31.524 16.4553 31.8321C17.4593 32.1289 18.4884 32.3333 19.5297 32.4425C21.4646 32.6864 23.4298 32.4359 25.2417 31.7145C26.7866 31.0183 28.1338 29.9482 29.1617 28.6009C30.0245 27.5128 30.775 26.3402 31.4017 25.1009C31.8824 24.1711 32.3124 23.2158 32.6897 22.2393C33.0089 21.4385 33.2161 20.8001 33.3561 20.3689C33.4233 20.1505 33.4737 19.9881 33.5017 19.8761C33.5229 19.8204 33.5361 19.762 33.5409 19.7025C33.5409 19.7025 33.5409 19.7585 33.4849 19.8705C33.4289 19.9825 33.3897 20.1505 33.3225 20.3577C33.1713 20.7889 32.9529 21.4161 32.6281 22.2113C32.3033 23.0065 31.8833 23.9753 31.3121 25.0561C30.6812 26.2807 29.9309 27.4399 29.0721 28.5169C28.0485 29.8446 26.7111 30.8972 25.1801 31.5801C23.3884 32.2812 21.4496 32.5219 19.5409 32.2801C17.4315 32.0384 15.3797 31.434 13.4761 30.4937C12.4648 30.0187 11.5228 29.4083 10.6761 28.6793C10.463 28.4955 10.2747 28.2846 10.1161 28.0521L10.0209 27.8785L9.94249 27.6769C9.89769 27.5425 9.84169 27.4081 9.80249 27.2681C9.62889 26.7081 9.48889 26.1481 9.34329 25.5881C8.68809 22.8945 8.17848 20.2457 7.70808 17.7481L7.61289 17.8545L26.1433 19.1929L31.5753 19.5737L33.0425 19.6745H33.4233L33.6025 19.6801Z" fill="#263238"/>
<path d="M27.353 29.2C27.4571 29.1204 27.5545 29.0323 27.6442 28.9368C27.8234 28.7576 28.0698 28.4944 28.3722 28.1584C29.144 27.2756 29.8532 26.34 30.4946 25.3584C31.1282 24.3697 31.6896 23.3366 32.1746 22.2672C32.3594 21.8584 32.4994 21.5224 32.589 21.2872C32.6417 21.1668 32.6811 21.041 32.7066 20.912C32.6301 21.0192 32.568 21.1359 32.5218 21.2592C32.4154 21.4832 32.2586 21.8192 32.057 22.2168C31.5464 23.2547 30.9799 24.2642 30.3602 25.2408C29.7217 26.2116 29.03 27.1464 28.2882 28.0408C28.0082 28.388 27.773 28.6624 27.605 28.8528C27.5038 28.955 27.4188 29.0721 27.353 29.2Z" fill="#F2D58C"/>
<path d="M9.02979 19.12C9.10636 19.1433 9.1852 19.1583 9.26498 19.1648L9.95939 19.2544C10.5586 19.3272 11.4266 19.4224 12.4962 19.5288C14.6466 19.7528 17.6146 20.016 20.8962 20.2288C24.1778 20.4416 27.1682 20.576 29.3242 20.6432C30.405 20.6768 31.2786 20.6936 31.8778 20.6992H32.6002C32.6802 20.7076 32.7609 20.7076 32.841 20.6992C32.7619 20.6818 32.6812 20.6724 32.6002 20.6712L31.9058 20.6376L29.3522 20.52C27.1962 20.4248 24.217 20.2736 20.9522 20.0552C17.6874 19.8368 14.6914 19.596 12.5522 19.4112L10.0042 19.1872L9.30979 19.1312L9.02979 19.12Z" fill="#F2D58C"/>
<path d="M3.95573 3.84883L3.56372 1.07683L8.49732 0.53363L8.68772 3.84883H3.95573Z" fill="#455A64"/>
<path d="M12.9271 13.0103L13.9519 29.1999C13.9967 29.9111 13.4703 30.6783 12.4567 31.2999C11.0983 32.0637 9.57852 32.4955 8.02147 32.5599H7.99347C4.16307 32.7951 1.78308 31.4399 1.68788 30.0063L0.679875 13.8055C0.679875 13.8055 0.679875 13.8055 0.679875 13.7719C0.590275 12.1871 1.64868 10.4623 2.71828 8.75994C3.29864 7.63851 3.56195 6.37997 3.47987 5.11994C3.47987 5.00794 3.47987 4.91274 3.47987 4.81754H3.37347C3.14959 4.8464 2.92332 4.78633 2.74323 4.65021C2.56315 4.5141 2.4436 4.31281 2.41027 4.08954L2.35987 3.38954C2.36429 3.16277 2.45786 2.94687 2.62032 2.7886C2.78279 2.63033 3.00106 2.54243 3.22787 2.54394L8.97908 2.17994C9.14971 2.16403 9.32143 2.19531 9.47549 2.27037C9.62955 2.34542 9.76004 2.46137 9.85268 2.60554C9.90428 2.69859 9.93487 2.80181 9.94228 2.90794L9.98147 3.59674C9.97705 3.82203 9.88407 4.03651 9.72266 4.19373C9.56124 4.35095 9.3444 4.43826 9.11908 4.43674H9.01268C9.01268 4.52634 9.01267 4.62714 9.04067 4.73354C9.12322 5.99705 9.55135 7.2136 10.2783 8.25034C11.5495 9.80714 12.8207 11.3863 12.9271 12.9711C12.9271 12.9879 12.9215 12.9991 12.9271 13.0103Z" fill="#FAEED1"/>
<path d="M12.9274 13.0104C12.9274 13.0104 12.9274 12.9544 12.9274 12.8424C12.9072 12.6802 12.8773 12.5194 12.8378 12.3608C12.6632 11.7653 12.4009 11.199 12.0594 10.6808C11.5058 9.84082 10.8998 9.03655 10.245 8.27283C9.85656 7.77067 9.56421 7.20113 9.38258 6.59282C9.17232 5.91005 9.0408 5.20548 8.99058 4.49282V4.44243H9.04097C9.25405 4.44339 9.46261 4.38101 9.64018 4.26322C9.72849 4.2027 9.80272 4.12385 9.8578 4.03204C9.91288 3.94024 9.94754 3.83763 9.95938 3.73123C9.95938 3.51283 9.95938 3.27203 9.92018 3.03683C9.92135 2.92735 9.89599 2.81923 9.84625 2.7217C9.79651 2.62418 9.72388 2.54015 9.63457 2.47683C9.44248 2.3411 9.20778 2.27944 8.97378 2.30322L8.21777 2.35363L6.65539 2.45443L3.34578 2.66723C3.20924 2.66557 3.07386 2.69263 2.94844 2.74665C2.82303 2.80068 2.71037 2.88046 2.61777 2.98083C2.53032 3.08437 2.47402 3.21058 2.45539 3.34483C2.44759 3.48845 2.44759 3.6324 2.45539 3.77603C2.45539 3.91603 2.45539 4.07842 2.45539 4.21282C2.48435 4.34724 2.55255 4.47002 2.65137 4.56563C2.75894 4.65992 2.88595 4.72937 3.02338 4.76905C3.16082 4.80873 3.30531 4.81767 3.44658 4.79523H3.51378V4.86802C3.5517 5.52661 3.5198 6.18736 3.41859 6.83922C3.33202 7.52084 3.11325 8.179 2.77457 8.77682C2.41057 9.33682 2.04098 9.95282 1.70498 10.5688C1.35071 11.1831 1.07061 11.8373 0.870576 12.5176C0.786041 12.8452 0.740927 13.1817 0.736182 13.52C0.736182 13.8728 0.769777 14.248 0.792177 14.612C0.836977 15.3512 0.887377 16.096 0.932177 16.852C1.02924 18.3454 1.12631 19.8723 1.22338 21.4328C1.39138 24.16 1.55938 26.82 1.72178 29.3904C1.72452 29.705 1.76018 30.0185 1.82818 30.3256C1.9244 30.6178 2.09183 30.8815 2.31538 31.0928C2.77159 31.5037 3.30986 31.8129 3.89457 32C4.46668 32.2041 5.06051 32.3413 5.66417 32.4088C6.25634 32.4858 6.85368 32.5158 7.45058 32.4984C8.58943 32.4829 9.72047 32.3076 10.8106 31.9776C11.335 31.8145 11.8401 31.5949 12.317 31.3224C12.7938 31.0741 13.2164 30.7334 13.5602 30.32C13.7106 30.1148 13.8208 29.883 13.885 29.6368C13.9215 29.3899 13.9215 29.1389 13.885 28.892C13.8514 28.3824 13.8234 27.8896 13.7898 27.4024C13.7282 26.428 13.6722 25.4872 13.6162 24.6024C13.4034 21.0296 13.2298 18.14 13.1066 16.1408C12.9834 14.1416 12.9386 13.0384 12.9386 13.0384C12.9446 13.1055 12.9446 13.173 12.9386 13.24C12.9386 13.38 12.9386 13.576 12.9834 13.8392C13.0226 14.3656 13.073 15.1384 13.1402 16.1352C13.2746 18.14 13.465 21.024 13.7002 24.5968C13.7562 25.4872 13.8178 26.4224 13.8794 27.3968C13.913 27.8822 13.9466 28.3806 13.9802 28.892C13.9802 29.0152 13.9802 29.144 13.9802 29.2728C13.9841 29.4065 13.9709 29.5401 13.941 29.6704C13.8749 29.9321 13.7568 30.1778 13.5938 30.3928C13.2689 30.817 12.8636 31.1728 12.401 31.44C11.9178 31.7185 11.405 31.942 10.8722 32.1064C9.76452 32.4567 8.6121 32.6453 7.45058 32.6664C6.84824 32.6857 6.24531 32.6576 5.64738 32.5824C5.03312 32.5097 4.42853 32.3708 3.84417 32.168C3.23907 31.9656 2.68369 31.6373 2.21458 31.2048C1.9657 30.9603 1.78435 30.6554 1.68818 30.32C1.6202 30.0015 1.58455 29.6769 1.58178 29.3512C1.41938 26.7808 1.25138 24.1208 1.07778 21.3936C0.976982 19.8406 0.879913 18.3136 0.78658 16.8128C0.74178 16.0624 0.69138 15.3176 0.64658 14.5728C0.64658 14.2032 0.596176 13.8448 0.590576 13.4528C0.598546 13.0739 0.655007 12.6975 0.758578 12.3328C0.963637 11.641 1.24933 10.9756 1.60978 10.3504C1.94578 9.72883 2.32658 9.14082 2.67938 8.55842C3.00851 7.9749 3.22506 7.33473 3.31777 6.67123C3.4143 6.02641 3.44432 5.37338 3.40738 4.72243L3.48018 4.78403C3.32028 4.80645 3.15743 4.79405 3.00277 4.74765C2.84812 4.70125 2.70532 4.62197 2.58417 4.51523C2.46449 4.40354 2.38399 4.25626 2.35458 4.09523C2.35458 3.93283 2.35457 3.79283 2.32097 3.64163C2.30947 3.49064 2.30947 3.33901 2.32097 3.18802C2.34073 3.02872 2.40695 2.87875 2.51137 2.75683C2.61346 2.64317 2.73883 2.55284 2.87894 2.49196C3.01906 2.43108 3.17064 2.40109 3.32338 2.40403L6.63859 2.19683L8.20097 2.10163L8.95137 2.05683C9.21173 2.02917 9.4731 2.099 9.68497 2.25282C9.78905 2.32835 9.87342 2.42783 9.93093 2.54285C9.98844 2.65787 10.0174 2.78504 10.0154 2.91363C10.0154 3.15443 10.049 3.37843 10.049 3.61923C10.0373 3.74082 9.9986 3.85827 9.93561 3.96293C9.87262 4.06759 9.78697 4.15681 9.68497 4.22403C9.49391 4.35496 9.26698 4.42343 9.03539 4.42003L9.08018 4.36963C9.1179 5.7108 9.53966 7.013 10.2954 8.12163C10.9478 8.89238 11.5501 9.70418 12.0986 10.552C12.4389 11.0868 12.6957 11.6703 12.8602 12.2824C12.895 12.4433 12.9212 12.6059 12.9386 12.7696C12.9451 12.85 12.9414 12.931 12.9274 13.0104Z" fill="#F2D58C"/>
<path d="M8.68772 4.42552C7.8397 4.55156 6.98531 4.63009 6.12853 4.66072C5.27616 4.74182 4.41957 4.76988 3.56372 4.74471C4.41174 4.61867 5.26614 4.54014 6.12292 4.50951C6.9755 4.43177 7.83188 4.40372 8.68772 4.42552Z" fill="#F2D58C"/>
<path d="M12.5464 15.2C12.2632 15.0809 11.9545 15.0353 11.649 15.0676C11.3435 15.0999 11.0512 15.2091 10.7992 15.3848C10.2954 15.7374 9.74508 16.0182 9.16398 16.2192C8.44103 16.3248 7.70357 16.1848 7.06959 15.8216C6.44026 15.4592 5.78073 15.1519 5.0984 14.9032C4.42826 14.7197 3.72016 14.7274 3.05414 14.9253C2.38813 15.1232 1.79076 15.5035 1.32959 16.0232L2.20879 29.9224C2.20879 29.9224 3.12159 32.2464 8.46959 31.5352C13.8176 30.824 13.252 28.4776 13.252 28.4776L12.5464 15.2Z" fill="#6318AF"/>
</svg>
