<svg width="42" height="42" viewBox="0 0 42 42" fill="none" xmlns="http://www.w3.org/2000/svg">
<path d="M0.0169797 20.5788C0.0286688 15.9424 1.61014 11.4467 4.5037 7.82407C7.39726 4.20144 11.4323 1.6655 15.9515 0.629447C20.4706 -0.406606 25.2074 0.118301 29.3901 2.11864C33.5728 4.11897 36.9548 7.47683 38.985 11.6451C41.0152 15.8133 41.574 20.5462 40.5703 25.0727C39.5666 29.5991 37.0597 33.6523 33.4578 36.5717C29.856 39.4911 25.3717 41.1047 20.7355 41.1496C16.0994 41.1945 11.5846 39.668 7.92698 36.8188L1.037 37.7088L3.037 31.3288C1.04917 28.0965 0.00322289 24.3734 0.0169797 20.5788Z" fill="white"/>
<path d="M0.0168721 20.5788C-0.0298047 21.5813 0.0204223 22.586 0.166866 23.5788C0.532965 26.3585 1.47285 29.0317 2.92688 31.4288V31.3488L0.926876 37.7188C0.91732 37.7533 0.921339 37.7901 0.938076 37.8217C0.954812 37.8533 0.982993 37.8773 1.01687 37.8888H1.07687L7.96688 37.0288C8.00572 37.0215 8.04048 37.0001 8.06448 36.9688C8.08848 36.9374 8.10004 36.8982 8.09689 36.8588V36.7788L7.88687 36.9988C10.3295 38.9074 13.1693 40.2435 16.1969 40.9088C17.8368 41.2753 19.5181 41.4232 21.1969 41.3488L22.4969 41.2888C22.9369 41.2888 23.3669 41.1688 23.8069 41.1088C24.6921 40.974 25.5674 40.7802 26.4269 40.5288C28.1875 39.9944 29.8689 39.2277 31.4269 38.2488L32.0369 37.8788L32.6069 37.4588C32.9869 37.1688 33.3769 36.9088 33.7469 36.5888C34.4834 35.9686 35.1783 35.3005 35.8269 34.5888C36.4827 33.8598 37.0939 33.0917 37.6569 32.2888C38.2052 31.4565 38.6964 30.5878 39.1269 29.6888C39.5609 28.7831 39.9383 27.8513 40.2569 26.8988C40.5459 25.9146 40.7697 24.9125 40.9269 23.8988C41.2958 21.5978 41.2688 19.2507 40.8469 16.9588C40.4243 14.7389 39.6549 12.5994 38.5669 10.6188C37.5112 8.71831 36.1611 6.99699 34.5669 5.51882C33.7907 4.796 32.9654 4.12774 32.0969 3.51882C31.2337 2.95804 30.3352 2.45365 29.4069 2.00882L28.7169 1.67882C28.4869 1.56882 28.2469 1.49882 28.0069 1.40882C27.5369 1.23882 27.0769 1.04882 26.5969 0.89882C25.6594 0.6223 24.7037 0.411788 23.7369 0.268823C22.7975 0.116588 21.8484 0.0330336 20.8969 0.0188232C20.4339 -0.00627439 19.9699 -0.00627439 19.5069 0.0188232C19.052 0.0265219 18.598 0.0599068 18.1469 0.118822C15.097 0.477177 12.1662 1.51484 9.57034 3.15545C6.97444 4.79606 4.77945 6.99786 3.14688 9.59883C2.54756 10.5588 2.01949 11.5615 1.56689 12.5988C1.20992 13.4812 0.91257 14.3866 0.676876 15.3088C0.566876 15.7288 0.466867 16.1188 0.386867 16.4888C0.306867 16.8588 0.276894 17.2088 0.226894 17.4888C0.176894 17.7688 0.136889 18.1188 0.0968892 18.3888C0.0568892 18.6588 0.0968892 18.9188 0.0968892 19.1488C0.0968892 19.5788 0.0968892 19.9188 0.0968892 20.1488V20.4988C0.0968892 20.4988 0.0968892 20.3788 0.0968892 20.1488C0.0968892 19.9188 0.0968758 19.5688 0.176876 19.1488C0.176876 18.9288 0.176894 18.6788 0.226894 18.3988C0.276894 18.1188 0.316888 17.8288 0.376888 17.5088C0.436888 17.1888 0.486871 16.8388 0.546871 16.5088C0.606871 16.1788 0.746889 15.7588 0.846889 15.3488C1.09705 14.4371 1.4043 13.542 1.76687 12.6688C2.22574 11.6327 2.75706 10.6302 3.35687 9.66883C4.83943 7.36754 6.76311 5.38268 9.01687 3.82882C11.7599 1.95605 14.9174 0.778856 18.2169 0.39882C18.6647 0.34028 19.1154 0.306895 19.5669 0.298822C20.0169 0.298822 20.4769 0.228822 20.9369 0.298822C21.8684 0.321865 22.7972 0.408738 23.7169 0.558824C24.6697 0.7068 25.6117 0.917251 26.5369 1.18882C26.9969 1.33882 27.4569 1.52882 27.9169 1.68882C28.1469 1.77882 28.3869 1.85883 28.6169 1.95883L29.2869 2.28882C30.2017 2.72105 31.084 3.21903 31.9269 3.77883C32.7797 4.38757 33.5884 5.05591 34.3469 5.77883C35.9243 7.22179 37.2582 8.91023 38.2969 10.7788C39.3667 12.7202 40.1196 14.82 40.5269 16.9988C40.9437 19.2441 40.9708 21.5444 40.6069 23.7988C40.4533 24.7893 40.2328 25.7682 39.9469 26.7288C39.3285 28.5947 38.4714 30.3728 37.3969 32.0188C36.8504 32.8106 36.2524 33.5656 35.6069 34.2788C34.9856 34.9893 34.3174 35.6575 33.6069 36.2788C33.2569 36.5888 32.8569 36.8488 32.4869 37.1288L31.9269 37.5488L31.3369 37.9088C29.7952 38.8707 28.1345 39.6271 26.3969 40.1588C25.5493 40.4011 24.6877 40.5915 23.8169 40.7288C23.3869 40.7888 22.9569 40.8688 22.5369 40.9088L21.2469 40.9788C19.5891 41.0481 17.9292 40.9069 16.3069 40.5588C13.3211 39.9092 10.5169 38.6045 8.09689 36.7388C8.06885 36.7113 8.03114 36.6959 7.99188 36.6959C7.95262 36.6959 7.91491 36.7113 7.88687 36.7388C7.86795 36.7669 7.85784 36.8 7.85784 36.8338C7.85784 36.8677 7.86795 36.9007 7.88687 36.9288L7.99688 36.6788L1.10687 37.5888L1.25689 37.7588C1.97689 35.3988 2.62689 33.2488 3.25689 31.3688C3.2668 31.3396 3.2668 31.308 3.25689 31.2788C1.79782 28.9132 0.8318 26.2771 0.416866 23.5288C0.276866 22.5288 0.236865 21.8388 0.196865 21.3388V20.7788C0.0268648 20.6388 0.0268721 20.5788 0.0168721 20.5788Z" fill="#263238"/>
<path d="M14.7069 20.6288C14.7069 21.011 14.5935 21.3845 14.381 21.7021C14.1685 22.0197 13.8664 22.2671 13.5132 22.4128C13.1599 22.5586 12.7714 22.5962 12.3967 22.521C12.0221 22.4457 11.6782 22.2609 11.4087 21.99C11.1392 21.719 10.9561 21.3742 10.8828 20.9992C10.8095 20.6241 10.8491 20.2358 10.9967 19.8833C11.1443 19.5308 11.3933 19.2301 11.712 19.0192C12.0307 18.8083 12.4048 18.6968 12.7869 18.6988C13.2971 18.7015 13.7854 18.906 14.1452 19.2676C14.505 19.6293 14.7069 20.1187 14.7069 20.6288Z" fill="#263238"/>
<path d="M22.4169 20.6488C22.4169 21.031 22.3034 21.4045 22.0909 21.7221C21.8784 22.0397 21.5764 22.2871 21.2232 22.4329C20.8699 22.5786 20.4813 22.6163 20.1067 22.541C19.732 22.4657 19.3881 22.2809 19.1186 22.01C18.8491 21.7391 18.6661 21.3942 18.5928 21.0192C18.5194 20.6442 18.5591 20.2558 18.7067 19.9033C18.8543 19.5508 19.1032 19.2501 19.4219 19.0392C19.7406 18.8284 20.1148 18.7169 20.4969 18.7188C21.0062 18.7241 21.493 18.9294 21.8523 19.2905C22.2115 19.6516 22.4143 20.1395 22.4169 20.6488Z" fill="#263238"/>
<path d="M30.097 19.7088C30.2891 20.0397 30.3786 20.4202 30.3541 20.802C30.3295 21.1838 30.1921 21.5498 29.9591 21.8533C29.7262 22.1568 29.4082 22.3842 29.0458 22.5067C28.6833 22.6291 28.2925 22.6411 27.9233 22.541C27.554 22.4409 27.2227 22.2334 26.9717 21.9446C26.7206 21.6559 26.561 21.2991 26.5132 20.9195C26.4654 20.5398 26.5314 20.1546 26.703 19.8126C26.8746 19.4706 27.144 19.1874 27.477 18.9988C27.9192 18.7484 28.4423 18.6825 28.9329 18.8154C29.4234 18.9483 29.8417 19.2694 30.097 19.7088Z" fill="#263238"/>
</svg>
