<svg width="18" height="24" viewBox="0 0 18 24" fill="none" xmlns="http://www.w3.org/2000/svg">
<path d="M9.76345 7.75979C9.8998 7.02334 9.88897 6.26719 9.73158 5.53495C9.57419 4.80271 9.27337 4.10889 8.84646 3.49352C8.41955 2.87814 7.87501 2.35339 7.24426 1.94955C6.6135 1.54571 5.90902 1.27077 5.17146 1.14059C5.03585 1.09968 4.88977 1.11169 4.76266 1.17419C4.59466 1.28059 4.58346 1.51579 4.59466 1.73419C4.68685 3.18122 5.2359 4.56166 6.16276 5.67671C7.08962 6.79176 8.34645 7.58388 9.75226 7.93899" fill="#455A64"/>
<path d="M1.50354 18.0078C2.84754 20.9982 4.86354 23.0478 7.38914 23.2158C7.89874 23.2494 8.29075 22.9246 8.77795 22.9134C9.06175 22.9826 9.33355 23.094 9.58433 23.2438C9.71698 23.3092 9.8621 23.3455 10.0099 23.3502C12.6475 23.2886 14.9435 21.5022 16.5451 18.4502C18.7851 14.1774 18.2699 9.49017 15.4251 7.99497C15.0505 7.79048 14.6566 7.62353 14.2491 7.49657C13.7834 7.35116 13.2978 7.27937 12.8099 7.28377C11.6754 7.32178 10.5543 7.54108 9.48914 7.93337L9.34354 7.97817C7.01394 6.85817 5.13234 6.80777 3.27314 7.63657C0.305139 8.96377 -0.478863 13.6062 1.50354 18.0078Z" fill="#FF725E"/>
<path d="M1.68254 13.6118C1.54765 13.3378 1.47316 13.0379 1.46414 12.7326C1.40473 12.0004 1.51766 11.2645 1.79383 10.5838C2.07001 9.90304 2.50178 9.29646 3.05455 8.81262C3.26549 8.59792 3.51925 8.43001 3.79934 8.31982C3.79934 8.31982 3.52494 8.52702 3.13294 8.87982C2.62637 9.37814 2.22774 9.97534 1.96184 10.6343C1.69595 11.2933 1.56846 11.9999 1.58734 12.7102C1.63214 13.2702 1.71614 13.6062 1.68254 13.6118Z" fill="#F2D58C"/>
<path d="M2.15324 15.6893C2.09724 15.6893 2.00763 15.4932 1.95723 15.23C1.90683 14.9668 1.90683 14.7373 1.95723 14.7261C2.00763 14.7149 2.10284 14.922 2.15884 15.1852C2.21484 15.4484 2.21484 15.6781 2.15324 15.6893Z" fill="#F2D58C"/>
<path d="M15.9742 0.85498C15.9742 0.88858 15.4142 1.08458 14.591 1.54938C14.1045 1.82259 13.6402 2.1334 13.2022 2.47898C12.6724 2.90908 12.178 3.381 11.7238 3.89018C11.2792 4.414 10.8819 4.9762 10.5366 5.57018C10.255 6.05062 10.0116 6.55243 9.80857 7.07098C9.46137 7.96138 9.34936 8.54938 9.31016 8.53818C9.30847 8.39805 9.32735 8.25844 9.36617 8.12378C9.39301 7.96099 9.43043 7.80012 9.47817 7.64218C9.52911 7.43135 9.59269 7.22377 9.66857 7.02058C9.85363 6.48306 10.088 5.96379 10.3686 5.46938C10.7128 4.87199 11.1142 4.30936 11.567 3.78938C12.0272 3.26881 12.5353 2.79259 13.0846 2.36698C13.5332 2.02076 14.0132 1.71705 14.5182 1.45978C14.7108 1.35571 14.909 1.26224 15.1118 1.17978C15.261 1.11217 15.4143 1.05419 15.571 1.00618C15.6959 0.933417 15.8322 0.882294 15.9742 0.85498Z" fill="#263238"/>
</svg>
