<svg width="26" height="23" viewBox="0 0 26 23" fill="none" xmlns="http://www.w3.org/2000/svg">
<path d="M1.65784 12.437C1.02383 13.1395 0.669206 14.0499 0.661035 14.9962C0.636552 15.9531 0.804122 16.9052 1.15384 17.7962C1.98264 19.801 4.86104 21.2738 6.97224 21.6546C9.08344 22.0354 13.4738 23.2002 18.7602 21.7162C22.7642 20.5962 25.6594 18.8322 25.6314 14.8618C25.6034 10.8914 21.4762 8.70179 12.673 8.40499C6.47944 8.18099 3.10824 10.8802 1.65784 12.437Z" fill="#EB996E"/>
<path opacity="0.2" d="M25.6316 14.8674C25.6271 14.4903 25.582 14.1148 25.4972 13.7474C25.4244 14.8674 24.4836 15.7802 23.3916 16.4018C21.532 17.4704 19.5477 18.3056 17.4836 18.8882C15.4595 19.4013 13.3833 19.6812 11.2956 19.7226C9.0605 19.7301 6.84829 19.2724 4.79962 18.3786C2.81162 17.5666 1.12042 16.4074 0.739621 14.3242C0.694551 14.5529 0.672037 14.7855 0.672415 15.0186C0.649886 15.9753 0.817389 16.927 1.16522 17.8186C1.99402 19.8234 4.86682 21.2906 6.97802 21.677C9.08922 22.0634 13.4684 23.2114 18.738 21.7386C22.7644 20.6018 25.6596 18.8378 25.6316 14.8674Z" fill="black"/>
<g opacity="0.3">
<path d="M23.0777 12.2802C22.2794 11.4279 21.2685 10.8035 20.1489 10.4714C17.9697 9.73218 15.6245 9.63115 13.3897 10.1802L4.50813 11.4402C4.28711 11.8171 4.15516 12.2396 4.12235 12.6753C4.08955 13.111 4.15675 13.5484 4.31884 13.9542C4.48093 14.3599 4.73361 14.7233 5.05758 15.0165C5.38156 15.3097 5.76825 15.5249 6.18813 15.6458C6.38826 16.1516 6.76185 16.5696 7.24203 16.8251C7.72222 17.0806 8.27765 17.1568 8.80892 17.0402C9.22232 16.8673 9.65764 16.7523 10.1025 16.6986C10.5505 16.6986 11.0153 16.9562 11.4241 16.7658C11.6761 16.6482 11.8273 16.385 12.0177 16.1778C12.2879 15.8835 12.6564 15.6982 13.0537 15.657C13.9609 15.5618 14.9185 16.217 15.7417 15.8082C15.9749 16.0185 16.2624 16.1591 16.5715 16.2143C16.8806 16.2694 17.199 16.2368 17.4905 16.1202C17.7821 16.0036 18.0351 15.8076 18.2209 15.5545C18.4067 15.3014 18.5178 15.0013 18.5417 14.6882C18.8263 14.8578 19.1588 14.9288 19.4878 14.8904C19.8168 14.8519 20.124 14.7061 20.3617 14.4754C20.9364 14.7234 21.5558 14.8511 22.1817 14.8506C22.4956 14.8443 22.8 14.7422 23.0542 14.5581C23.3084 14.3739 23.5003 14.1165 23.6041 13.8202C23.6415 13.5403 23.6134 13.2555 23.522 12.9883C23.4307 12.7211 23.2786 12.4787 23.0777 12.2802Z" fill="black"/>
</g>
<path d="M25.0829 12.5938C25.0998 12.6128 25.1148 12.6334 25.1277 12.6554L25.2509 12.8514C25.3917 13.1057 25.4704 13.3897 25.4805 13.6802C25.4633 14.1499 25.3031 14.6032 25.0213 14.9794C24.6604 15.4836 24.2037 15.9117 23.6773 16.2394C23.1173 16.5978 22.4285 16.945 21.7061 17.2978C20.9837 17.6506 20.1885 17.9866 19.3429 18.3002C18.4541 18.6277 17.545 18.8971 16.6213 19.1066C15.6273 19.322 14.6212 19.4772 13.6085 19.5714C13.0877 19.6218 12.5725 19.661 12.0685 19.689C11.5645 19.717 11.0605 19.7394 10.5677 19.7226C9.62329 19.6853 8.68513 19.5521 7.76768 19.325C6.93312 19.1271 6.11351 18.8707 5.31489 18.5578C4.61298 18.3017 3.93469 17.9851 3.28768 17.6114C2.75459 17.3097 2.26795 16.9325 1.84288 16.4914C1.51526 16.1587 1.24133 15.7771 1.03088 15.3602C0.912951 15.092 0.82288 14.8124 0.762086 14.5258L0.717285 14.2962C0.718707 14.272 0.718707 14.2477 0.717285 14.2234V14.2962C0.717285 14.3522 0.745283 14.425 0.767683 14.5202C0.944089 15.2556 1.31107 15.9316 1.83169 16.4802C2.25738 16.9206 2.74391 17.2977 3.27649 17.6002C3.93046 17.967 4.61422 18.278 5.32049 18.5298C6.11174 18.8319 6.9217 19.0826 7.74529 19.2802C8.66294 19.5054 9.60109 19.6367 10.5453 19.6722C11.0325 19.6722 11.5365 19.6722 12.0405 19.6386C12.5445 19.605 13.0597 19.5714 13.5805 19.521C14.5895 19.4269 15.5919 19.2716 16.5821 19.0562C17.5111 18.8506 18.4258 18.5849 19.3205 18.261C20.1661 17.953 20.9557 17.6114 21.6837 17.2698C22.4117 16.9282 23.0725 16.5754 23.6549 16.2226C24.1775 15.8991 24.6321 15.4768 24.9933 14.9794C25.2703 14.6066 25.4319 14.1607 25.4581 13.697C25.4573 13.4058 25.3903 13.1185 25.2621 12.857L25.1445 12.661L25.0829 12.5938Z" fill="#263238"/>
<path d="M2.03887 16.133L1.99968 16.0994C1.99968 16.0994 1.93807 16.0378 1.89887 15.9874C1.78131 15.8449 1.67814 15.6911 1.59087 15.5282C1.28888 14.9929 1.17455 14.372 1.26607 13.7642C1.36973 13.1568 1.67561 12.6023 2.13407 12.1906C2.27054 12.0665 2.4187 11.9558 2.57648 11.8602L2.70527 11.7874C2.73887 11.7874 2.75567 11.7874 2.75567 11.7874C2.55494 11.9204 2.36742 12.0723 2.19567 12.241C1.75791 12.6549 1.46529 13.1989 1.36127 13.7922C1.27606 14.3859 1.37991 14.9913 1.65808 15.5226C1.77031 15.7349 1.89756 15.9389 2.03887 16.133Z" fill="white"/>
<path d="M3.22559 17.1018C3.08962 17.0533 2.96137 16.9854 2.84479 16.9002C2.71989 16.8327 2.60648 16.7457 2.50879 16.6426C2.64448 16.6879 2.77139 16.756 2.88399 16.8442C3.01136 16.9106 3.12681 16.9976 3.22559 17.1018Z" fill="white"/>
<path d="M12.04 4.74837C13.552 5.82917 14.5488 5.91877 15.82 6.57957C17.337 7.28738 19.0426 7.48389 20.6808 7.13957C21.4592 7.00517 22.3608 6.76437 22.9768 7.23477C23.1112 7.33557 23.2232 7.46437 23.3576 7.57077C23.5335 7.69347 23.7211 7.79851 23.9176 7.88437C24.3349 8.03704 24.6829 8.33536 24.8976 8.72437C25.0656 9.13317 24.7912 9.72677 24.3376 9.68757C24.528 9.78277 24.528 10.074 24.4216 10.2476C24.3152 10.4212 24.136 10.5836 24.052 10.7796C23.9587 11.0848 23.9726 11.4128 24.0912 11.7092C24.2621 11.7464 24.4232 11.8194 24.564 11.9231C24.7048 12.0269 24.8221 12.1593 24.9082 12.3115C24.9944 12.4637 25.0474 12.6324 25.0639 12.8065C25.0805 12.9806 25.06 13.1563 25.004 13.322C24.9356 13.4612 24.8776 13.6054 24.8304 13.7532C24.8191 13.9285 24.8191 14.1043 24.8304 14.2796C24.7972 14.517 24.6766 14.7335 24.4923 14.8868C24.308 15.04 24.0731 15.119 23.8336 15.1084C23.7797 15.3727 23.6461 15.6142 23.4509 15.8004C23.2557 15.9866 23.0082 16.1086 22.7416 16.15C22.8448 16.1981 22.9265 16.2829 22.9707 16.3879C23.0149 16.4929 23.0185 16.6106 22.9808 16.7181C22.9431 16.8256 22.8668 16.9152 22.7667 16.9696C22.6667 17.024 22.5499 17.0392 22.4392 17.0124C22.4846 17.2029 22.4866 17.4011 22.4449 17.5924C22.4032 17.7838 22.319 17.9633 22.1986 18.1177C22.0781 18.272 21.9244 18.3973 21.7489 18.4842C21.5734 18.5711 21.3806 18.6173 21.1848 18.6196C20.9707 19.1755 20.5603 19.6337 20.0312 19.9076C19.8098 20.1 19.5292 20.2107 19.236 20.2212C18.76 20.1876 18.4632 19.6612 18.0096 19.5212C17.8136 19.4596 17.5952 19.4764 17.3992 19.426C17.2032 19.3756 16.996 19.2076 17.0072 19.0004C16.9349 19.1055 16.8289 19.1828 16.7067 19.2194C16.5845 19.2561 16.4534 19.2499 16.3352 19.202C16.1099 19.0802 15.9176 18.9053 15.7752 18.6924C15.9088 19.0508 15.9026 19.4464 15.7579 19.8005C15.6131 20.1547 15.3405 20.4413 14.994 20.6036C14.6476 20.7659 14.2528 20.7919 13.8881 20.6764C13.5234 20.5609 13.2155 20.3125 13.0256 19.9804C12.9532 20.0916 12.8436 20.1735 12.7165 20.2114C12.5893 20.2494 12.4527 20.2409 12.3312 20.1876C12.0897 20.0872 11.8749 19.9319 11.704 19.734C11.4912 20.0308 11.2168 20.3612 10.8528 20.3444C10.7395 20.328 10.6245 20.328 10.5112 20.3444C10.3208 20.378 10.22 20.574 10.108 20.7308C9.98477 20.9121 9.8171 21.0587 9.62102 21.1568C9.42494 21.2548 9.20701 21.3009 8.98802 21.2908C8.77096 21.2703 8.56588 21.1819 8.40199 21.0381C8.2381 20.8943 8.12375 20.7025 8.07522 20.49C8.01448 20.6293 7.90832 20.7439 7.77407 20.815C7.63982 20.8862 7.48541 20.9098 7.33602 20.882C7.18828 20.8462 7.05653 20.7625 6.96131 20.644C6.86609 20.5254 6.81276 20.3788 6.80962 20.2268C6.46242 20.3948 6.05922 20.1148 5.82962 19.8012C5.61974 19.5098 5.47088 19.1791 5.39197 18.8288C5.31306 18.4786 5.30573 18.1159 5.37042 17.7628C5.32547 17.8152 5.27043 17.8581 5.20857 17.8889C5.1467 17.9197 5.07928 17.9377 5.01032 17.9419C4.94135 17.946 4.87225 17.9363 4.80712 17.9132C4.74199 17.8902 4.68218 17.8542 4.63122 17.8076C4.4316 17.6082 4.29857 17.3519 4.25042 17.074C4.19028 17.2772 4.06126 17.4533 3.88551 17.5718C3.70975 17.6903 3.49822 17.744 3.28722 17.7236C3.07957 17.6817 2.88673 17.5855 2.72835 17.4448C2.56997 17.3042 2.45171 17.124 2.38562 16.9228C2.25734 16.5196 2.20419 16.0963 2.22882 15.674C2.17717 14.9469 2.26654 14.2167 2.49202 13.5236C2.66702 13.1364 2.88492 12.7701 3.14162 12.4316C3.48004 11.9097 3.85427 11.412 4.26162 10.942C5.2867 9.97099 6.41317 9.113 7.62162 8.38277C8.82562 7.52037 10.416 6.40037 10.92 5.10117C11.0768 4.69237 11.088 4.27797 11.1552 4.21637C11.2224 4.15477 12.0512 4.74837 12.0512 4.74837" fill="#455A64"/>
<path d="M11.167 4.21635L11.2342 4.25555L11.4974 4.42356C11.7214 4.56916 12.0574 4.78755 12.4382 5.06755C13.2278 5.62755 14.2862 6.41715 15.5294 7.19555C16.1042 7.57194 16.7136 7.89259 17.3494 8.15316C17.8733 8.35847 18.4178 8.50679 18.9734 8.59555C19.3436 8.65635 19.7182 8.68632 20.0934 8.68516H20.4406H20.1326C19.7579 8.69305 19.3831 8.66869 19.0126 8.61236C18.4534 8.52598 17.9052 8.37953 17.3774 8.17555C16.7364 7.91859 16.1229 7.59778 15.5462 7.21795C14.2974 6.43955 13.239 5.63316 12.4606 5.07316L11.531 4.41795L11.2734 4.24436L11.2062 4.19955L11.167 4.21635Z" fill="white"/>
<path d="M19.4998 9.48038H19.427L19.1582 9.40198C18.923 9.32918 18.5982 9.23958 18.1614 9.12758C17.6627 9.0033 17.1756 8.83656 16.7054 8.62918C16.1336 8.33167 15.6043 7.95874 15.1318 7.52038C14.1014 6.67478 13.1718 5.90758 12.4886 5.35318L11.6934 4.72038L11.475 4.53558L11.4246 4.49078L11.4862 4.53558L11.7046 4.70918L12.5166 5.35878L15.171 7.50918C15.6327 7.93223 16.1487 8.29192 16.7054 8.57878C17.1724 8.78751 17.6556 8.95793 18.1502 9.08838C18.5702 9.20598 18.9118 9.30118 19.1414 9.37398L19.4102 9.46358H19.4774L19.4998 9.48038Z" fill="white"/>
<path d="M19.841 14.8004H19.8074L19.7178 14.7444C19.645 14.694 19.5274 14.6268 19.3874 14.526C18.985 14.2494 18.6015 13.9463 18.2394 13.6188C18.0098 13.4116 17.769 13.1764 17.5226 12.9076C17.2568 12.6185 17.0064 12.3157 16.7722 12.0004C16.2331 11.287 15.7731 10.5171 15.4002 9.70437C15.193 9.27877 15.0026 8.86437 14.7786 8.48357C14.5619 8.11622 14.3225 7.76274 14.0618 7.42517C13.569 6.77557 13.0762 6.22677 12.6618 5.77317C12.2474 5.31957 11.889 4.96677 11.6482 4.72037L11.3738 4.43477L11.6594 4.70917C11.9058 4.95557 12.2586 5.30837 12.6842 5.75637C13.1837 6.27917 13.6566 6.8268 14.101 7.39717C14.3617 7.73669 14.6011 8.09203 14.8178 8.46117C15.0418 8.84197 15.2378 9.26197 15.445 9.68757C15.8177 10.4793 16.2719 11.23 16.8002 11.9276C17.0466 12.2524 17.2986 12.5436 17.5394 12.8124C17.7802 13.0812 18.0266 13.3164 18.2562 13.5236C18.6114 13.8512 18.9854 14.1578 19.3762 14.442L19.701 14.666L19.7906 14.7276L19.841 14.8004Z" fill="white"/>
<path d="M14.7616 16.4802C14.7628 16.4691 14.7628 16.4578 14.7616 16.4466V16.3458C14.7616 16.2562 14.7616 16.1274 14.7616 15.965C14.7616 15.629 14.7616 15.1474 14.7616 14.5538C14.7616 13.9602 14.7616 13.249 14.6944 12.465C14.6944 12.0674 14.616 11.6586 14.5544 11.2386C14.4841 10.8009 14.3906 10.3673 14.2744 9.93945C14.2744 9.83305 14.2128 9.72105 14.1792 9.61465C14.1456 9.50825 14.1176 9.40185 14.0784 9.30105C14.0056 9.09385 13.9328 8.88665 13.8488 8.69065C13.6808 8.29305 13.4904 7.92905 13.2888 7.57065C12.9136 6.87625 12.5328 6.27705 12.208 5.77865C11.8832 5.28025 11.6032 4.88265 11.4128 4.61385L11.1944 4.30025L11.1384 4.21625L11.2 4.29465C11.256 4.36745 11.3344 4.46825 11.4296 4.60265C11.6256 4.87705 11.9056 5.26905 12.236 5.76185C12.5664 6.25465 12.9528 6.88185 13.356 7.55385C13.5632 7.9166 13.7501 8.2905 13.916 8.67385C14.0056 8.86985 14.0784 9.07705 14.1512 9.28425C14.1904 9.39065 14.224 9.49705 14.2576 9.60905C14.2912 9.72105 14.3248 9.82185 14.3528 9.93385C14.4672 10.3618 14.5588 10.7954 14.6272 11.233C14.6888 11.6586 14.7392 12.073 14.7672 12.465C14.8288 13.249 14.8288 13.9602 14.8232 14.5594C14.8176 15.1586 14.8232 15.6402 14.784 15.9706V16.357V16.4522L14.7616 16.4802Z" fill="white"/>
<path d="M9.04432 17.6282C9.04312 17.617 9.04312 17.6058 9.04432 17.5946V17.4938C9.04432 17.4042 9.09473 17.2754 9.14513 17.1074C9.23473 16.7714 9.38033 16.2898 9.59313 15.7074C9.80593 15.125 10.0635 14.4306 10.3211 13.6522C10.4499 13.2658 10.5731 12.8514 10.6795 12.4202C10.7818 11.9716 10.8566 11.5172 10.9035 11.0594C10.9922 10.1756 11.0333 9.28765 11.0267 8.39942C11.0267 7.58182 11.0267 6.84262 11.0267 6.22102C11.0267 5.59942 11.0547 5.10102 11.0827 4.74822C11.0827 4.57462 11.0827 4.44582 11.1163 4.35062V4.24982V4.21622V4.35062C11.1163 4.44582 11.1163 4.58022 11.0883 4.75382C11.0883 5.09542 11.0883 5.59942 11.0547 6.22102C11.0211 6.84262 11.0547 7.58182 11.0547 8.39942C11.066 9.28946 11.0267 10.1794 10.9371 11.065C10.8911 11.5251 10.8144 11.9816 10.7075 12.4314C10.6067 12.8682 10.4779 13.2826 10.3491 13.669C10.0859 14.4474 9.81712 15.1362 9.60432 15.7186C9.39152 16.301 9.23473 16.777 9.13953 17.113C9.08913 17.2754 9.06113 17.4098 9.03313 17.4938L9.00513 17.5946C9.01975 17.6039 9.03295 17.6152 9.04432 17.6282Z" fill="white"/>
<path d="M10.5841 15.9708C10.5841 15.9708 10.5841 15.9148 10.5841 15.814C10.5841 15.7132 10.6289 15.562 10.6569 15.3772C10.7129 15.0132 10.7689 14.5092 10.7969 13.9436C10.8249 13.378 10.8249 12.8684 10.7969 12.4988V12.062C10.7932 12.0079 10.7932 11.9536 10.7969 11.8996C10.804 11.9535 10.804 12.0081 10.7969 12.062C10.7969 12.1628 10.7969 12.314 10.7969 12.4988C10.7969 12.8684 10.7969 13.378 10.7969 13.9436C10.7749 14.428 10.7225 14.9105 10.6401 15.3884C10.6065 15.5676 10.5785 15.7132 10.5505 15.814C10.5686 15.8645 10.5799 15.9172 10.5841 15.9708Z" fill="white"/>
<path d="M6.63599 14.6659L6.69198 14.5875L6.85439 14.3803C6.92719 14.2907 7.01118 14.1787 7.10638 14.0499C7.20158 13.9211 7.31918 13.7699 7.43678 13.6019C7.67758 13.2715 7.94638 12.8683 8.24318 12.4091C8.53998 11.9499 8.83678 11.4403 9.14478 10.8971C9.45278 10.3539 9.70478 9.82193 9.96238 9.33473C10.22 8.84753 10.4048 8.40513 10.5672 8.02433C10.6512 7.83953 10.724 7.66593 10.7856 7.51473C10.8472 7.36353 10.8976 7.23473 10.9424 7.12833L11.0376 6.88753L11.0768 6.80353C11.0768 6.80353 11.0768 6.83153 11.0488 6.88753L10.9592 7.13953C10.9256 7.24593 10.8752 7.37473 10.8136 7.52593C10.752 7.67713 10.6848 7.85073 10.6008 8.04113C10.444 8.42193 10.2424 8.86433 10.0072 9.35713C9.77198 9.84993 9.49758 10.3763 9.19518 10.9251C8.89278 11.4739 8.57918 11.9835 8.28238 12.4371C7.98558 12.8907 7.72238 13.2995 7.46478 13.6243C7.34718 13.7923 7.22958 13.9379 7.12878 14.0667C7.02798 14.1955 6.94399 14.3075 6.87119 14.3971L6.69759 14.5987L6.63599 14.6659Z" fill="white"/>
<path d="M2.85052 16.805C2.81755 16.7604 2.78761 16.7136 2.76091 16.665C2.74811 16.6377 2.73314 16.6115 2.71612 16.5866L2.67692 16.4858L2.62652 16.3738C2.61014 16.3319 2.59703 16.2889 2.58731 16.245C2.5202 16.0287 2.48069 15.8048 2.46972 15.5786C2.45292 15.3036 2.46606 15.0276 2.50892 14.7554C2.58565 14.2594 2.74664 13.7803 2.98492 13.3386C3.02972 13.2546 3.07452 13.1818 3.11372 13.1146L3.22571 12.9522L3.32652 12.8234C3.30489 12.8753 3.27665 12.9243 3.24251 12.969C3.20268 13.019 3.16885 13.0735 3.14172 13.1314C3.10252 13.1986 3.05772 13.2714 3.01852 13.3554C2.79515 13.7995 2.64212 14.2755 2.56492 14.7666C2.52127 15.0349 2.50439 15.3069 2.51452 15.5786C2.52827 15.8 2.56391 16.0194 2.62091 16.2338C2.68292 16.4297 2.75968 16.6207 2.85052 16.805Z" fill="white"/>
<path d="M4.63687 17.4492C4.56072 17.3402 4.50913 17.2161 4.48567 17.0852C4.45432 16.9564 4.45432 16.822 4.48567 16.6932C4.48567 16.6932 4.51367 16.8668 4.55847 17.074C4.60327 17.2812 4.64807 17.4436 4.63687 17.4492Z" fill="white"/>
<path d="M6.08762 19.4762C6.08762 19.4762 6.05963 19.4762 6.02043 19.4258C5.97128 19.3797 5.92455 19.3311 5.88043 19.2802C5.81407 19.1865 5.75599 19.0872 5.70683 18.9834C5.64697 18.8584 5.60187 18.7268 5.57243 18.5914C5.54178 18.4535 5.52675 18.3126 5.52762 18.1714C5.53039 18.0584 5.54352 17.946 5.56683 17.8354C5.58292 17.759 5.60539 17.6841 5.63403 17.6114L5.66762 17.5386C5.66762 17.5386 5.66762 17.6506 5.60602 17.841C5.58716 17.9501 5.57779 18.0607 5.57803 18.1714C5.58278 18.3086 5.59775 18.4452 5.62282 18.5802C5.65474 18.7124 5.69784 18.8417 5.75163 18.9666C5.79633 19.0686 5.8507 19.1662 5.91403 19.2578C6.00923 19.3866 6.09322 19.4706 6.08762 19.4762Z" fill="white"/>
<path d="M8.74155 20.8483C8.61417 20.7752 8.5184 20.6575 8.47276 20.5179C8.42119 20.3807 8.42119 20.2295 8.47276 20.0923C8.48392 20.2292 8.51021 20.3644 8.55116 20.4955C8.60214 20.6194 8.66595 20.7377 8.74155 20.8483Z" fill="white"/>
<path d="M12.3148 19.8404C12.3148 19.8404 12.2476 19.8012 12.1804 19.7004C12.089 19.5713 12.026 19.4243 11.9956 19.2692C11.964 19.1158 11.964 18.9577 11.9956 18.8044C12.0069 18.7393 12.0296 18.6767 12.0628 18.6196C12.0628 18.6196 12.0628 18.6924 12.0348 18.81C12.0046 18.9578 12.0046 19.1102 12.0348 19.258C12.0628 19.4067 12.1178 19.5491 12.1972 19.678C12.27 19.7956 12.3204 19.8404 12.3148 19.8404Z" fill="white"/>
<path d="M13.5857 20.2435C13.5857 20.2435 13.5857 20.2435 13.5353 20.1819C13.4912 20.1267 13.4536 20.0665 13.4233 20.0027C13.3721 19.9096 13.3344 19.8096 13.3113 19.7059C13.2478 19.4541 13.2478 19.1905 13.3113 18.9387C13.3338 18.8345 13.3676 18.7331 13.4121 18.6363C13.4404 18.572 13.4742 18.5101 13.5129 18.4515L13.5633 18.3899C13.5633 18.3899 13.5129 18.4851 13.4457 18.6531C13.4081 18.7471 13.38 18.8447 13.3617 18.9443C13.3359 19.0676 13.3246 19.1935 13.3281 19.3195C13.3306 19.4457 13.3457 19.5714 13.3729 19.6947C13.3962 19.795 13.4299 19.8927 13.4737 19.9859C13.5297 20.1483 13.5913 20.2379 13.5857 20.2435Z" fill="white"/>
<g opacity="0.3">
<path d="M5.40974 9.68742C5.29214 10.1186 5.14654 10.5162 5.52734 10.7514C5.90814 10.9866 6.35614 11.0874 6.73694 11.3114C6.9389 11.4067 7.10619 11.5625 7.21558 11.7572C7.32496 11.9519 7.37101 12.1758 7.34734 12.3978C7.29134 12.6554 7.08974 12.8962 7.17374 13.1482C7.57738 12.7948 7.86603 12.3287 8.00254 11.8098L8.95454 12.5154C9.16087 12.6431 9.33215 12.8202 9.45294 13.0306C9.79454 13.7586 8.85934 14.6042 9.15054 15.3546C9.45194 14.8672 9.68201 14.3392 9.83374 13.7866C10.3265 14.3466 9.54814 15.3938 10.0689 15.937C10.1753 15.4274 10.2593 14.9122 10.3265 14.3914C10.8644 15.2324 11.4575 16.0368 12.1017 16.7994C12.2427 17.0065 12.4359 17.1726 12.6617 17.281C13.2217 17.477 13.7817 16.9338 14.1457 16.4522L14.3809 16.9842C14.7001 16.7658 14.6105 16.2674 14.7841 15.9258C14.9684 15.6618 15.2339 15.4652 15.5401 15.3658C16.5929 14.8786 17.7801 14.3802 18.9001 14.8058C18.8532 14.7599 18.8165 14.7045 18.7925 14.6434C18.7685 14.5822 18.7577 14.5167 18.7609 14.4511C18.7641 14.3855 18.7811 14.3213 18.8109 14.2627C18.8407 14.2042 18.8826 14.1526 18.9337 14.1114C19.1534 13.9588 19.4073 13.8627 19.6729 13.8314C20.9671 13.5088 22.1293 12.7927 22.9993 11.7818C23.8841 10.7962 24.4497 9.06022 24.0857 7.98502C23.487 7.80987 22.8671 7.71754 22.2433 7.71062C21.2969 7.71062 14.7617 8.27062 14.7617 8.27062L9.33534 7.39142L5.40974 9.68742Z" fill="black"/>
</g>
<path d="M23.9797 13.5179C24.2373 12.9579 24.2149 10.3987 23.5765 9.87786C22.0757 8.65706 18.4021 9.63706 15.1205 9.31786C11.959 9.02722 8.77097 9.32533 5.71813 10.1971C4.91733 10.4491 2.75572 10.0515 2.20692 10.4379C2.03364 11.287 1.99208 12.1577 2.08372 13.0195C2.09434 13.6228 2.26945 14.2119 2.59017 14.723C2.9109 15.2342 3.36507 15.6482 3.90372 15.9203C6.63331 17.1684 9.59911 17.8158 12.6005 17.8187C15.5237 17.8187 19.7013 17.0571 21.3421 16.2675C22.5384 15.7188 23.4813 14.7359 23.9797 13.5179Z" fill="#FF725E"/>
<path d="M23.8675 10.8243C23.6547 8.39394 19.8075 7.18434 15.1259 6.73634C11.9644 6.44868 8.7769 6.74673 5.7235 7.61554C3.8755 8.20914 2.6883 9.13874 2.2067 10.4155C2.17811 11.0094 2.32138 11.5989 2.61936 12.1134C2.91733 12.6279 3.35736 13.0456 3.8867 13.3163C6.64535 14.613 9.64772 15.3097 12.6955 15.3603C15.6187 15.3603 19.7123 14.4643 21.3531 13.6803C22.9939 12.8963 23.9291 11.4851 23.8675 10.8243Z" fill="#FF725E"/>
<path opacity="0.3" d="M14.7563 7.45319C14.1137 8.55731 13.3754 9.60292 12.5499 10.578C11.8133 11.6223 10.9869 12.6004 10.0803 13.5012C10.7235 12.3956 11.4618 11.3482 12.2867 10.3708C13.0225 9.32747 13.8489 8.35114 14.7563 7.45319Z" fill="black"/>
<path opacity="0.3" d="M18.2563 7.7052C17.6409 8.76073 16.9305 9.75793 16.1339 10.6844C15.423 11.688 14.6227 12.6252 13.7427 13.4844C13.6699 13.4228 14.6219 12.09 15.8651 10.4996C17.1083 8.9092 18.2003 7.6492 18.2563 7.7052Z" fill="black"/>
<path opacity="0.3" d="M21.2747 8.79139C20.871 9.64756 20.3467 10.4415 19.7179 11.149C19.1751 11.9244 18.5224 12.6167 17.7803 13.2042C18.2716 12.4084 18.8339 11.6587 19.4603 10.9642C20.4403 9.72659 21.1963 8.73539 21.2747 8.79139Z" fill="black"/>
<path opacity="0.3" d="M10.433 7.5483C9.95667 8.56811 9.35669 9.52544 8.64656 10.3987C8.01889 11.3374 7.27782 12.1951 6.44016 12.9523C6.36736 12.8907 7.26895 11.6867 8.36095 10.2027C9.45295 8.7187 10.3602 7.5203 10.433 7.5483Z" fill="black"/>
<path opacity="0.3" d="M6.8323 8.3266C6.54632 8.89846 6.18261 9.42801 5.7515 9.9002C5.40672 10.4409 4.9883 10.931 4.5083 11.3562C4.70897 10.7328 5.04127 10.1599 5.4827 9.6762C5.83385 9.1374 6.2935 8.67775 6.8323 8.3266Z" fill="black"/>
<path d="M7.25234 14.089H7.18515L6.99475 14.0386C6.82675 13.9882 6.58595 13.921 6.29475 13.8258C5.95029 13.7107 5.61197 13.578 5.28114 13.4282C4.88079 13.2457 4.50459 13.0144 4.16114 12.7394C3.8134 12.4563 3.51939 12.1129 3.29315 11.7258C3.10945 11.4111 2.98422 11.0658 2.92355 10.7066C2.88323 10.4637 2.88323 10.2159 2.92355 9.97298C2.93346 9.9066 2.94844 9.84107 2.96835 9.77698C2.96835 9.73218 2.96835 9.70978 2.96835 9.70978C2.96835 9.70978 2.96834 9.80498 2.92914 9.97298C2.89074 10.2122 2.89074 10.4561 2.92914 10.6954C2.99633 11.0475 3.12525 11.385 3.30995 11.6922C3.54568 12.0679 3.84732 12.398 4.20035 12.6666C4.54618 12.9382 4.92195 13.1693 5.32035 13.3554C5.68995 13.529 6.03154 13.6578 6.32274 13.7642L7.01155 13.9938L7.20195 14.061L7.25234 14.089Z" fill="white"/>
<path d="M9.31312 14.2404C9.12702 14.261 8.93921 14.261 8.75312 14.2404C8.56523 14.2424 8.37762 14.2255 8.19312 14.19C8.37905 14.1665 8.56718 14.1665 8.75312 14.19C8.94109 14.1854 9.12898 14.2023 9.31312 14.2404Z" fill="white"/>
<path d="M3.96531 15.3212C3.96531 15.3212 3.92051 15.3212 3.85331 15.2652C3.75735 15.2085 3.66563 15.1448 3.57891 15.0748C3.29377 14.8384 3.04968 14.5564 2.85652 14.2404C2.66652 13.924 2.53205 13.5774 2.45891 13.2156C2.4366 13.1066 2.42163 12.9962 2.41411 12.8852C2.40688 12.8444 2.40688 12.8027 2.41411 12.762C2.41411 12.762 2.44211 12.9356 2.50371 13.2044C2.59188 13.5571 2.73151 13.8948 2.91812 14.2068C3.11321 14.5198 3.35709 14.7996 3.64051 15.0356C3.81971 15.2204 3.97091 15.31 3.96531 15.3212Z" fill="white"/>
<path d="M24.9203 8.0802C24.1755 5.2186 21.3083 -0.0173958 12.3091 0.441804C4.18346 0.856204 1.83147 4.8322 0.963467 7.8618C0.442667 9.6762 1.78667 12.157 3.40507 13.1258C5.64507 14.4698 8.44506 14.7722 10.9539 14.9346C14.3344 15.1835 17.7326 14.8501 21.0003 13.949C21.9331 13.712 22.7921 13.2464 23.5 12.5943C24.2078 11.9422 24.7421 11.1241 25.0547 10.2138C25.1496 9.50065 25.1039 8.77581 24.9203 8.0802Z" fill="#EB996E"/>
<path opacity="0.3" d="M8.74194 5.40341C8.59851 5.42547 8.4627 5.48246 8.34649 5.56938C8.23028 5.65629 8.13723 5.77046 8.07554 5.90181C8.04579 5.94362 8.02637 5.99189 8.01887 6.04266C8.01137 6.09342 8.016 6.14524 8.03239 6.19387C8.04879 6.2425 8.07647 6.28655 8.11317 6.32242C8.14987 6.35828 8.19455 6.38494 8.24354 6.40021C8.41154 6.46181 8.63554 6.31061 8.71394 6.10901C8.76954 6.00048 8.80085 5.88115 8.80568 5.7593C8.81052 5.63745 8.78877 5.51601 8.74194 5.40341Z" fill="black"/>
<path opacity="0.3" d="M4.62598 6.26578C4.76655 6.30472 4.91451 6.30875 5.05699 6.27752C5.19947 6.24629 5.33218 6.18074 5.44358 6.08658C5.48739 6.05986 5.52438 6.0233 5.55161 5.97981C5.57883 5.93631 5.59556 5.88707 5.60045 5.83599C5.60534 5.7849 5.59827 5.73338 5.57979 5.68551C5.56131 5.63764 5.53192 5.59473 5.49398 5.56018C5.40749 5.50293 5.30326 5.47878 5.2004 5.49216C5.09755 5.50553 5.00296 5.55552 4.93398 5.63298C4.84049 5.7104 4.76464 5.80691 4.71152 5.91606C4.6584 6.0252 4.62923 6.14444 4.62598 6.26578Z" fill="black"/>
<path opacity="0.3" d="M9.60425 3.24201C9.47606 3.1729 9.3327 3.13672 9.18706 3.13672C9.04142 3.13672 8.89806 3.1729 8.76986 3.24201C8.72121 3.25865 8.67711 3.28641 8.64108 3.32309C8.60505 3.35977 8.57808 3.40436 8.56231 3.4533C8.54654 3.50223 8.54241 3.55418 8.55025 3.605C8.55809 3.65581 8.57767 3.7041 8.60746 3.74601C8.68004 3.81916 8.77643 3.8639 8.87916 3.87212C8.98189 3.88034 9.08416 3.85149 9.16746 3.79081C9.27596 3.73683 9.3713 3.65971 9.44677 3.56489C9.52224 3.47007 9.576 3.35986 9.60425 3.24201Z" fill="black"/>
<path opacity="0.3" d="M12.7009 5.00582C12.665 4.86649 12.595 4.73828 12.4973 4.63271C12.3995 4.52714 12.277 4.44752 12.1409 4.40102C12.0959 4.37623 12.0457 4.36244 11.9944 4.36079C11.9431 4.35915 11.8922 4.36968 11.8457 4.39154C11.7993 4.4134 11.7587 4.44595 11.7272 4.48654C11.6958 4.52712 11.6744 4.57458 11.6649 4.62502C11.6201 4.79862 11.7993 5.00022 12.0121 5.06182C12.1242 5.10223 12.2437 5.11814 12.3626 5.10848C12.4814 5.09882 12.5967 5.06381 12.7009 5.00582Z" fill="black"/>
<path opacity="0.3" d="M10.752 7.15079C10.6436 7.2479 10.5608 7.37025 10.511 7.50701C10.4611 7.64376 10.4458 7.7907 10.4664 7.93479C10.4653 7.9864 10.4764 8.03753 10.4986 8.0841C10.5209 8.13067 10.5538 8.17137 10.5946 8.20295C10.6354 8.23453 10.6831 8.2561 10.7338 8.26594C10.7844 8.27577 10.8367 8.2736 10.8864 8.25959C10.9782 8.21488 11.0514 8.13942 11.0934 8.04632C11.1353 7.95322 11.1433 7.84837 11.116 7.74999C11.1035 7.62937 11.0644 7.51303 11.0015 7.40939C10.9385 7.30576 10.8533 7.21742 10.752 7.15079Z" fill="black"/>
<path opacity="0.3" d="M14.6947 5.68338C14.611 5.80256 14.558 5.94056 14.5404 6.08514C14.5228 6.22972 14.5412 6.37641 14.5939 6.51218C14.6035 6.56262 14.6248 6.61007 14.6563 6.65066C14.6877 6.69124 14.7283 6.7238 14.7747 6.74566C14.8212 6.76751 14.8722 6.77805 14.9235 6.7764C14.9748 6.77476 15.025 6.76097 15.0699 6.73618C15.2267 6.66338 15.2715 6.40018 15.1819 6.17618C15.1411 6.06374 15.0764 5.96148 14.9923 5.87642C14.9082 5.79135 14.8067 5.7255 14.6947 5.68338Z" fill="black"/>
<path opacity="0.3" d="M19.2362 7.83392C19.1889 7.69826 19.109 7.57628 19.0035 7.47865C18.8981 7.38103 18.7703 7.31073 18.6314 7.27392C18.5848 7.2525 18.5339 7.24223 18.4826 7.24392C18.4313 7.24562 18.3811 7.25924 18.336 7.28369C18.2909 7.30814 18.2521 7.34276 18.2227 7.3848C18.1933 7.42685 18.1741 7.47516 18.1666 7.52592C18.1386 7.69952 18.3234 7.89552 18.5362 7.94032C18.6534 7.97618 18.7772 7.98524 18.8983 7.96682C19.0195 7.9484 19.135 7.90298 19.2362 7.83392Z" fill="black"/>
<path opacity="0.3" d="M20.5521 5.84019C20.5872 5.69955 20.5871 5.55245 20.5519 5.41184C20.5168 5.27123 20.4476 5.14141 20.3505 5.03379C20.3237 4.98975 20.2867 4.95274 20.2427 4.92584C20.1987 4.89893 20.1489 4.8829 20.0974 4.87907C20.046 4.87524 19.9943 4.88372 19.9468 4.90381C19.8993 4.9239 19.8572 4.95502 19.8241 4.99459C19.7664 5.08225 19.7436 5.18835 19.7602 5.292C19.7767 5.39565 19.8315 5.48933 19.9137 5.55459C19.9919 5.64707 20.0899 5.72076 20.2004 5.7702C20.3109 5.81964 20.4311 5.84356 20.5521 5.84019Z" fill="black"/>
<path opacity="0.3" d="M17.0186 3.60017C17.1157 3.70858 17.238 3.79137 17.3748 3.84119C17.5115 3.89101 17.6585 3.90632 17.8026 3.88577C17.8535 3.88658 17.904 3.87558 17.9501 3.85363C17.9961 3.83167 18.0364 3.79936 18.0679 3.75923C18.0993 3.71909 18.1211 3.67222 18.1314 3.62228C18.1417 3.57234 18.1403 3.52069 18.1274 3.47137C18.0855 3.37823 18.0116 3.30323 17.9191 3.26005C17.8266 3.21688 17.7216 3.2084 17.6234 3.23617C17.5022 3.24932 17.3853 3.2887 17.2809 3.35156C17.1764 3.41441 17.0869 3.49925 17.0186 3.60017Z" fill="black"/>
<path opacity="0.3" d="M12.2197 2.609C12.3168 2.71741 12.4392 2.8002 12.5759 2.85002C12.7127 2.89984 12.8596 2.91515 13.0037 2.8946C13.0551 2.8966 13.1062 2.88639 13.1528 2.8648C13.1995 2.84321 13.2403 2.81086 13.272 2.77041C13.3037 2.72996 13.3254 2.68255 13.3352 2.6321C13.345 2.58165 13.3427 2.52959 13.3285 2.4802C13.2893 2.3066 13.0429 2.2058 12.8245 2.245C12.7033 2.25816 12.5865 2.29753 12.482 2.36039C12.3776 2.42324 12.2881 2.50808 12.2197 2.609Z" fill="black"/>
<path d="M8.74194 5.11221C8.59851 5.13427 8.4627 5.19126 8.34649 5.27818C8.23028 5.36509 8.13723 5.47926 8.07554 5.61061C8.04579 5.65242 8.02637 5.70069 8.01887 5.75146C8.01137 5.80222 8.016 5.85404 8.03239 5.90267C8.04879 5.9513 8.07647 5.99535 8.11317 6.03122C8.14987 6.06708 8.19455 6.09374 8.24354 6.10901C8.41154 6.17061 8.63554 6.01941 8.71394 5.81781C8.76954 5.70928 8.80085 5.58995 8.80568 5.4681C8.81052 5.34625 8.78877 5.22481 8.74194 5.11221Z" fill="white"/>
<path d="M4.62598 5.97461C4.76655 6.01355 4.91451 6.01758 5.05699 5.98635C5.19947 5.95512 5.33218 5.88958 5.44358 5.79541C5.48739 5.76869 5.52438 5.73214 5.55161 5.68864C5.57883 5.64514 5.59556 5.5959 5.60045 5.54482C5.60534 5.49373 5.59827 5.44221 5.57979 5.39434C5.56131 5.34647 5.53192 5.30356 5.49398 5.26901C5.40749 5.21177 5.30326 5.18762 5.2004 5.20099C5.09755 5.21436 5.00296 5.26435 4.93398 5.34181C4.84049 5.41923 4.76464 5.51575 4.71152 5.62489C4.6584 5.73403 4.62923 5.85327 4.62598 5.97461Z" fill="white"/>
<path d="M9.60425 2.95081C9.47606 2.8817 9.3327 2.84552 9.18706 2.84552C9.04142 2.84552 8.89806 2.8817 8.76986 2.95081C8.72121 2.96745 8.67711 2.99522 8.64108 3.0319C8.60505 3.06858 8.57808 3.11316 8.56231 3.1621C8.54654 3.21104 8.54241 3.26298 8.55025 3.3138C8.55809 3.36461 8.57767 3.4129 8.60746 3.45481C8.68004 3.52797 8.77643 3.5727 8.87916 3.58092C8.98189 3.58914 9.08416 3.56029 9.16746 3.49961C9.27596 3.44563 9.3713 3.36852 9.44677 3.2737C9.52224 3.17888 9.576 3.06866 9.60425 2.95081Z" fill="white"/>
<path d="M12.7012 4.72036C12.6653 4.58103 12.5953 4.45282 12.4976 4.34725C12.3998 4.24168 12.2774 4.16206 12.1412 4.11556C12.0963 4.09076 12.0461 4.07698 11.9948 4.07533C11.9435 4.07368 11.8925 4.08422 11.8461 4.10608C11.7996 4.12794 11.759 4.16049 11.7276 4.20108C11.6961 4.24166 11.6748 4.28912 11.6652 4.33956C11.626 4.51316 11.7996 4.71476 12.0124 4.77636C12.1246 4.81677 12.2441 4.83268 12.3629 4.82302C12.4817 4.81336 12.5971 4.77835 12.7012 4.72036Z" fill="white"/>
<path d="M10.752 6.85959C10.6436 6.9567 10.5608 7.07905 10.511 7.21581C10.4611 7.35257 10.4458 7.4995 10.4664 7.64359C10.4665 7.69482 10.4783 7.74536 10.5009 7.79134C10.5235 7.83731 10.5563 7.87751 10.5968 7.90885C10.6374 7.94019 10.6845 7.96185 10.7347 7.97217C10.7849 7.98249 10.8368 7.9812 10.8864 7.96839C10.977 7.92386 11.0494 7.84932 11.0913 7.75743C11.1331 7.66554 11.1419 7.56199 11.116 7.46439C11.104 7.3429 11.0651 7.2256 11.0021 7.12099C10.9391 7.01639 10.8537 6.9271 10.752 6.85959Z" fill="white"/>
<path d="M14.7003 5.39221C14.6152 5.51069 14.5609 5.64848 14.5423 5.79316C14.5237 5.93785 14.5415 6.08488 14.5939 6.22101C14.6034 6.27145 14.6248 6.31891 14.6562 6.35949C14.6877 6.40007 14.7283 6.43263 14.7747 6.45449C14.8211 6.47635 14.8721 6.48688 14.9234 6.48524C14.9747 6.48359 15.0249 6.4698 15.0699 6.44501C15.1545 6.38219 15.2133 6.29052 15.2349 6.18733C15.2566 6.08414 15.2397 5.97659 15.1875 5.88501C15.1457 5.77312 15.0806 5.67135 14.9967 5.58641C14.9127 5.50147 14.8117 5.43529 14.7003 5.39221Z" fill="white"/>
<path d="M19.2362 7.52029C19.1889 7.38463 19.109 7.26265 19.0035 7.16502C18.8981 7.06739 18.7703 6.9971 18.6314 6.96029C18.5848 6.93887 18.5339 6.9286 18.4826 6.9303C18.4313 6.93199 18.3811 6.9456 18.336 6.97006C18.2909 6.99451 18.2521 7.02913 18.2227 7.07117C18.1933 7.11322 18.1741 7.16153 18.1666 7.21229C18.1386 7.38589 18.3234 7.58189 18.5362 7.62669C18.6534 7.66255 18.7772 7.67161 18.8983 7.65319C19.0195 7.63477 19.135 7.58935 19.2362 7.52029Z" fill="white"/>
<path d="M20.5524 5.53239C20.5874 5.39175 20.5873 5.24465 20.5522 5.10404C20.517 4.96343 20.4479 4.83361 20.3508 4.72599C20.3239 4.68195 20.2869 4.64494 20.2429 4.61804C20.1989 4.59113 20.1491 4.5751 20.0977 4.57127C20.0462 4.56744 19.9946 4.57592 19.9471 4.59601C19.8995 4.6161 19.8575 4.64722 19.8244 4.68679C19.7666 4.77445 19.7438 4.88055 19.7604 4.9842C19.777 5.08784 19.8318 5.18153 19.914 5.24679C19.9921 5.33926 20.0901 5.41296 20.2006 5.4624C20.3111 5.51184 20.4314 5.53576 20.5524 5.53239Z" fill="white"/>
<path d="M17.0186 3.29231C17.1157 3.40072 17.238 3.48351 17.3748 3.53333C17.5115 3.58315 17.6585 3.59846 17.8026 3.57791C17.8535 3.57872 17.904 3.56772 17.9501 3.54577C17.9961 3.52381 18.0364 3.4915 18.0679 3.45137C18.0993 3.41123 18.1211 3.36436 18.1314 3.31442C18.1417 3.26448 18.1403 3.21283 18.1274 3.16351C18.0855 3.07037 18.0116 2.99537 17.9191 2.95219C17.8266 2.90901 17.7216 2.90054 17.6234 2.92831C17.5022 2.94146 17.3853 2.98084 17.2809 3.04369C17.1764 3.10655 17.0869 3.19138 17.0186 3.29231Z" fill="white"/>
<path d="M12.2197 2.3178C12.3168 2.42621 12.4392 2.509 12.5759 2.55882C12.7127 2.60864 12.8596 2.62395 13.0037 2.6034C13.0551 2.60541 13.1062 2.59519 13.1528 2.5736C13.1995 2.55201 13.2403 2.51966 13.272 2.47921C13.3037 2.43876 13.3254 2.39136 13.3352 2.3409C13.345 2.29045 13.3427 2.23839 13.3285 2.189C13.2893 2.0154 13.0429 1.9146 12.8245 1.9538C12.7033 1.96696 12.5865 2.00633 12.482 2.06919C12.3776 2.13204 12.2881 2.21688 12.2197 2.3178Z" fill="white"/>
<path d="M18.3069 14.6042H18.2565H18.1108C17.982 14.6042 17.7916 14.6546 17.5508 14.6826C17.0636 14.7498 16.3468 14.8282 15.4676 14.8898C14.5884 14.9514 13.5301 14.9906 12.3597 14.9794C11.7997 14.9794 11.1613 14.9794 10.5285 14.929C9.89565 14.8786 9.23485 14.8618 8.56285 14.7722C7.89085 14.6826 7.24125 14.565 6.61965 14.425C6.31165 14.3522 6.00925 14.2794 5.71245 14.1842C5.42672 14.0957 5.14626 13.991 4.87245 13.8706C4.3609 13.6537 3.86986 13.3913 3.40525 13.0866C2.99071 12.8345 2.61368 12.5253 2.28525 12.1682C1.82103 11.6411 1.45669 11.0339 1.21005 10.3762C1.1139 10.1377 1.03529 9.89254 0.974854 9.64261C0.974854 9.64261 0.974854 9.64261 0.974854 9.69301L1.01965 9.83301C1.05885 9.95621 1.12045 10.1354 1.21005 10.393C1.46816 11.0407 1.83564 11.6393 2.29645 12.1626C2.62641 12.5134 3.00331 12.8168 3.41645 13.0642C3.88119 13.3638 4.37009 13.6242 4.87805 13.8426C5.14685 13.9546 5.43805 14.061 5.71805 14.1506C6.01444 14.2441 6.31536 14.3226 6.61965 14.3858C7.24125 14.5258 7.88525 14.649 8.55725 14.733C9.22925 14.817 9.87885 14.8562 10.5117 14.8898C11.1445 14.9234 11.7604 14.9402 12.3428 14.9458C13.5132 14.9458 14.5829 14.9458 15.4453 14.8674C16.3077 14.789 17.0412 14.7386 17.534 14.6826L18.094 14.621H18.2397L18.3069 14.6042Z" fill="#263238"/>
<path d="M21.3978 12.1402L21.213 12.2298C21.0954 12.2858 20.9162 12.3586 20.6922 12.4426C19.5347 12.8739 18.3148 13.1141 17.0802 13.1538C17.6949 13.1206 18.3068 13.0458 18.9114 12.9298C19.5155 12.8109 20.1105 12.6499 20.6922 12.4482L21.2186 12.2578C21.2731 12.2111 21.3333 12.1716 21.3978 12.1402Z" fill="#263238"/>
<g opacity="0.3">
<path d="M7.29133 7.15079C7.38224 7.15266 7.46947 7.18701 7.53726 7.24761C7.60504 7.3082 7.64891 7.39106 7.66093 7.48119C7.66255 7.57222 7.63199 7.6609 7.57461 7.73159C7.51724 7.80228 7.43675 7.85045 7.34733 7.86759C7.25628 7.87499 7.16567 7.84893 7.09247 7.79429C7.01927 7.73965 6.96852 7.66018 6.94973 7.57079C6.93597 7.48066 6.95651 7.38865 7.00733 7.31296C7.05814 7.23726 7.1355 7.18338 7.22413 7.16199" fill="black"/>
</g>
<g opacity="0.3">
<path d="M7.28529 3.60037C7.35398 3.59818 7.42186 3.61579 7.48083 3.65109C7.5398 3.6864 7.58737 3.73791 7.61788 3.7995C7.64839 3.86108 7.66054 3.93014 7.6529 3.99845C7.64526 4.06675 7.61814 4.13141 7.57477 4.18473C7.53141 4.23805 7.47362 4.27778 7.40831 4.29918C7.343 4.32058 7.2729 4.32274 7.20639 4.30542C7.13988 4.2881 7.07976 4.25202 7.03318 4.20148C6.9866 4.15094 6.95554 4.08807 6.94369 4.02037C6.93122 3.93042 6.9523 3.83903 7.00291 3.76363C7.05352 3.68823 7.13012 3.6341 7.21809 3.61157" fill="black"/>
</g>
<g opacity="0.3">
<path d="M21.1239 6.68594C21.2672 6.69962 21.3997 6.76792 21.4939 6.87667C21.5882 6.98543 21.637 7.12629 21.6301 7.27004C21.6233 7.41379 21.5613 7.54939 21.4572 7.6487C21.353 7.74801 21.2147 7.80341 21.0707 7.80341C20.9268 7.80341 20.7884 7.74801 20.6843 7.6487C20.5801 7.54939 20.5182 7.41379 20.5114 7.27004C20.5045 7.12629 20.5533 6.98543 20.6475 6.87667C20.7418 6.76792 20.8743 6.69962 21.0175 6.68594" fill="black"/>
</g>
<g opacity="0.3">
<path d="M15.1422 3.16319C15.205 3.17507 15.2621 3.20723 15.3047 3.25473C15.3474 3.30224 15.3733 3.36245 15.3784 3.4261C15.3835 3.48974 15.3675 3.5533 15.3329 3.60699C15.2983 3.66067 15.2471 3.7015 15.187 3.72319C15.1125 3.73153 15.0375 3.71133 14.9773 3.66665C14.917 3.62198 14.8759 3.55615 14.8622 3.48239C14.8516 3.40863 14.8686 3.33354 14.9099 3.27152C14.9513 3.20951 15.014 3.16495 15.0862 3.14639" fill="black"/>
</g>
<g opacity="0.3">
<path d="M8.24316 8.17551C8.22638 8.1837 8.2115 8.1953 8.19945 8.20956C8.1874 8.22383 8.17845 8.24045 8.17318 8.25836C8.16791 8.27627 8.16644 8.29509 8.16885 8.31361C8.17125 8.33212 8.17749 8.34993 8.18716 8.36591C8.19806 8.38094 8.21238 8.39318 8.22893 8.40162C8.24547 8.41006 8.26378 8.41446 8.28236 8.41446C8.30093 8.41446 8.31925 8.41006 8.3358 8.40162C8.35235 8.39318 8.36666 8.38094 8.37757 8.36591C8.41117 8.29871 8.31596 8.15311 8.24316 8.17551Z" fill="black"/>
</g>
<path d="M5.32005 2.81079L5.26405 2.84999L5.10725 2.94519L4.86085 3.10199L4.54165 3.32039C4.42965 3.40439 4.30085 3.49959 4.17205 3.60599C4.04325 3.71239 3.90885 3.82999 3.76885 3.95879C3.46812 4.23733 3.18743 4.53674 2.92885 4.85479C2.67535 5.17898 2.44339 5.51945 2.23445 5.87399C2.14485 6.03639 2.05525 6.19319 1.98245 6.34439C1.90965 6.49559 1.84245 6.63559 1.78645 6.76999C1.73045 6.90439 1.68565 7.02199 1.64085 7.12839C1.59605 7.23479 1.56805 7.32439 1.54565 7.40279L1.48405 7.57639C1.48405 7.61559 1.48405 7.63799 1.45605 7.63799C1.45724 7.61561 1.45724 7.59318 1.45605 7.57079L1.50645 7.39719C1.50645 7.31879 1.55685 7.22359 1.59605 7.11719C1.63525 7.01079 1.67445 6.88199 1.73045 6.75319C1.78645 6.62439 1.84245 6.47319 1.92085 6.32199C1.99925 6.17079 2.07765 6.00839 2.16725 5.84039C2.37419 5.48149 2.6082 5.1389 2.86725 4.81559C3.1277 4.49392 3.41026 4.19078 3.71285 3.90839C3.85845 3.78519 3.99285 3.66199 4.12725 3.56119C4.26165 3.46039 4.38485 3.36519 4.50245 3.28119C4.62005 3.19719 4.73205 3.12999 4.83285 3.06839C4.93365 3.00679 5.01205 2.96199 5.08485 2.92279L5.24725 2.83879L5.32005 2.81079Z" fill="white"/>
<path d="M6.63072 2.22263C6.53357 2.30198 6.42377 2.36445 6.30592 2.40742C6.11552 2.49702 5.95873 2.55303 5.95312 2.53063C6.04795 2.44793 6.15839 2.38509 6.27793 2.34582C6.38719 2.28394 6.50668 2.24221 6.63072 2.22263Z" fill="white"/>
</svg>
