<svg width="25" height="25" viewBox="0 0 25 25" fill="none" xmlns="http://www.w3.org/2000/svg">
<path d="M8.64673 1.16251L15.2211 7.83772C16.9037 6.85245 18.3536 5.51528 19.4715 3.91772C16.1933 2.00177 12.442 1.04697 8.64673 1.16251Z" fill="#FF725E"/>
<path d="M1.59644 10.7551C1.95757 12.8337 2.84217 14.786 4.16683 16.4279C4.40631 16.7679 4.74454 17.0259 5.13564 17.1671C5.37561 17.2131 5.62319 17.1994 5.85659 17.1271C6.08999 17.0548 6.30204 16.9263 6.47403 16.7527C6.81435 16.3995 7.09435 15.9927 7.30284 15.5487L1.59644 10.7551Z" fill="#FF725E"/>
<path d="M15.8542 14.5128L13.995 15.8008C13.2168 17.0993 12.8574 18.6059 12.9656 20.1158C13.0738 21.6257 13.6444 23.0657 14.5998 24.24C15.6395 23.3651 16.4154 22.2182 16.8406 20.9276C17.2659 19.637 17.3238 18.2536 17.0078 16.932C18.4256 17.3563 19.9419 17.3162 21.3352 16.8175C22.7286 16.3187 23.926 15.3876 24.7526 14.16C23.3497 13.501 21.809 13.1891 20.2603 13.2505C18.7116 13.3119 17.2004 13.7448 15.8542 14.5128Z" fill="#FF725E"/>
<path d="M1.21594 0.910349C1.21594 0.910349 10.0135 -1.11125 14.8911 4.16955C19.7687 9.45035 15.5463 15.6832 15.5463 15.6832C15.5463 15.6832 9.15114 18.0968 4.06634 14.1712C-1.01846 10.2456 1.21594 0.910349 1.21594 0.910349Z" fill="#FF725E"/>
<path d="M5.55018 2.39997C5.46349 2.33864 5.3645 2.29686 5.26008 2.27752C5.15566 2.25818 5.0483 2.26175 4.94539 2.28797C4.84248 2.3199 4.74848 2.37552 4.67098 2.45037C4.5922 2.52687 4.53147 2.61997 4.49318 2.72288C4.45488 2.8258 4.44 2.93596 4.44961 3.04535C4.45922 3.15474 4.49308 3.26061 4.54873 3.35528C4.60439 3.44994 4.68042 3.53101 4.77133 3.59261C4.86224 3.65421 4.96573 3.69478 5.07428 3.71138C5.18283 3.72797 5.29371 3.72016 5.39887 3.68854C5.50403 3.65691 5.60081 3.60225 5.6822 3.52853C5.76359 3.45482 5.82754 3.36389 5.86939 3.26237C5.90868 3.17253 5.92595 3.07462 5.91978 2.97677C5.90883 2.85807 5.86955 2.74373 5.80523 2.64336C5.74092 2.54299 5.65345 2.45952 5.55018 2.39997Z" fill="#263238"/>
<path d="M15.7588 12.7713C15.782 12.3556 15.8344 11.9421 15.9156 11.5337C16.0089 10.5496 15.9197 9.55665 15.6524 8.60491C15.374 7.65703 14.92 6.7699 14.314 5.98971C14.0308 5.68599 13.7653 5.36626 13.5188 5.0321C13.9052 5.21609 14.2443 5.48621 14.51 5.82171C15.2058 6.59148 15.7183 7.50872 16.0093 8.50472C16.3002 9.50071 16.362 10.5496 16.19 11.5729C16.1381 11.9997 15.9907 12.4093 15.7588 12.7713Z" fill="white"/>
<path d="M11.4583 3.60396C11.3799 3.67116 11.2399 3.60397 11.1447 3.51997C11.1009 3.4802 11.0732 3.42566 11.067 3.36678C11.0608 3.3079 11.0765 3.24879 11.1111 3.20076C11.1895 3.13356 11.3295 3.17277 11.4247 3.28477C11.5199 3.39677 11.5367 3.51996 11.4583 3.60396Z" fill="white"/>
<path d="M10.086 1.22394L10.422 1.33034L10.8252 1.46474L11.3572 1.69434C12.4798 2.20963 13.5078 2.91007 14.398 3.76634C15.0207 4.35103 15.5835 4.99636 16.078 5.69274C16.6408 6.50285 17.014 7.4292 17.17 8.40314C17.3464 9.47299 17.3464 10.5645 17.17 11.6343C16.8915 12.761 16.5456 13.87 16.134 14.9551C16.0724 15.1343 16.0052 15.3079 15.9492 15.4703C13.9603 16.3991 11.7459 16.7354 9.57083 16.4391C7.79917 16.23 6.11837 15.5406 4.71003 14.4455C3.7439 13.7509 2.90309 12.8968 2.22363 11.9199C1.9803 11.5669 1.77033 11.1919 1.59644 10.7999C1.59644 10.7999 1.65804 10.9007 1.75884 11.0967C1.91112 11.3805 2.07939 11.6553 2.26284 11.9199C2.93137 12.8977 3.75847 13.757 4.71003 14.4623C6.11357 15.536 7.78169 16.2094 9.53723 16.4111C11.6903 16.6965 13.8801 16.3604 15.8484 15.4423L15.8204 15.4759C15.882 15.3135 15.9436 15.1343 16.0108 14.9607C16.4148 13.8811 16.7588 12.7799 17.0412 11.6623C17.2114 10.6033 17.2114 9.52382 17.0412 8.46474C16.8922 7.50559 16.5285 6.59247 15.9772 5.79354C15.4919 5.09986 14.9385 4.4564 14.3252 3.87274C13.443 3.01881 12.4296 2.31171 11.3236 1.77834L10.7972 1.54314L10.394 1.39755C10.198 1.27995 10.086 1.22394 10.086 1.22394Z" fill="#263238"/>
<path d="M14.9804 20.7008C14.959 20.6317 14.9458 20.5602 14.9412 20.488C14.9412 20.3536 14.902 20.1576 14.8908 19.928C14.8387 18.6554 15.0424 17.3853 15.49 16.1928C15.5796 15.9688 15.658 15.784 15.714 15.6328C15.741 15.5685 15.7768 15.5081 15.8204 15.4536C15.8204 15.4536 15.7196 15.7336 15.5684 16.1928C15.3677 16.788 15.216 17.3985 15.1148 18.0184C15.0182 18.6409 14.9713 19.2701 14.9748 19.9C14.9748 20.3984 15.0028 20.6952 14.9804 20.7008Z" fill="#263238"/>
<path d="M20.8883 14.4177C20.8883 14.4177 20.5915 14.4177 20.1155 14.4177C19.5 14.42 18.8864 14.4857 18.2843 14.6137C17.6827 14.741 17.0955 14.9287 16.5315 15.1737C16.1003 15.3697 15.8427 15.5153 15.8315 15.4985C15.8813 15.4496 15.9379 15.4081 15.9995 15.3753C16.1601 15.2741 16.3266 15.1825 16.4979 15.1009C17.0563 14.8236 17.647 14.6167 18.2563 14.4849C18.8683 14.35 19.4949 14.2935 20.1211 14.3169C20.3563 14.3169 20.5523 14.3169 20.6811 14.3617C20.7527 14.3692 20.8227 14.3881 20.8883 14.4177Z" fill="#263238"/>
<path d="M18.7609 15.84C18.7609 15.8792 18.1281 15.6664 17.3217 15.5936C16.5153 15.5208 15.8657 15.5936 15.8601 15.5936C15.9962 15.5408 16.1399 15.5106 16.2857 15.504C16.6339 15.4697 16.9847 15.4697 17.3329 15.504C17.6821 15.5376 18.0272 15.6051 18.3633 15.7056C18.5023 15.7284 18.6366 15.7738 18.7609 15.84Z" fill="#263238"/>
<path d="M7.87995 1.28C7.9381 1.76012 7.91539 2.24659 7.81275 2.7192C7.59471 3.88146 7.00597 4.94178 6.13472 5.74135C5.26347 6.54092 4.15661 7.0367 2.97995 7.1544C2.49832 7.21546 2.00984 7.19463 1.53516 7.0928C2.01198 7.13735 2.49193 7.13735 2.96875 7.0928C4.12135 6.95787 5.20213 6.46323 6.05761 5.67912C6.91309 4.89501 7.49977 3.8613 7.73434 2.7248C7.82681 2.24864 7.87555 1.76503 7.87995 1.28Z" fill="#263238"/>
<path d="M6.45739 8.31918C6.51566 8.37457 6.56481 8.43883 6.60299 8.50958C6.71973 8.68815 6.82269 8.87536 6.91098 9.06958C7.04502 9.36763 7.14641 9.67932 7.21339 9.99918C7.25276 10.1932 7.25276 10.3932 7.21339 10.5872C7.1646 10.8016 7.03913 10.9908 6.86059 11.1192C6.69104 11.2394 6.49405 11.3153 6.28763 11.3397C6.08121 11.3642 5.87195 11.3365 5.67899 11.2592C5.37291 11.1359 5.09902 10.9444 4.8782 10.6992C4.73136 10.5361 4.59482 10.364 4.46939 10.184C4.41803 10.1216 4.37649 10.0517 4.34619 9.97678C4.34619 9.97678 4.55898 10.2512 4.93418 10.6376C5.15397 10.8668 5.4217 11.0446 5.7182 11.1584C5.89418 11.227 6.08437 11.2512 6.27193 11.2287C6.45948 11.2063 6.6386 11.1379 6.79339 11.0296C6.93817 10.9092 7.04451 10.7491 7.09925 10.5689C7.15399 10.3888 7.15473 10.1965 7.10138 10.016C7.03876 9.70378 6.9469 9.39816 6.82699 9.10318C6.63099 8.61038 6.44059 8.32478 6.45739 8.31918Z" fill="#263238"/>
<path d="M8.69713 6.24725C8.75646 6.31345 8.80727 6.38682 8.84834 6.46565C8.96949 6.66988 9.07434 6.88334 9.16194 7.10405C9.29755 7.43151 9.40253 7.77084 9.47554 8.11766C9.54282 8.33101 9.5656 8.55589 9.54248 8.7784C9.51937 9.0009 9.45083 9.2163 9.34113 9.41126C9.2707 9.50905 9.17939 9.58994 9.07381 9.64806C8.96823 9.70617 8.85103 9.74006 8.73073 9.74725C8.51528 9.75135 8.30143 9.70935 8.10354 9.62405C7.77242 9.47851 7.46178 9.29024 7.17954 9.06405C6.99131 8.91803 6.81698 8.75494 6.65874 8.57686C6.59524 8.51359 6.5406 8.442 6.49634 8.36405C6.72915 8.5882 6.97405 8.79945 7.22994 8.99686C7.51295 9.19925 7.81946 9.36661 8.14274 9.49526C8.32057 9.56727 8.51089 9.60343 8.70274 9.60166C8.80563 9.59714 8.90611 9.56904 8.99641 9.51952C9.08671 9.47 9.16442 9.40039 9.22354 9.31606C9.32282 9.13354 9.38484 8.93312 9.40599 8.72643C9.42714 8.51973 9.40699 8.3109 9.34674 8.11205C9.2804 7.76913 9.18676 7.43206 9.06674 7.10405C8.87634 6.57765 8.68033 6.25845 8.69713 6.24725Z" fill="#263238"/>
<path d="M10.2539 4.42725C10.3282 4.4675 10.3961 4.51845 10.4555 4.57845C10.6278 4.73412 10.7819 4.90884 10.9147 5.09925C11.116 5.37848 11.2745 5.68611 11.3851 6.01205C11.5486 6.41614 11.5486 6.86795 11.3851 7.27205C11.3307 7.37749 11.2511 7.46791 11.1535 7.5353C11.0558 7.60269 10.943 7.64499 10.8251 7.65845C10.6144 7.67084 10.4041 7.62839 10.2147 7.53525C9.9015 7.39163 9.61096 7.20297 9.35233 6.97525C9.17792 6.82285 9.01852 6.65408 8.87633 6.47125C8.82144 6.40608 8.77444 6.33465 8.73633 6.25845C8.73633 6.25845 8.96033 6.54405 9.40273 6.90805C9.66376 7.11936 9.9496 7.29801 10.2539 7.44005C10.4283 7.52322 10.6212 7.55987 10.8139 7.54645C10.9116 7.53298 11.0045 7.49583 11.0845 7.43825C11.1646 7.38066 11.2293 7.30438 11.2731 7.21605C11.4272 6.84112 11.4272 6.42058 11.2731 6.04565C11.1713 5.72679 11.0263 5.42343 10.8419 5.14405C10.6646 4.89041 10.468 4.65077 10.2539 4.42725Z" fill="#263238"/>
<path d="M8.99999 9.67999C9.0362 9.73552 9.06447 9.79584 9.08398 9.8592C9.14666 10.0233 9.19721 10.1917 9.23519 10.3632C9.29555 10.6205 9.33116 10.8831 9.34158 11.1472C9.35848 11.3154 9.33181 11.4852 9.26414 11.6401C9.19647 11.7951 9.09009 11.93 8.95519 12.032C8.87699 12.0793 8.78976 12.1097 8.6991 12.1213C8.60845 12.1328 8.51637 12.1253 8.42879 12.0992C8.27881 12.0533 8.13422 11.9914 7.99758 11.9144C7.76565 11.7858 7.55268 11.6256 7.36478 11.4384C7.23536 11.3159 7.12072 11.1787 7.02319 11.0296C6.98115 10.9801 6.94884 10.9231 6.92798 10.8616C6.92798 10.8616 7.09038 11.0856 7.42078 11.3768C7.61047 11.55 7.82119 11.6986 8.04798 11.8192C8.29438 11.9424 8.60798 12.1104 8.89358 11.9368C9.01142 11.8437 9.10433 11.7229 9.16395 11.5851C9.22357 11.4472 9.24805 11.2968 9.23519 11.1472C9.22921 10.8898 9.20299 10.6333 9.15678 10.38C9.08958 9.96559 8.99999 9.67999 8.99999 9.67999Z" fill="#263238"/>
<path d="M11.1668 7.43997C11.2096 7.49615 11.2471 7.55614 11.2788 7.61918C11.3751 7.78358 11.4611 7.95377 11.5364 8.12877C11.659 8.38687 11.7475 8.65983 11.7996 8.94077C11.8784 9.29318 11.837 9.6618 11.682 9.98797C11.5852 10.1444 11.442 10.2668 11.2724 10.3381C11.1028 10.4093 10.9151 10.4259 10.7356 10.3856C10.4477 10.3335 10.1833 10.1925 9.97964 9.98237C9.84045 9.84748 9.71478 9.69931 9.60443 9.53997C9.55806 9.48742 9.52199 9.42663 9.49805 9.36077C9.49805 9.36077 9.68844 9.59597 10.03 9.92077C10.2301 10.107 10.4785 10.2331 10.7468 10.2848C10.9059 10.319 11.0717 10.3029 11.2212 10.2387C11.3707 10.1745 11.4965 10.0653 11.5812 9.92637C11.7225 9.6241 11.7618 9.28411 11.6932 8.95758C11.6463 8.68303 11.5693 8.41447 11.4636 8.15677C11.2844 7.70317 11.15 7.43997 11.1668 7.43997Z" fill="#263238"/>
<path d="M11.1672 10.2848C11.2138 10.3304 11.2552 10.3811 11.2904 10.436C11.39 10.5791 11.4798 10.7288 11.5592 10.884C11.6829 11.1157 11.7537 11.372 11.7664 11.6344C11.7715 11.7997 11.7411 11.9642 11.6774 12.1168C11.6136 12.2694 11.518 12.4066 11.3968 12.5192C11.2625 12.619 11.1042 12.6814 10.938 12.7001C10.7717 12.7188 10.6035 12.6931 10.4504 12.6256C10.208 12.5256 9.98301 12.3876 9.784 12.2168C9.616 12.0768 9.47599 11.9704 9.38079 11.8976C9.28559 11.8248 9.224 11.7912 9.2296 11.7856C9.45064 11.8713 9.65523 11.9944 9.83439 12.1496C10.0306 12.307 10.2497 12.4335 10.484 12.5248C10.6193 12.583 10.7675 12.6048 10.9139 12.5881C11.0602 12.5714 11.1997 12.5168 11.3184 12.4296C11.4279 12.3284 11.5149 12.2053 11.5737 12.0683C11.6326 11.9313 11.662 11.7835 11.66 11.6344C11.6526 11.3854 11.5914 11.1409 11.4808 10.9176C11.3016 10.5256 11.1504 10.296 11.1672 10.2848Z" fill="#263238"/>
</svg>
