<svg width="34" height="20" viewBox="0 0 34 20" fill="none" xmlns="http://www.w3.org/2000/svg">
<path d="M2.94563 13.72L2.99604 10.92C2.99648 10.8324 3.02664 10.7476 3.08158 10.6795C3.13652 10.6113 3.21298 10.5638 3.29844 10.5448C4.38977 10.3265 5.45568 9.99621 6.47924 9.55918C7.82324 8.91518 9.43604 7.97438 10.5896 7.50398C11.8552 6.99438 15.2544 5.36478 15.9152 5.14078C15.9829 5.12133 16.0547 5.12133 16.1224 5.14078L29.036 7.91278H29.1032C29.3104 7.91278 30.4976 7.99118 30.5704 8.55678C30.6432 9.12238 30.5704 10.9536 30.5256 11.6368C30.5225 11.7108 30.4981 11.7824 30.4554 11.8429C30.4127 11.9035 30.3535 11.9505 30.2848 11.9784C29.092 12.4712 23.5648 14.7784 22.2208 16.184C20.6864 17.7576 18.8608 19.1016 18.172 19.1352C17.4832 19.1688 14.9072 18.228 14.1568 18.0152C13.4064 17.8024 4.83284 14.7224 3.20324 14.14C3.1175 14.1118 3.04453 14.0542 2.99736 13.9773C2.95018 13.9003 2.93185 13.8092 2.94563 13.72Z" fill="#FFBE9D"/>
<path d="M30.5703 8.50076C30.5703 8.50076 26.3311 10.4328 24.4103 11.2448C22.8743 11.9653 21.5007 12.9903 20.3727 14.2576C19.5719 15.0864 19.1687 15.6464 17.8359 15.6856C16.5031 15.7248 12.4823 14.112 10.4047 13.272C8.3271 12.432 4.15509 10.9984 3.17509 10.6624C3.15173 10.6544 3.12682 10.6521 3.10239 10.6556C3.07797 10.6591 3.05471 10.6684 3.03452 10.6825C3.01433 10.6967 2.99777 10.7155 2.98619 10.7373C2.97461 10.7591 2.96835 10.7833 2.9679 10.808V11.368L2.9231 13.9944C2.9231 13.9944 13.3895 17.724 14.1231 17.9592C14.8567 18.1944 17.4271 19.1296 18.1383 19.0792C18.8495 19.0288 20.6527 17.7016 22.1871 16.128C23.7215 14.5544 30.4807 11.8328 30.4807 11.8328C30.4807 11.8328 30.6487 9.12236 30.5703 8.50076Z" fill="#EB996E"/>
<path d="M10.4609 8.51212C10.2425 8.54012 10.0913 8.68572 10.1305 8.82012C10.1697 8.95452 10.3993 9.06092 10.6177 9.04972C10.8361 9.03852 11.0153 8.90412 11.0041 8.76412C10.9929 8.62412 10.7857 8.50652 10.5673 8.50092" fill="#EB996E"/>
<path d="M23.4809 10.0911C23.2625 10.1247 23.1113 10.2703 23.1505 10.4047C23.1897 10.5391 23.4193 10.6455 23.6377 10.6287C23.8561 10.6119 24.0409 10.4831 24.0241 10.3487C24.0073 10.2143 23.8113 10.0911 23.5873 10.0855" fill="#EB996E"/>
<path d="M23.5537 9.49196C23.4305 9.49196 23.3409 9.59276 23.3633 9.67116C23.3857 9.74956 23.5201 9.81116 23.6433 9.79996C23.7665 9.78876 23.8785 9.71596 23.8673 9.63756C23.8561 9.55916 23.7441 9.48636 23.6153 9.48636" fill="#EB996E"/>
<path d="M20.8372 11.8271C20.714 11.8271 20.6244 11.9279 20.6468 12.0063C20.6692 12.0847 20.8036 12.1463 20.9268 12.1351C21.05 12.1239 21.162 12.0511 21.1508 11.9727C21.1396 11.8943 21.0276 11.8215 20.8988 11.8215" fill="#EB996E"/>
<path d="M9.31267 8.88719C9.18387 8.88719 9.09986 8.98799 9.12226 9.06639C9.14466 9.14479 9.27346 9.20639 9.40226 9.19519C9.53106 9.18399 9.63187 9.11119 9.62627 9.03279C9.62067 8.95439 9.50307 8.88159 9.37427 8.88159" fill="#EB996E"/>
<path d="M3.20312 10.6624H3.28152L3.49992 10.7296L4.33433 11.0152C5.06233 11.2616 6.11513 11.6256 7.40313 12.0848C8.05273 12.3144 8.75833 12.572 9.51433 12.8576C10.2703 13.1432 11.0655 13.4736 11.9111 13.804C12.7567 14.1344 13.6471 14.476 14.5767 14.7952C15.0415 14.9576 15.5231 15.1144 16.0103 15.26C16.5013 15.4113 17.003 15.5255 17.5111 15.6016C17.5763 15.6071 17.6419 15.6071 17.7071 15.6016H17.9199H18.1103H18.3007C18.5519 15.5703 18.7972 15.5024 19.0287 15.4C19.4564 15.1551 19.8359 14.8344 20.1487 14.4536C20.7915 13.7507 21.4901 13.1008 22.2375 12.5104C22.9241 11.9766 23.6771 11.5342 24.4775 11.1944L26.5271 10.2816L29.5007 8.96557L30.3071 8.60717L30.5199 8.51758H30.5927L30.5255 8.55118L30.3127 8.65197L29.5119 9.01598L26.5495 10.36L24.4999 11.2784C23.7144 11.6237 22.9751 12.0658 22.2991 12.5944C21.5571 13.1831 20.8642 13.8311 20.2271 14.532C19.9023 14.9228 19.5072 15.2495 19.0623 15.4952C18.8233 15.6008 18.5708 15.6724 18.3119 15.708H18.1159H17.9199C17.8583 15.708 17.7911 15.708 17.7239 15.708C17.6567 15.708 17.5895 15.708 17.5279 15.708C17.0139 15.6313 16.5066 15.5152 16.0103 15.3608C15.5175 15.2152 15.0415 15.0584 14.5767 14.896C13.6415 14.5712 12.7511 14.2296 11.9055 13.8936C11.0599 13.5576 10.2703 13.2272 9.51433 12.9416C8.75833 12.656 8.05272 12.3816 7.40872 12.1632L4.34552 11.0432L3.51672 10.7464L3.29832 10.668L3.20312 10.6624Z" fill="#263238"/>
<g opacity="0.2">
<path d="M7.02222 9.24002C8.70222 10.164 10.4718 11.116 12.3814 11.0096C13.8486 10.9312 15.1814 10.2256 16.5254 9.58722C18.8565 8.46119 21.2651 7.50302 23.7326 6.72002C21.823 6.30562 19.9974 5.88562 18.0822 5.50482C17.5222 5.38722 16.475 5.16882 16.111 5.07362C16.0147 5.06074 15.9168 5.07837 15.831 5.12402C15.4334 5.29202 13.9606 5.93602 13.4902 6.14882C9.64862 7.89042 9.26782 8.08642 7.02222 9.24002Z" fill="black"/>
</g>
<path d="M2.67664 10.472C2.63184 10.5952 4.35664 16.968 4.35664 16.968C4.35664 16.968 8.67984 18.0376 10.7294 17.4944C12.779 16.9512 18.8046 14.8176 20.2494 14.5824C21.6942 14.3472 25.9054 14.4704 27.9718 14.7168C30.0382 14.9632 32.351 14.9352 33.6502 14.4256L33.6838 14.0784L30.9286 8.67998C29.3462 8.84219 27.75 8.81399 26.1742 8.59598C23.4638 8.23758 19.8182 8.03598 16.8502 9.27358C13.8822 10.5112 12.3702 10.7968 11.1494 10.9536C9.92864 11.1104 3.49424 10.2032 2.71024 10.1416L2.67664 10.472Z" fill="#6318AF"/>
<path opacity="0.3" d="M2.67664 10.472C2.63184 10.5952 4.35664 16.968 4.35664 16.968C4.35664 16.968 8.67984 18.0376 10.7294 17.4944C12.779 16.9512 18.8046 14.8176 20.2494 14.5824C21.6942 14.3472 25.9054 14.4704 27.9718 14.7168C30.0382 14.9632 32.351 14.9352 33.6502 14.4256L33.6838 14.0784L30.9286 8.67998C29.3462 8.84219 27.75 8.81399 26.1742 8.59598C23.4638 8.23758 19.8182 8.03598 16.8502 9.27358C13.8822 10.5112 12.3702 10.7968 11.1494 10.9536C9.92864 11.1104 3.49424 10.2032 2.71024 10.1416L2.67664 10.472Z" fill="black"/>
<path d="M2.71006 10.1248C2.65966 10.2424 4.39006 16.6152 4.39006 16.6152C4.39006 16.6152 8.71886 17.6904 10.7685 17.1752C12.8181 16.66 18.8437 14.4984 20.2885 14.2632C21.7333 14.028 25.9445 14.1512 28.0165 14.3976C30.0885 14.644 32.3957 14.616 33.6949 14.1064L30.9901 8.3664C29.4073 8.52478 27.8113 8.4947 26.2357 8.2768C23.5197 7.9184 19.8741 7.7168 16.9117 8.9544C13.9493 10.192 12.4317 10.4832 11.2053 10.6344C9.97886 10.7856 2.71006 10.1248 2.71006 10.1248Z" fill="#6318AF"/>
<path opacity="0.3" d="M33.6671 14.0784C32.3679 14.588 29.9935 14.5936 27.9271 14.3472C25.8607 14.1008 21.6271 13.9832 20.2047 14.2128C18.7823 14.4424 12.7567 16.5816 10.6847 17.1248C8.61266 17.668 4.44066 16.6656 4.44066 16.6656L4.33986 16.968L3.71826 14.6496L3.79106 14.4704C5.19106 14.3349 6.60028 14.3237 8.00226 14.4368C10.1359 14.6272 12.0231 15.0808 13.1543 14.7784C14.4652 14.4993 15.742 14.0787 16.9623 13.524C18.5423 12.673 20.3209 12.2593 22.1143 12.3256C24.2703 12.46 25.3735 12.6784 27.1543 12.8016C28.9351 12.9248 32.3847 12.124 32.6983 12.0344L33.6671 14.0784Z" fill="white"/>
<path opacity="0.3" d="M2.80005 11.1105L2.88405 10.9761C4.08192 11.4793 5.37755 11.7071 6.67525 11.6425C8.87605 11.5529 13.7424 10.9089 14.0336 11.0825C14.3248 11.2561 14.4313 11.2169 13.8265 11.6145C13.2217 12.0121 5.72885 13.6305 3.48325 13.2945L3.39365 13.4121L2.80005 11.1105Z" fill="white"/>
<path opacity="0.3" d="M31.427 9.32397C31.427 9.32397 29.1478 10.3824 23.2006 9.83358C23.2006 9.83358 19.3702 9.68798 17.315 10.8528C15.6558 11.7104 13.9423 12.4587 12.1854 13.0928C11.7934 13.2888 10.8638 13.524 11.5694 13.692C12.275 13.86 15.3998 12.936 16.4414 12.32C17.2276 11.8586 18.0712 11.5028 18.9502 11.2616C19.7454 11.0096 22.0022 10.9704 24.4438 11.2616C26.8854 11.5528 30.1334 11.7656 30.9566 11.3512C31.7798 10.9368 32.1046 10.7912 32.1046 10.7912L31.427 9.32397Z" fill="white"/>
<g opacity="0.8">
<path d="M17.718 8.83133H17.6844L17.5893 8.88173C17.4676 8.95341 17.3424 9.01883 17.2141 9.07773C16.8893 9.24013 16.4077 9.46413 15.7973 9.69933C15.081 9.96953 14.3476 10.1921 13.602 10.3657C12.6811 10.5751 11.7447 10.7099 10.802 10.7689C9.10262 10.8593 7.39874 10.8162 5.70605 10.6401L4.16605 10.4833L3.75165 10.4329L4.17165 10.4665L5.71165 10.6009C7.40161 10.7617 9.10104 10.7991 10.7964 10.7129C11.7294 10.6499 12.6562 10.5151 13.5684 10.3097C14.3136 10.1438 15.0469 9.92867 15.7636 9.66572C16.374 9.43612 16.8556 9.22333 17.186 9.06653C17.354 8.99373 17.4772 8.92652 17.5668 8.88732L17.662 8.84252L17.718 8.83133Z" fill="white"/>
</g>
<g opacity="0.8">
<path d="M20.328 8.43349C20.328 8.43349 19.9136 8.47829 19.4152 8.54549C18.9168 8.61269 18.508 8.7023 18.5024 8.6799C18.7927 8.57211 19.0958 8.50246 19.404 8.4727C19.7086 8.41539 20.0198 8.40219 20.328 8.43349Z" fill="white"/>
</g>
<g opacity="0.8">
<path d="M29.1704 8.90952C29.1704 8.90952 27.5576 8.82552 25.5752 8.66872C23.5928 8.51192 21.98 8.37752 21.98 8.35512C21.98 8.33272 23.5928 8.43912 25.5808 8.59592C27.5688 8.75272 29.1704 8.88712 29.1704 8.90952Z" fill="white"/>
</g>
<g opacity="0.8">
<path d="M4.7595 16.0272C4.7314 15.9756 4.70888 15.9211 4.6923 15.8648C4.6531 15.7584 4.5971 15.6072 4.5355 15.4112C4.4067 15.0304 4.2387 14.4984 4.0707 13.9104C3.9027 13.3224 3.75709 12.7904 3.66189 12.3872C3.61149 12.1912 3.5779 12.0288 3.5555 11.9224C3.54921 11.8647 3.54921 11.8065 3.5555 11.7488C3.57718 11.8018 3.59587 11.856 3.61149 11.9112L3.74029 12.3704L4.17149 13.888C4.33949 14.448 4.4963 15.008 4.6139 15.4C4.66243 15.5792 4.70723 15.7304 4.74829 15.8536C4.75711 15.911 4.76086 15.9691 4.7595 16.0272Z" fill="white"/>
</g>
<path d="M33.6727 8.4784C33.4869 8.19014 33.2448 7.94237 32.9609 7.74992C32.677 7.55746 32.3572 7.4243 32.0207 7.3584C31.3543 7.1848 30.6599 7.1456 29.9879 6.9832C28.7055 6.6752 27.5687 5.9136 26.3031 5.5384C23.3855 4.676 20.3391 5.8464 17.5559 7.0784C15.7135 7.336 14.3751 6.65279 12.5887 6.12079C10.8023 5.58879 8.85908 5.14079 7.10068 5.77359C5.77908 6.24399 4.64228 7.29679 3.24228 7.36399C2.27908 7.40879 1.16468 7.0112 0.442284 7.6496C-0.168116 8.2096 -0.078515 9.2176 0.386285 9.8896C1.09189 10.9144 2.40788 11.3344 3.64548 11.4576C4.88308 11.5808 6.15429 11.4576 7.36949 11.7768C10.2367 12.4712 12.2583 15.232 15.1311 15.9152C17.3263 16.436 19.6111 15.6408 21.6551 14.672C23.6991 13.7032 25.7039 12.5272 27.9439 12.236C28.8455 12.1128 29.7639 12.1408 30.6655 12.0288C31.5797 11.9555 32.4468 11.5926 33.1407 10.9928C33.4838 10.6837 33.7201 10.2739 33.8157 9.82214C33.9113 9.37037 33.8612 8.89993 33.6727 8.4784Z" fill="#6318AF"/>
<g opacity="0.8">
<path d="M33.6727 8.4784C33.4869 8.19014 33.2448 7.94237 32.9609 7.74992C32.677 7.55746 32.3572 7.4243 32.0207 7.3584C31.3543 7.1848 30.6599 7.1456 29.9879 6.9832C28.7055 6.6752 27.5687 5.9136 26.3031 5.5384C23.3855 4.676 20.3391 5.8464 17.5559 7.0784C15.7135 7.336 14.3751 6.65279 12.5887 6.12079C10.8023 5.58879 8.85908 5.14079 7.10068 5.77359C5.77908 6.24399 4.64228 7.29679 3.24228 7.36399C2.27908 7.40879 1.16468 7.0112 0.442284 7.6496C-0.168116 8.2096 -0.078515 9.2176 0.386285 9.8896C1.09189 10.9144 2.40788 11.3344 3.64548 11.4576C4.88308 11.5808 6.15429 11.4576 7.36949 11.7768C10.2367 12.4712 12.2583 15.232 15.1311 15.9152C17.3263 16.436 19.6111 15.6408 21.6551 14.672C23.6991 13.7032 25.7039 12.5272 27.9439 12.236C28.8455 12.1128 29.7639 12.1408 30.6655 12.0288C31.5797 11.9555 32.4468 11.5926 33.1407 10.9928C33.4838 10.6837 33.7201 10.2739 33.8157 9.82214C33.9113 9.37037 33.8612 8.89993 33.6727 8.4784Z" fill="white"/>
</g>
<path d="M22.4002 10.36C21.8637 9.34551 21.0631 8.49483 20.0829 7.89798C19.1027 7.30112 17.9794 6.98027 16.8319 6.96937C15.6843 6.95847 14.5552 7.25792 13.5638 7.83605C12.5725 8.41418 11.7558 9.24949 11.2002 10.2536C11.0664 10.4923 11.0307 10.7736 11.1008 11.038C11.1708 11.3025 11.341 11.5293 11.5754 11.6704C14.577 13.4568 18.6426 13.8152 21.7618 12.3144C22.136 12.1778 22.4456 11.9061 22.6298 11.5528C22.6754 11.3489 22.6785 11.1378 22.639 10.9326C22.5995 10.7274 22.5182 10.5325 22.4002 10.36Z" fill="#6318AF"/>
<g opacity="0.3">
<path d="M20.339 11.0544C20.0859 11.0449 19.8333 11.0829 19.5942 11.1664C18.011 11.5799 16.3325 11.4192 14.8566 10.7128C14.4982 10.5392 14.1118 10.2536 14.123 9.86159C14.151 9.6622 14.2216 9.47119 14.3302 9.30159C14.4376 9.13607 14.4777 8.93571 14.4422 8.74159C14.3862 8.55679 14.1342 8.42799 13.9886 8.55679C13.4535 8.86875 12.9715 9.26381 12.5606 9.72719C12.3859 9.90648 12.267 10.1326 12.2183 10.3781C12.1696 10.6236 12.1932 10.878 12.2862 11.1104C12.4646 11.4057 12.7337 11.6355 13.0534 11.7656C14.4926 12.488 16.167 12.5384 17.7798 12.572C18.7094 12.572 19.7118 12.572 20.4846 12.0736C20.5882 12.0182 20.6767 11.9381 20.7421 11.8405C20.8075 11.7428 20.8479 11.6305 20.8598 11.5136C20.8373 11.3896 20.7736 11.2769 20.6791 11.1935C20.5846 11.1102 20.4648 11.0612 20.339 11.0544Z" fill="white"/>
</g>
<g opacity="0.8">
<path d="M18.396 14.9126C18.0656 15.8478 14.4144 15.2262 12.796 14.1622C11.4912 13.311 10.4944 12.0062 9.07196 11.3622C7.80636 10.8022 6.36716 10.8022 4.98956 10.6902C3.61196 10.5782 1.77516 10.427 0.951961 9.31264C0.951961 9.31264 0.593562 9.02704 1.25996 8.97104C1.92636 8.91504 1.55676 9.53104 3.49996 9.86704C5.44316 10.203 6.97756 9.00464 10.6568 11.9502C14.336 14.8958 15.7472 14.823 16.5144 14.7502C17.2816 14.6774 18.5584 14.4646 18.396 14.9126Z" fill="white"/>
</g>
<g opacity="0.8">
<path d="M1.4332 7.7952C1.23417 7.8372 1.04443 7.915 0.873199 8.0248C0.71535 8.1546 0.58251 8.31212 0.481201 8.4896C0.481201 8.4896 0.481199 8.4112 0.531599 8.3104C0.601263 8.17254 0.703062 8.05347 0.828403 7.9632C0.952968 7.87341 1.09679 7.81396 1.2484 7.7896C1.30951 7.77603 1.37303 7.77795 1.4332 7.7952Z" fill="white"/>
</g>
<g opacity="0.8">
<path d="M8.445 6.11485C8.18223 6.09351 7.91816 6.09351 7.6554 6.11485C7.37263 6.13552 7.09389 6.1939 6.8266 6.28845C6.50011 6.41261 6.1928 6.58229 5.9138 6.79245C5.63505 7.00711 5.34533 7.20711 5.04579 7.39165C4.79836 7.5433 4.52494 7.64774 4.2394 7.69965C4.05459 7.73691 3.86421 7.73691 3.6794 7.69965L3.5282 7.65485H3.4834C3.4834 7.65485 3.5562 7.65485 3.6906 7.69965C3.87558 7.73505 4.06561 7.73505 4.2506 7.69965C4.52793 7.63781 4.79294 7.52991 5.0346 7.38045C5.309 7.21805 5.5946 6.99965 5.8914 6.78125C6.17614 6.56737 6.49139 6.39748 6.8266 6.27726C7.10098 6.18137 7.38756 6.12481 7.6778 6.10925C7.86513 6.10117 8.05279 6.11243 8.2378 6.14285L8.3946 6.17645L8.445 6.11485Z" fill="white"/>
</g>
<g opacity="0.8">
<path d="M27.4005 8.80276C27.4005 8.80276 27.2885 8.80277 27.0869 8.85877C26.7995 8.91633 26.5195 9.00651 26.2525 9.12757C25.8565 9.30913 25.4811 9.53254 25.1325 9.79397C24.7405 10.0852 24.3373 10.4436 23.9117 10.8188C23.1924 11.4722 22.3858 12.0226 21.5149 12.454C21.2477 12.5765 20.9704 12.6758 20.6861 12.7508C20.5853 12.7508 20.5069 12.79 20.4509 12.8012H20.3669C20.4692 12.7637 20.574 12.7338 20.6805 12.7116C20.96 12.629 21.2317 12.5222 21.4925 12.3924C22.3525 11.9525 23.1493 11.3987 23.8613 10.746C24.2543 10.3853 24.6655 10.0451 25.0933 9.72676C25.4409 9.46541 25.8165 9.24377 26.2133 9.06597C26.4854 8.94787 26.7715 8.86506 27.0645 8.81956C27.1653 8.81956 27.2493 8.81956 27.2997 8.81956L27.4005 8.80276Z" fill="white"/>
</g>
<g opacity="0.8">
<path d="M32.4128 10.6453C32.5344 10.5745 32.6488 10.4919 32.7544 10.3989C32.9994 10.1713 33.1544 9.86329 33.1912 9.53094C33.2153 9.1972 33.1201 8.86575 32.9224 8.59574C32.835 8.48792 32.7395 8.38682 32.6368 8.29333C32.6368 8.29333 32.676 8.29334 32.7376 8.34934C32.8222 8.40906 32.8977 8.48073 32.9616 8.56213C33.1865 8.83487 33.2969 9.18412 33.2696 9.53654C33.2282 9.88853 33.0564 10.2122 32.788 10.4437C32.7086 10.5117 32.62 10.5683 32.5248 10.6117C32.48 10.6397 32.4184 10.6509 32.4128 10.6453Z" fill="white"/>
</g>
<g opacity="0.8">
<path d="M10.9589 6.82068C9.91188 6.23639 8.69301 6.0382 7.51485 6.26068C7.13664 6.30715 6.77353 6.43732 6.45193 6.64171C6.13033 6.8461 5.85831 7.11958 5.65565 7.44228C5.54925 7.64948 5.93005 7.75028 6.10925 7.70548C6.29796 7.61418 6.4732 7.49736 6.63005 7.35828C7.45165 6.85239 8.4391 6.68949 9.37965 6.90468C9.84403 7.07232 10.3275 7.18143 10.8189 7.22948C10.9645 7.22948 11.1437 7.16228 11.1381 7.02228C11.1325 6.88228 11.0429 6.86548 10.9589 6.82068Z" fill="white"/>
</g>
<g opacity="0.8">
<path d="M16.2394 7.33035L16.0098 7.36956L15.7354 7.41995C15.6346 7.44795 15.5114 7.46475 15.3826 7.50395C15.2387 7.53969 15.0967 7.58268 14.957 7.63276C14.8058 7.68316 14.6546 7.75036 14.4866 7.81756C14.1311 7.97388 13.79 8.16128 13.4674 8.37756C13.1507 8.59915 12.8512 8.84438 12.5714 9.11116C12.4482 9.23996 12.325 9.35755 12.2242 9.48075C12.1256 9.59063 12.034 9.70659 11.9498 9.82796C11.8724 9.92203 11.8013 10.0212 11.737 10.1248C11.6754 10.2144 11.6306 10.2928 11.5914 10.3544C11.5546 10.4253 11.5115 10.4927 11.4626 10.556C11.4913 10.4828 11.525 10.4117 11.5634 10.3432C11.6044 10.2597 11.6512 10.1792 11.7034 10.1024C11.7646 9.99586 11.8319 9.89303 11.905 9.79436C11.9904 9.67215 12.082 9.5544 12.1794 9.44156C12.2869 9.30898 12.4009 9.18189 12.521 9.06075C12.8007 8.78595 13.1043 8.5367 13.4282 8.31596C13.7541 8.09858 14.099 7.91115 14.4586 7.75596C14.6266 7.68876 14.7834 7.62155 14.9402 7.57675C15.097 7.53195 15.237 7.49276 15.3714 7.45916C15.489 7.42632 15.6088 7.40199 15.7298 7.38636C15.8204 7.36737 15.912 7.35427 16.0042 7.34715L16.2394 7.33035Z" fill="white"/>
</g>
<g opacity="0.8">
<path d="M17.6621 7.40321C17.5401 7.40506 17.4183 7.39569 17.2981 7.37521C17.1755 7.3784 17.0531 7.36522 16.9341 7.33602C17.0508 7.28673 17.18 7.27498 17.3037 7.30241C17.4306 7.29896 17.5556 7.33411 17.6621 7.40321Z" fill="white"/>
</g>
<path d="M4.04858 9.09439L4.09899 6.38399C4.09858 6.29979 4.12738 6.21805 4.18047 6.1527C4.23357 6.08735 4.30768 6.04243 4.39018 6.02559C5.43602 5.81069 6.45825 5.49371 7.44218 5.07919C8.73018 4.46319 10.2702 3.56159 11.3622 3.11359C12.5774 2.62079 15.8422 1.05839 16.475 0.845587C16.5388 0.825763 16.6072 0.825763 16.671 0.845587L29.047 3.49999H29.1086C29.3102 3.49999 30.447 3.57279 30.5142 4.11599C30.5814 4.65919 30.5142 6.41759 30.4694 7.07279C30.4668 7.14337 30.4436 7.21166 30.4029 7.26933C30.3621 7.327 30.3054 7.37157 30.2398 7.39759C29.1198 7.86799 23.8222 10.0856 22.5118 11.4296C21.039 12.936 19.3142 14.2296 18.631 14.2296C17.9478 14.2296 15.5062 13.3672 14.7838 13.1432C14.0614 12.9192 5.82378 9.98479 4.28378 9.42479C4.21704 9.39804 4.15939 9.35268 4.1177 9.29411C4.076 9.23553 4.05201 9.16621 4.04858 9.09439Z" fill="#FFBE9D"/>
<path d="M30.5251 4.11606C30.5251 4.11606 26.4596 5.96966 24.6508 6.74806C23.1792 7.44064 21.8615 8.4213 20.7756 9.63205C20.0084 10.4329 19.622 10.9705 18.3508 11.0041C17.0796 11.0377 13.2212 9.49766 11.2276 8.69126C9.23395 7.88486 5.23555 6.51286 4.30035 6.18806C4.27774 6.18006 4.25356 6.17755 4.2298 6.18074C4.20604 6.18393 4.18338 6.19274 4.16369 6.20641C4.144 6.22009 4.12784 6.23825 4.11655 6.2594C4.10526 6.28055 4.09916 6.30408 4.09876 6.32806V6.84326L4.05396 9.35766C4.05396 9.35766 14.0892 12.9361 14.806 13.1657C15.5228 13.3953 17.9756 14.2857 18.6532 14.2521C19.3308 14.2185 21.0612 12.9361 22.534 11.4521C24.0068 9.96805 30.4803 7.33045 30.4803 7.33045C30.4803 7.33045 30.6035 4.71526 30.5251 4.11606Z" fill="#EB996E"/>
<path d="M11.2504 4.12712C11.0432 4.12712 10.8976 4.29512 10.9368 4.42392C10.976 4.55272 11.1944 4.65352 11.4016 4.64232C11.6088 4.63112 11.788 4.50232 11.7768 4.37352C11.7656 4.24472 11.5696 4.12152 11.3568 4.12152" fill="#EB996E"/>
<path d="M23.7328 5.6447C23.5256 5.6447 23.38 5.8127 23.4192 5.9415C23.4584 6.0703 23.6712 6.1711 23.884 6.1599C24.0968 6.1487 24.2648 6.0199 24.2536 5.8911C24.2424 5.7623 24.0464 5.6391 23.8336 5.6391" fill="#EB996E"/>
<path d="M23.7995 5.06804C23.6819 5.06804 23.5979 5.16324 23.6203 5.24164C23.6476 5.28674 23.6879 5.32259 23.7358 5.34456C23.7837 5.36652 23.8371 5.37359 23.8891 5.36484C24.0123 5.36484 24.1075 5.28644 24.1019 5.20804C24.0963 5.12964 23.9843 5.06244 23.8611 5.06244" fill="#EB996E"/>
<path d="M21.1958 7.30797C21.0782 7.30797 20.9942 7.40318 21.0166 7.47598C21.039 7.54878 21.1622 7.61037 21.2854 7.60477C21.4086 7.59917 21.5094 7.52077 21.4982 7.44797C21.487 7.37517 21.3806 7.30237 21.2574 7.30237" fill="#EB996E"/>
<path d="M10.1525 4.48561C10.0293 4.48561 9.94533 4.58082 9.96773 4.65922C9.99559 4.70378 10.0359 4.7392 10.0837 4.7611C10.1314 4.78299 10.1846 4.7904 10.2365 4.78241C10.3597 4.78241 10.4605 4.70401 10.4549 4.62561C10.4493 4.54721 10.3317 4.48561 10.2085 4.48001" fill="#EB996E"/>
<path d="M4.30078 6.18797H4.37358L4.58078 6.25516L5.38159 6.52396C6.08159 6.76476 7.06158 7.11197 8.32718 7.55437C8.94318 7.77277 9.62078 8.01916 10.3488 8.29356C11.0768 8.56796 11.8328 8.88156 12.6448 9.19516C13.4568 9.50876 14.3248 9.83916 15.1984 10.1472C15.6464 10.304 16.1056 10.4552 16.5704 10.5952C17.041 10.7403 17.5222 10.8489 18.0096 10.92C18.0711 10.9255 18.1329 10.9255 18.1944 10.92C18.256 10.92 18.3176 10.92 18.3792 10.92H18.564H18.7488C18.9897 10.8943 19.2244 10.828 19.4432 10.724C19.8705 10.4974 20.2506 10.1914 20.5632 9.82236C21.1775 9.14718 21.8461 8.5235 22.5624 7.95757C23.215 7.45141 23.9279 7.02817 24.6848 6.69757L26.6504 5.82396L29.5008 4.55837L30.2736 4.22236L30.4808 4.13277L30.548 4.10477L30.4808 4.14396L30.2848 4.23356L29.512 4.58637L26.6504 5.87997L24.6904 6.76477C23.9379 7.09705 23.2289 7.5202 22.5792 8.02477C21.8705 8.59338 21.2059 9.21489 20.5912 9.88396C20.2787 10.259 19.8988 10.5724 19.4712 10.808C19.244 10.9114 19.0022 10.9794 18.7544 11.0096H18.564H18.1888C18.1216 11.0096 18.06 11.0096 17.9984 11.0096C17.5056 10.9352 17.019 10.8247 16.5424 10.6792C16.072 10.5392 15.6184 10.388 15.1704 10.2312C14.2744 9.92317 13.4232 9.59276 12.6112 9.27356C11.7992 8.95436 11.0432 8.63516 10.3208 8.36076C9.59838 8.08636 8.92079 7.83997 8.29919 7.61597L5.37038 6.56317L4.56959 6.28317L4.36238 6.20477L4.30078 6.18797Z" fill="#263238"/>
<g opacity="0.3">
<path d="M20.4168 2.26799C19.0328 1.88471 17.5925 1.74636 16.1608 1.85919C14.7751 2.13049 13.448 2.64423 12.2408 3.37678C10.8856 4.10478 9.53603 4.86078 8.20323 5.61678C8.14728 5.65012 8.09896 5.69484 8.0614 5.74805C8.02383 5.80126 7.99787 5.86178 7.9852 5.92567C7.97253 5.98955 7.97342 6.0554 7.98783 6.11892C8.00224 6.18244 8.02984 6.24222 8.06884 6.29439C8.86404 6.99439 9.86084 6.85439 10.8352 6.45119C11.8096 6.04799 12.6664 5.17998 13.5456 4.48558C14.4248 3.79118 15.5056 3.18638 16.6144 3.36558C17.1715 3.51533 17.7178 3.70242 18.2496 3.92558C18.8581 4.08945 19.4844 4.17785 20.1144 4.18878L23.4464 4.37358C23.5645 4.37098 23.6788 4.3311 23.7729 4.25964C23.8669 4.18817 23.936 4.0888 23.9702 3.97571C24.0043 3.86263 24.0019 3.74164 23.9631 3.63005C23.9244 3.51845 23.8513 3.42196 23.7544 3.35439C22.7072 2.81601 21.5803 2.44921 20.4168 2.26799Z" fill="white"/>
</g>
</svg>
