<svg width="32" height="33" viewBox="0 0 32 33" fill="none" xmlns="http://www.w3.org/2000/svg">
<path d="M16 30.5C8.3 30.5 2 24.2 2 16.5C2 8.8 8.3 2.5 16 2.5C23.7 2.5 30 8.8 30 16.5C30 24.2 23.7 30.5 16 30.5ZM16 3.5C8.8 3.5 3 9.3 3 16.5C3 23.7 8.8 29.5 16 29.5C23.2 29.5 29 23.7 29 16.5C29 9.3 23.2 3.5 16 3.5Z" fill="#60666C"/>
<path d="M18.1892 23.8473C18.2045 23.17 18.2287 22.4949 18.244 21.8242C18.2988 19.72 18.2396 17.5873 18.2988 15.4722C18.358 13.3724 18.244 11.277 18.2528 9.17934C18.255 8.74316 18.2155 7.88395 18.6429 7.62531C19.5657 7.06858 20.1553 8.51302 20.4074 9.09825C20.8611 10.1635 21.1373 11.2901 21.4704 12.3948C21.7532 13.3417 22.0754 14.2864 22.1981 15.2705C22.2902 16.0092 22.3033 16.8377 21.9461 17.515C21.7663 17.8548 21.4485 18.0915 21.0803 18.1967C20.6989 18.3063 20.2583 18.1857 19.8989 18.372C19.8068 18.4203 19.7257 18.5211 19.6906 18.6197C19.581 18.9397 19.7038 19.4197 19.7476 19.7441C19.8901 20.7962 20.0369 21.8593 20.118 22.918C20.1663 23.558 20.2211 24.3778 19.8594 24.9454C19.638 25.2896 19.1799 25.6184 18.7569 25.4583C18.1278 25.2282 18.176 24.3865 18.1892 23.8473Z" fill="#60666C"/>
<path d="M14.4787 8.07068C14.299 8.1474 14.3735 8.81373 14.3691 9.01976C14.3603 9.388 14.391 9.87678 14.3516 10.3546V10.3656C14.3494 10.3984 14.345 10.4357 14.3406 10.473C14.3362 10.5102 14.3297 10.5453 14.3253 10.5804C14.2902 10.8127 14.2201 11.0889 14.082 11.2226C13.9263 11.3738 13.5735 11.3475 13.4507 11.17C13.2469 10.8829 13.2578 10.2319 13.2447 10.2121C13.2337 9.90528 13.1811 8.97593 13.111 8.3644C13.1044 8.31837 13.0934 8.04 12.8501 8.0137C12.7362 8.00055 12.6156 8.10356 12.5805 8.28768C12.4709 8.83126 12.3745 9.86802 12.3679 10.0302C12.3679 10.0456 12.3657 10.0631 12.3657 10.0806V10.085C12.3657 10.1179 12.3351 10.9311 12.14 11.2116C12.037 11.3585 11.7695 11.4768 11.5021 11.3234C11.3947 11.262 11.3202 11.1415 11.2676 11.0144C10.9805 10.1157 11.2194 9.12059 11.2501 8.64715C11.2588 8.51344 11.3706 8.06849 11.112 8.08603C10.7218 8.11233 10.2352 9.83952 10.1498 10.2362C9.93934 11.2204 9.91523 12.2725 10.3098 13.2172C10.5268 13.7389 10.9498 14.1663 11.4693 14.3701C11.6994 14.46 11.9537 14.5235 12.2233 14.5586C12.1487 16.7943 12.0611 19.1287 11.9734 20.4262C11.9054 21.4038 11.8243 22.3923 11.8463 23.3743C11.8594 23.9595 11.8616 24.6587 12.2364 25.1475C12.631 25.656 13.4463 25.4127 13.6611 24.8034C13.9022 24.1173 13.8211 23.3217 13.7269 22.0658C13.6304 20.8098 13.5165 19.0958 13.4551 18.173C13.3652 16.8162 13.3258 15.6282 13.3082 14.5455C13.9965 14.4359 14.6365 14.1246 14.9916 13.5547C15.1472 13.3071 15.248 13.0287 15.316 12.7459C15.4212 12.3163 15.4694 11.8429 15.4409 11.4023C15.4102 10.999 15.0552 7.8252 14.4787 8.07068Z" fill="#60666C"/>
</svg>
