<svg width="14" height="16" viewBox="0 0 14 16" fill="none" xmlns="http://www.w3.org/2000/svg">
<path d="M11.2432 11.6176C10.5408 12.3201 9.07178 13.7891 8.06096 14.7999C7.47517 15.3857 6.52637 15.386 5.94058 14.8003C4.94737 13.807 3.5068 12.3665 2.75797 11.6176C0.414824 9.27449 0.414824 5.4755 2.75797 3.13236C5.10112 0.789214 8.9001 0.789214 11.2432 3.13236C13.5864 5.4755 13.5864 9.27449 11.2432 11.6176Z" stroke="#6318AF" stroke-width="1.125" stroke-linecap="round" stroke-linejoin="round"/>
<path d="M9.25061 7.375C9.25061 8.61764 8.24325 9.625 7.00061 9.625C5.75797 9.625 4.75061 8.61764 4.75061 7.375C4.75061 6.13236 5.75797 5.125 7.00061 5.125C8.24325 5.125 9.25061 6.13236 9.25061 7.375Z" stroke="#6318AF" stroke-width="1.125" stroke-linecap="round" stroke-linejoin="round"/>
</svg>
