<svg width="32" height="33" viewBox="0 0 32 33" fill="none" xmlns="http://www.w3.org/2000/svg">
<path fill-rule="evenodd" clip-rule="evenodd" d="M24.9138 25.9628C27.4295 23.5922 29 20.2295 29 16.5C29 9.3203 23.1797 3.5 16 3.5C8.8203 3.5 3 9.3203 3 16.5C3 20.2295 4.57047 23.5922 7.08617 25.9628C9.41349 28.1559 12.5498 29.5 16 29.5C19.4502 29.5 22.5865 28.1559 24.9138 25.9628ZM8.1935 24.2497C10.0262 21.9637 12.8421 20.5 16 20.5C19.1579 20.5 21.9738 21.9637 23.8065 24.2497C21.8137 26.257 19.052 27.5 16 27.5C12.948 27.5 10.1863 26.257 8.1935 24.2497ZM21 12.5C21 15.2614 18.7614 17.5 16 17.5C13.2386 17.5 11 15.2614 11 12.5C11 9.73858 13.2386 7.5 16 7.5C18.7614 7.5 21 9.73858 21 12.5Z" fill="#60666C"/>
</svg>
